<svg width="80" height="80" viewBox="0 0 80 80" version="1.1" xmlns="http://www.w3.org/2000/svg" xmlns:xlink="http://www.w3.org/1999/xlink">
<title>Frame 4</title>
<desc>Created using Figma</desc>
<g id="Canvas" transform="translate(-10842 2006)">
<clipPath id="clip-0" clip-rule="evenodd">
<path d="M 10842 -2006L 10922 -2006L 10922 -1926L 10842 -1926L 10842 -2006Z" fill="#FFFFFF"/>
</clipPath>
<g id="Frame 4" clip-path="url(#clip-0)">
<g id="coin">
<g id="006-fennec">
<g id="Group">
<g id="Vector">
<use xlink:href="#path0_fill" transform="translate(10847 -1996)" fill="#FF4F19"/>
</g>
<g id="Vector">
<use xlink:href="#path1_fill" transform="translate(10888.5 -1965.35)" fill="#FF4F19"/>
</g>
<g id="Vector">
<use xlink:href="#path2_fill" transform="translate(10896.9 -1965.35)" fill="#FF4F19"/>
</g>
</g>
</g>
</g>
</g>
</g>
<defs>
<path id="path0_fill" d="M 26.1007 49.6579C 26.7707 48.776 27.2986 47.7408 27.4682 46.5547L 31.6477 46.5547C 33.4734 46.5547 34.6192 47.7484 35.0529 50.1027C 35.4134 52.0593 36.4417 57.9825 36.452 58.0422C 36.5482 58.5955 37.0341 59 37.603 59L 43.2082 59C 43.7748 59 44.2596 58.5987 44.3581 58.048L 47.9144 38.1606C 51.9424 37.582 55.7196 34.4827 57.5104 31.189C 60.0448 28.1438 67.545 22.3836 70.5273 20.2033C 70.9423 19.8999 71.1061 19.3633 70.9298 18.8841C 70.7536 18.4051 70.2797 18.0985 69.7634 18.127C 69.7634 18.127 52.4843 19.4678 46.7112 19.4678C 43.2284 19.4678 32.804 18.6589 32.804 18.6589C 33.4714 15.605 32.9093 12.2443 31.1074 9.67565L 24.6679 0.496414C 24.3922 0.103747 23.8997 -0.080554 23.4296 0.033225C 22.9594 0.147156 22.6092 0.535406 22.5492 1.00941L 21.7171 7.57889C 21.4091 10.0092 19.9002 12.1139 17.6804 13.2092L 6.8961 18.5303C 3.40691 20.2519 0.978555 23.4064 0.233825 27.1853C -0.510904 30.9644 0.542213 34.7872 3.12322 37.6738L 13.0524 48.7786C 14.2528 53.69 16.7599 58.1245 16.9255 58.4139C 17.1326 58.7759 17.5211 58.9998 17.9423 58.9998L 23.5475 58.9998C 24.1184 58.9998 24.6055 58.5926 24.6994 58.0371L 26.1007 49.6579L 26.1007 49.6579ZM 28.8455 24.7825C 30.8738 26.4161 32.9363 28.1636 34.4481 29.6363C 31.6935 30.707 24.9738 33.299 17.5359 36.0253C 16.0082 36.5852 14.8109 37.4604 13.958 38.6372C 13.9654 38.0688 14.0256 37.4959 14.1461 36.9238C 14.6621 34.4758 16.1428 32.419 18.3155 31.1327L 28.8455 24.7825ZM 34.6363 26.6455C 32.3083 24.537 29.4772 22.2873 27.3457 20.6501L 38.864 21.3201C 38.3714 21.5757 37.9128 21.8598 37.4933 22.1738C 35.8888 23.3747 34.8785 24.9718 34.6363 26.6455L 34.6363 26.6455ZM 36.9915 28.2029C 38.5364 28.272 41.5168 28.6294 43.2881 30.2931C 44.1296 31.0833 44.5936 32.0613 44.6982 33.2704C 44.6518 33.3752 44.6211 33.5048 44.6211 33.667C 44.6211 34.4106 45.6026 35.3334 46.1875 35.8173C 46.2717 35.8869 46.3698 35.9304 46.4717 35.9493C 42.1691 35.8738 37.6251 31.6088 36.9915 28.2029L 36.9915 28.2029ZM 46.2481 33.1233C 46.1067 31.5467 45.4725 30.2214 44.3571 29.1759C 42.1879 27.1423 38.7614 26.7329 37.0142 26.6627C 37.5022 24.7324 39.8847 22.0189 46.5876 22.0189C 52.8918 22.0189 55.627 24.5696 56.1601 26.6628C 54.412 26.7334 50.9882 27.1434 48.8201 29.1759C 47.7051 30.2212 47.0707 31.547 46.9293 33.1233L 46.2481 33.1233ZM 24.8202 24.5935L 18.0047 15.6258L 18.7246 15.2706C 21.6444 13.83 23.6293 11.0616 24.0341 7.86509L 24.4873 4.28829L 29.1872 10.9878C 30.6175 13.0266 31.1136 15.4845 30.5837 17.9086C 30.5384 18.1159 30.4837 18.3192 30.4246 18.5207L 23.6589 18.1271C 23.1418 18.0973 22.6688 18.405 22.4925 18.8844C 22.3162 19.3635 22.48 19.9001 22.8952 20.2035C 23.8761 20.9206 25.3461 22.025 26.9672 23.2927L 24.8202 24.5935L 24.8202 24.5935ZM 4.87445 36.1492C 2.77686 33.8032 1.921 30.6964 2.52636 27.6255C 3.13155 24.5545 5.10505 21.9909 7.94058 20.5917L 16.5893 16.3243L 23.478 25.3884L 17.1138 29.1567C 14.4155 30.7545 12.5003 33.4145 11.8595 36.4549C 11.3986 38.6416 11.6259 40.9058 12.469 42.9454C 12.4221 43.4863 12.411 44.0397 12.431 44.6006L 4.87445 36.1492ZM 21.9128 56.6953L 21.9128 53.0358C 22.2872 52.841 22.7796 52.5633 23.3167 52.2051L 22.5584 56.6953L 21.9128 56.6953ZM 42.2284 56.6953L 41.6179 56.6953L 41.9928 46.8284C 42.0171 46.1923 41.5142 45.6574 40.8698 45.6336C 40.2234 45.6125 39.6832 46.1061 39.6591 46.742L 39.2808 56.6953L 38.5873 56.6953C 38.2786 54.9224 37.6243 51.1761 37.3505 49.6904C 36.7135 46.233 34.6349 44.25 31.6475 44.25L 26.35 44.25C 26.0277 44.25 25.7196 44.3815 25.4989 44.6134C 25.2782 44.8453 25.1644 45.1567 25.1845 45.4742C 25.4094 49.0269 20.3343 51.2361 20.2849 51.2572C 19.8556 51.4388 19.5772 51.8555 19.5772 52.3164L 19.5772 56.6953L 18.642 56.6953C 17.4475 54.4274 13.3852 46.1186 15.2028 41.2193C 15.7461 39.7547 16.7753 38.7626 18.349 38.1856C 26.3815 35.2415 33.5796 32.4529 35.8743 31.5587C 37.7833 34.7862 41.5577 37.7402 45.5365 38.1961L 42.2284 56.6953L 42.2284 56.6953ZM 46.7035 35.9493C 46.8054 35.9303 46.9036 35.8867 46.9877 35.8173C 47.5727 35.3334 48.5542 34.4106 48.5542 33.667C 48.5542 33.5068 48.5242 33.3782 48.4787 33.2741C 48.5829 32.0633 49.047 31.0841 49.8893 30.2931C 51.6598 28.6303 54.6383 28.2725 56.1837 28.2031C 55.5501 31.609 51.0063 35.8738 46.7035 35.9493L 46.7035 35.9493ZM 58.5609 26.85C 58.3681 25.1688 57.3492 23.485 55.7488 22.2524C 55.3081 21.9131 54.8229 21.6083 54.3007 21.3352L 66.077 20.6502C 63.8764 22.3403 60.9298 24.6834 58.5609 26.85Z"/>
<path id="path1_fill" d="M 0.934114 1.84362C 1.18014 1.84362 1.41985 1.74522 1.59426 1.5731C 1.76867 1.40114 1.86838 1.1646 1.86838 0.921807C 1.86838 0.679018 1.76867 0.440952 1.59426 0.268836C 1.42 0.0982439 1.18014 1.11559e-06 0.934114 1.11559e-06C 0.688083 1.11559e-06 0.446839 0.0982439 0.272426 0.268836C 0.0995559 0.440952 -7.91335e-07 0.679018 -7.91335e-07 0.921807C -7.91335e-07 1.1646 0.0995559 1.40114 0.272426 1.5731C 0.446839 1.74507 0.688237 1.84362 0.934114 1.84362Z"/>
<path id="path2_fill" d="M 0.934116 3.71862e-08C 0.688085 3.71862e-08 0.446837 0.0982429 0.272423 0.268835C 0.0995536 0.440951 1.58267e-06 0.679019 1.58267e-06 0.921808C 1.58267e-06 1.1646 0.0995536 1.40114 0.272423 1.57311C 0.446837 1.74522 0.688085 1.84362 0.934116 1.84362C 1.18015 1.84362 1.41985 1.74522 1.59426 1.57311C 1.76867 1.40114 1.86838 1.1646 1.86838 0.921808C 1.86838 0.679019 1.76867 0.440951 1.59426 0.268835C 1.42 0.0982429 1.18015 3.71862e-08 0.934116 3.71862e-08Z"/>
</defs>
</svg>
