<svg width="349" height="85" viewBox="0 0 349 85" version="1.1" xmlns="http://www.w3.org/2000/svg" xmlns:xlink="http://www.w3.org/1999/xlink">
<title>pollygot-logo</title>
<desc>Created using Figma</desc>
<g id="Canvas" transform="translate(384 313)">
<g id="pollygot-logo">
<g id="logo 2">
<g id="Canvas">
<g id="logo">
<g id="Group">
<g id="Vector">
<g id="Vector">
<use xlink:href="#path0_fill" transform="translate(-384 -313)" fill="#48A63A"/>
</g>
</g>
<g id="Vector">
<g id="Vector">
<use xlink:href="#path1_fill" transform="translate(-384 -313)" fill="#3D8C31"/>
</g>
</g>
<g id="Vector">
<g id="Vector">
<use xlink:href="#path2_fill" transform="translate(-347.345 -313)" fill="#FFDB2D"/>
</g>
</g>
<g id="Vector">
<g id="Vector">
<use xlink:href="#path3_fill" transform="translate(-347.345 -290.558)" fill="#E3C328"/>
</g>
</g>
<g id="Vector">
<g id="Vector">
<use xlink:href="#path4_fill" transform="translate(-384 -252.048)" fill="#4BBAED"/>
</g>
</g>
<g id="Vector">
<g id="Vector">
<use xlink:href="#path5_fill" transform="translate(-384 -284.723)" fill="#FF4F19"/>
</g>
</g>
<g id="Ellipse">
<g id="Vector">
<use xlink:href="#path6_fill" transform="translate(-361.967 -302.309)" fill="#FFFFFF"/>
</g>
</g>
</g>
</g>
</g>
</g>
<g id="Pollygot">
<use xlink:href="#path7_fill" transform="translate(-302 -313)" fill="#333333"/>
</g>
</g>
</g>
<defs>
<path id="path0_fill" d="M 0 18.3653C 0 8.22243 8.24464 0 18.4149 0L 36.655 0L 43.5851 0C 53.7554 0 62 8.22243 62 18.3653L 62 30.5645L 36.655 30.5645L 36.655 42.5866C 36.655 52.7295 28.4104 60.9519 18.2401 60.9519L 10.8203 60.9519L 10.8203 78.4798C 9.22901 83.1805 5.65554 84.8323 0 85L 0 68.2102L 0 60.9519L 0 28.2767L 0 18.3653Z"/>
<path id="path1_fill" d="M 0 18.3653C 0 8.22243 8.24464 0 18.4149 0L 18.2401 60.9519L 10.8203 60.9519L 10.8203 78.4798C 9.22901 83.1805 5.65554 84.8323 0 85L 0 68.2102L 0 60.9519L 0 28.2767L 0 18.3653Z"/>
<path id="path2_fill" d="M 6.93006 0C 17.1004 0 25.345 8.22243 25.345 18.3653L 25.345 30.5645L 0 30.5645L 0 22.4422L 0 0L 6.93006 0Z"/>
<path id="path3_fill" d="M 0 8.12222L 25.345 8.12222L 13.8605 0L 0 0L 0 8.12222Z"/>
<path id="path4_fill" d="M 10.8203 17.5279L 10.8203 0L 0 0L 0 7.25834L 0 24.0481C 5.65554 23.8805 9.22901 22.2286 10.8203 17.5279Z"/>
<path id="path5_fill" d="M 15.1837 19.9668C 15.1837 10.4541 8.75842 2.43817 0 0L 0 32.6751L 0 39.9334C 8.75842 37.4954 15.1837 29.4794 15.1837 19.9668Z"/>
<path id="path6_fill" d="M 4.60373 2.29566C 4.60373 3.56352 3.57315 4.59133 2.30187 4.59133C 1.03058 4.59133 0 3.56352 0 2.29566C 0 1.02781 1.03058 0 2.30187 0C 3.57315 0 4.60373 1.02781 4.60373 2.29566Z"/>
<path id="path7_fill" d="M 14.72 51.128L 14.72 67L 3.776 67L 3.776 21.752L 21.504 21.752C 26.88 21.752 30.976 23.096 33.792 25.784C 36.608 28.4293 38.016 32.0133 38.016 36.536C 38.016 39.352 37.376 41.8693 36.096 44.088C 34.8587 46.264 33.0027 47.992 30.528 49.272C 28.0533 50.5093 25.0453 51.128 21.504 51.128L 14.72 51.128ZM 20.288 42.36C 24.6827 42.36 26.88 40.4187 26.88 36.536C 26.88 32.568 24.6827 30.584 20.288 30.584L 14.72 30.584L 14.72 42.36L 20.288 42.36ZM 60.105 30.84C 63.6463 30.84 66.8037 31.5867 69.577 33.08C 72.393 34.5307 74.5903 36.6427 76.169 39.416C 77.7903 42.1893 78.601 45.432 78.601 49.144C 78.601 52.856 77.7903 56.0987 76.169 58.872C 74.5903 61.6453 72.393 63.7787 69.577 65.272C 66.8037 66.7227 63.6463 67.448 60.105 67.448C 56.5637 67.448 53.385 66.7227 50.569 65.272C 47.753 63.7787 45.5343 61.6453 43.913 58.872C 42.3343 56.0987 41.545 52.856 41.545 49.144C 41.545 45.432 42.3343 42.1893 43.913 39.416C 45.5343 36.6427 47.753 34.5307 50.569 33.08C 53.385 31.5867 56.5637 30.84 60.105 30.84ZM 60.105 40.312C 58.0143 40.312 56.2437 41.08 54.793 42.616C 53.385 44.1093 52.681 46.2853 52.681 49.144C 52.681 52.0027 53.385 54.1787 54.793 55.672C 56.2437 57.1653 58.0143 57.912 60.105 57.912C 62.1957 57.912 63.945 57.1653 65.353 55.672C 66.761 54.1787 67.465 52.0027 67.465 49.144C 67.465 46.2853 66.761 44.1093 65.353 42.616C 63.945 41.08 62.1957 40.312 60.105 40.312ZM 95.22 19.64L 95.22 67L 84.276 67L 84.276 19.64L 95.22 19.64ZM 113.72 19.64L 113.72 67L 102.776 67L 102.776 19.64L 113.72 19.64ZM 129.532 31.288L 138.108 53.176L 146.108 31.288L 158.204 31.288L 135.932 84.024L 123.9 84.024L 132.284 65.656L 117.308 31.288L 129.532 31.288ZM 175.406 30.84C 178.137 30.84 180.484 31.4587 182.447 32.696C 184.409 33.9333 185.86 35.6187 186.798 37.752L 186.798 31.288L 197.678 31.288L 197.678 66.808C 197.678 70.136 197.038 73.1227 195.758 75.768C 194.478 78.456 192.516 80.5893 189.87 82.168C 187.225 83.7467 183.94 84.536 180.014 84.536C 174.638 84.536 170.329 83.256 167.087 80.696C 163.887 78.1787 161.966 74.744 161.327 70.392L 172.143 70.392C 172.484 71.8427 173.252 72.9733 174.447 73.784C 175.684 74.5947 177.284 75 179.246 75C 181.508 75 183.321 74.3387 184.686 73.016C 186.094 71.736 186.798 69.6667 186.798 66.808L 186.798 60.536C 185.86 62.6693 184.409 64.3547 182.447 65.592C 180.484 66.8293 178.137 67.448 175.406 67.448C 172.463 67.448 169.817 66.7227 167.47 65.272C 165.166 63.7787 163.332 61.6453 161.966 58.872C 160.644 56.0987 159.982 52.856 159.982 49.144C 159.982 45.3893 160.644 42.1467 161.966 39.416C 163.332 36.6427 165.166 34.5307 167.47 33.08C 169.817 31.5867 172.463 30.84 175.406 30.84ZM 178.927 40.44C 176.58 40.44 174.681 41.208 173.231 42.744C 171.823 44.28 171.119 46.4133 171.119 49.144C 171.119 51.8747 171.823 54.008 173.231 55.544C 174.681 57.08 176.58 57.848 178.927 57.848C 181.231 57.848 183.108 57.0587 184.559 55.48C 186.052 53.9013 186.798 51.7893 186.798 49.144C 186.798 46.456 186.052 44.344 184.559 42.808C 183.108 41.2293 181.231 40.44 178.927 40.44ZM 221.917 30.84C 225.459 30.84 228.616 31.5867 231.389 33.08C 234.206 34.5307 236.403 36.6427 237.982 39.416C 239.603 42.1893 240.413 45.432 240.413 49.144C 240.413 52.856 239.603 56.0987 237.982 58.872C 236.403 61.6453 234.206 63.7787 231.389 65.272C 228.616 66.7227 225.459 67.448 221.917 67.448C 218.376 67.448 215.197 66.7227 212.381 65.272C 209.565 63.7787 207.347 61.6453 205.726 58.872C 204.147 56.0987 203.357 52.856 203.357 49.144C 203.357 45.432 204.147 42.1893 205.726 39.416C 207.347 36.6427 209.565 34.5307 212.381 33.08C 215.197 31.5867 218.376 30.84 221.917 30.84ZM 221.917 40.312C 219.827 40.312 218.056 41.08 216.606 42.616C 215.198 44.1093 214.494 46.2853 214.494 49.144C 214.494 52.0027 215.198 54.1787 216.606 55.672C 218.056 57.1653 219.827 57.912 221.917 57.912C 224.008 57.912 225.757 57.1653 227.166 55.672C 228.573 54.1787 229.278 52.0027 229.278 49.144C 229.278 46.2853 228.573 44.1093 227.166 42.616C 225.757 41.08 224.008 40.312 221.917 40.312ZM 266.312 57.592L 266.312 67L 261.385 67C 257.203 67 253.939 65.976 251.593 63.928C 249.288 61.8373 248.137 58.4027 248.137 53.624L 248.137 40.504L 243.337 40.504L 243.337 31.288L 248.137 31.288L 248.137 22.52L 259.081 22.52L 259.081 31.288L 266.248 31.288L 266.248 40.504L 259.081 40.504L 259.081 53.816C 259.081 55.224 259.358 56.2053 259.913 56.76C 260.51 57.3147 261.491 57.592 262.856 57.592L 266.312 57.592Z"/>
</defs>
</svg>
