<svg width="80" height="80" viewBox="0 0 80 80" version="1.1" xmlns="http://www.w3.org/2000/svg" xmlns:xlink="http://www.w3.org/1999/xlink">
<title>produce</title>
<desc>Created using Figma</desc>
<g id="Canvas" transform="translate(-10842 2185)">
<clipPath id="clip-0" clip-rule="evenodd">
<path d="M 10842 -2185L 10922 -2185L 10922 -2105L 10842 -2105L 10842 -2185Z" fill="#FFFFFF"/>
</clipPath>
<g id="produce" clip-path="url(#clip-0)">
<g id="produce">
<g id="030-elephant">
<g id="Group">
<g id="Vector">
<use xlink:href="#path0_fill" transform="translate(10846 -2171)" fill="#48A63A"/>
</g>
<g id="Vector">
<use xlink:href="#path1_fill" transform="translate(10882.5 -2156.67)" fill="#48A63A"/>
</g>
<g id="Vector">
<use xlink:href="#path2_fill" transform="translate(10899.7 -2156.67)" fill="#48A63A"/>
</g>
<g id="Vector">
<use xlink:href="#path3_fill" transform="translate(10890.8 -2148.82)" fill="#48A63A"/>
</g>
<g id="Vector">
<use xlink:href="#path4_fill" transform="translate(10890.2 -2151.39)" fill="#48A63A"/>
</g>
</g>
</g>
</g>
</g>
</g>
<defs>
<path id="path0_fill" d="M 32.6435 40.3807C 34.4704 40.3807 35.8481 41.8464 35.8481 43.7937L 35.8481 49.8636C 35.8481 50.4913 36.3636 51 36.9995 51L 47.0997 51C 47.6037 51 48.049 50.6765 48.1989 50.2018C 48.2442 50.0585 52.608 36.1576 54.408 23.898C 55.0806 23.6247 55.7126 23.3158 56.2944 22.9706C 56.8053 22.6677 57.277 22.3397 57.71 21.9884C 59.2657 22.4862 60.8554 22.7403 62.3523 22.7403C 63.8927 22.7403 65.3346 22.4721 66.5378 21.9264C 68.8553 20.8751 70.5249 19.09 71.366 16.7639C 72.4906 13.6539 72.1032 9.6574 70.3295 6.07342C 68.9827 3.35179 66.5849 1.77291 63.2026 1.38036C 60.9548 1.11973 58.3225 1.37047 54.9521 2.16717C 52.6191 0.727488 49.7106 3.7717e-07 46.2596 3.7717e-07C 42.8797 3.7717e-07 39.9438 0.758386 37.5905 2.21831C 34.1168 1.38113 31.4208 1.11386 29.1254 1.38036C 27.5506 1.56312 26.192 2.0065 25.0508 2.69923C 21.2018 3.27933 16.8367 4.63745 12.1864 7.32107C 10.7153 8.17014 9.48301 9.10727 8.45669 10.0636C 8.15508 10.1352 0.748316 11.8752 0.0128206 16.7331C -0.0812489 17.3539 0.352473 17.9323 0.981376 18.025C 1.03913 18.0335 1.09642 18.0376 1.15292 18.0376C 1.71358 18.0376 2.20491 17.6327 2.29021 17.069C 2.53877 15.4271 4.15798 14.1872 5.77783 13.3665C 2.89611 18.3927 3.9941 24.3097 5.86172 30.1418C 9.94052 42.8793 12.6601 50.1841 12.687 50.2564C 12.8539 50.7032 13.2849 51 13.7673 51L 22.3472 51C 22.9832 51 23.4986 50.4913 23.4986 49.8636L 23.4986 43.7937C 23.4986 41.9754 24.9455 40.4819 26.7625 40.3807L 32.6435 40.3807L 32.6435 40.3807ZM 24.0674 7.0708C 25.0619 5.06121 26.8043 3.93807 29.3943 3.63759C 31.027 3.44819 32.9373 3.57781 35.3044 4.04344C 35.1087 4.24242 34.9189 4.44773 34.7365 4.66077C 32.5543 7.20984 31.3524 10.7799 31.3524 14.7137C 31.3524 16.743 31.9162 18.5526 33.0065 20.0839C 30.6914 20.6675 28.4079 20.6122 26.7519 19.8611C 24.986 19.0601 23.7676 17.761 23.1308 15.9998C 22.2237 13.4921 22.5828 10.0708 24.0674 7.0708L 24.0674 7.0708ZM 21.1958 43.7937L 21.1958 48.7272L 19.0673 48.7272L 18.8587 47.6972C 18.4351 45.6065 18.7104 43.9473 19.6773 42.7656C 20.1866 42.143 20.8981 41.6429 21.8 41.2624C 21.4142 42.0254 21.1958 42.8847 21.1958 43.7937ZM 16.6005 48.7272L 14.575 48.7272C 13.792 46.5761 11.3802 39.8335 8.05741 29.457C 5.20073 20.5362 5.08944 14.0497 13.3488 9.28323C 16.3047 7.57737 19.2841 6.33821 22.2713 5.5633C 22.1761 5.72875 22.0849 5.89854 21.9983 6.07342C 20.2246 9.65725 19.8372 13.6537 20.9618 16.7639C 21.803 19.09 23.4726 20.8751 25.7901 21.9264C 26.9934 22.4723 28.4348 22.7403 29.9754 22.7403C 31.5162 22.7403 33.1558 22.4709 34.755 21.9436C 35.2026 22.3117 35.6921 22.6549 36.2246 22.9706C 37.5259 23.7423 39.0758 24.3357 40.7842 24.7392C 40.4009 25.4301 39.9153 25.8792 39.3135 26.1C 37.7165 26.6856 35.523 25.5894 34.654 25.0905C 34.142 24.7967 33.5225 24.7241 32.9548 24.8915C 32.3859 25.0593 31.9072 25.4562 31.6415 25.9807L 31.1868 26.8786C 30.7358 27.7681 30.9615 28.833 31.7355 29.4681C 33.0988 30.5868 36.1012 32.6382 39.777 32.6379C 41.1307 32.6379 42.5767 32.3594 44.0644 31.6535C 48.1431 29.7184 50.3882 27.1103 51.6232 24.7672C 51.7359 24.7412 51.8478 24.7147 51.9591 24.6872C 50.3622 34.7941 47.1557 45.7273 46.2459 48.7273L 42.9559 48.7273L 43.7483 44.3303C 43.8595 43.7123 43.4424 43.1223 42.8163 43.0123C 42.1907 42.9035 41.5925 43.3142 41.481 43.9321L 40.6169 48.7273L 38.1509 48.7273L 38.1509 43.7939C 38.1509 40.5508 35.7832 38.1098 32.6435 38.1098L 26.6387 38.1098C 22.4945 38.2191 19.5481 39.3057 17.8857 41.3378C 16.4888 43.0451 16.0444 45.9825 16.6005 48.7272L 16.6005 48.7272ZM 52.6842 22.101C 53.159 20.3939 53.1275 19.1716 53.1225 19.0446C 53.0979 18.4174 52.5551 17.9292 51.9274 17.9528C 51.292 17.9771 50.7969 18.5053 50.8213 19.1324C 50.824 19.1991 50.9908 25.8454 43.0668 29.6048C 38.8242 31.6172 34.8844 29.0712 33.2976 27.7935L 33.6324 27.1322C 35.0967 27.9507 37.7635 29.0929 40.1155 28.2302C 41.6111 27.6818 42.7008 26.4565 43.3546 24.5886C 44.3659 21.699 41.9882 18.5376 41.8866 18.4044C 41.5039 17.9031 40.7819 17.8031 40.2741 18.181C 39.7663 18.5587 39.6649 19.2714 40.0478 19.7726C 40.3729 20.1982 41.0702 21.355 41.256 22.5107C 37.1408 21.5172 33.655 19.1387 33.655 14.7137C 33.655 11.8941 34.5044 2.91165 45.1081 2.30605L 45.1081 8.83027C 45.1081 9.45796 45.6235 9.96669 46.2595 9.96669C 46.8954 9.96669 47.4109 9.45796 47.4109 8.83027L 47.4109 2.30497C 57.7186 2.87411 58.864 11.1034 58.864 14.7135C 58.864 18.6181 56.1495 20.9286 52.6842 22.101L 52.6842 22.101ZM 69.1973 15.9998C 68.5604 17.761 67.3422 19.0601 65.5763 19.8611C 63.9588 20.5949 61.742 20.6667 59.4821 20.127C 60.5925 18.5865 61.1669 16.762 61.1669 14.7137C 61.1669 11.9129 60.5925 7.89639 57.8554 4.66541C 57.6605 4.43537 57.4577 4.21476 57.2487 4.00157C 58.8205 3.70294 60.1918 3.55355 61.4097 3.55355C 61.9448 3.55355 62.4513 3.58182 62.9337 3.63775C 65.5235 3.93823 67.2659 5.06136 68.2605 7.07095C 69.7449 10.0708 70.104 13.4921 69.1973 15.9998L 69.1973 15.9998Z"/>
<path id="path1_fill" d="M 1.15137 2.82877e-07C 0.848972 2.82877e-07 0.552677 0.121119 0.337773 0.333232C 0.122712 0.543801 8.59799e-07 0.837794 8.59799e-07 1.13642C 8.59799e-07 1.43644 0.122712 1.72888 0.337773 1.941C 0.552677 2.15157 0.848972 2.27284 1.15137 2.27284C 1.45534 2.27284 1.75163 2.15157 1.96654 1.941C 2.17988 1.72888 2.30275 1.43644 2.30275 1.13642C 2.30275 0.837948 2.18003 0.543955 1.96654 0.333232C 1.75163 0.121274 1.45534 2.82877e-07 1.15137 2.82877e-07Z"/>
<path id="path2_fill" d="M 1.15137 2.82877e-07C 0.848972 2.82877e-07 0.551112 0.121119 0.337773 0.333232C 0.122713 0.543801 1.18461e-06 0.837794 1.18461e-06 1.13642C 1.18461e-06 1.43644 0.122713 1.72888 0.337773 1.93945C 0.551112 2.15157 0.847407 2.27284 1.15137 2.27284C 1.45377 2.27284 1.75163 2.15157 1.96497 1.93945C 2.18003 1.72888 2.30275 1.43644 2.30275 1.13642C 2.30275 0.837948 2.18003 0.543955 1.96497 0.333232C 1.75163 0.121274 1.45393 2.82877e-07 1.15137 2.82877e-07Z"/>
<path id="path3_fill" d="M 2.06671 3.39453e-07L 0.767583 3.39453e-07C 0.343722 3.39453e-07 1.79602e-06 0.339257 1.79602e-06 0.757612C 1.79602e-06 1.17597 0.343722 1.51523 0.767583 1.51523L 2.06671 1.51523C 2.49057 1.51523 2.8343 1.17597 2.8343 0.757612C 2.8343 0.339257 2.49057 3.39453e-07 2.06671 3.39453e-07Z"/>
<path id="path4_fill" d="M 3.36584 6.60047e-07L 0.767584 6.60047e-07C 0.343723 6.60047e-07 -2.0253e-06 0.339257 -2.0253e-06 0.757613C -2.0253e-06 1.17597 0.343723 1.51523 0.767584 1.51523L 3.36584 1.51523C 3.7897 1.51523 4.13342 1.17597 4.13342 0.757613C 4.13342 0.339257 3.78986 6.60047e-07 3.36584 6.60047e-07Z"/>
</defs>
</svg>
