<svg width="80" height="80" viewBox="0 0 80 80" version="1.1" xmlns="http://www.w3.org/2000/svg" xmlns:xlink="http://www.w3.org/1999/xlink">
<title>reader</title>
<desc>Created using Figma</desc>
<g id="Canvas" transform="translate(-10843 2105)">
<clipPath id="clip-0" clip-rule="evenodd">
<path d="M 10843 -2105L 10923 -2105L 10923 -2025L 10843 -2025L 10843 -2105Z" fill="#FFFFFF"/>
</clipPath>
<g id="reader" clip-path="url(#clip-0)">
<g id="reader">
<g id="019-gorilla">
<g id="Group">
<g id="Vector">
<use xlink:href="#path0_fill" transform="translate(10850 -2097)" fill="#735AFB"/>
</g>
<g id="Vector">
<use xlink:href="#path1_fill" transform="translate(10886.8 -2088.54)" fill="#735AFB"/>
</g>
<g id="Vector">
<use xlink:href="#path2_fill" transform="translate(10900.8 -2082.55)" fill="#735AFB"/>
</g>
<g id="Vector">
<use xlink:href="#path3_fill" transform="translate(10892.2 -2082.55)" fill="#735AFB"/>
</g>
<g id="Vector">
<use xlink:href="#path4_fill" transform="translate(10897.8 -2078.57)" fill="#735AFB"/>
</g>
<g id="Vector">
<use xlink:href="#path5_fill" transform="translate(10895.4 -2078.57)" fill="#735AFB"/>
</g>
<g id="Vector">
<use xlink:href="#path6_fill" transform="translate(10895.8 -2072.67)" fill="#735AFB"/>
</g>
</g>
</g>
</g>
</g>
</g>
<defs>
<path id="path0_fill" d="M 29.7448 44.9679C 32.2489 45.3166 34.0924 47.5484 33.9439 50.0359C 33.6202 55.4508 33.2583 62.836 33.2546 62.91C 33.2407 63.1942 33.3455 63.4716 33.5447 63.6775C 33.7439 63.8834 34.0199 64 34.3085 64L 42.4746 64C 42.9473 64 43.3623 63.6902 43.4902 63.2416C 43.5512 63.0279 48.8817 44.3755 53.4133 30.6357C 57.5171 27.883 60.4339 23.9663 60.9911 19.839C 62.9332 19.0406 64.2039 17.056 63.973 14.89C 63.7285 12.5976 61.8812 10.8474 59.646 10.6052C 59.0003 8.96292 58.158 7.38963 57.1511 5.98219C 54.391 2.12452 50.8504 0 47.1816 0C 43.5128 0 39.9721 2.12452 37.2121 5.98233C 36.55 6.90755 35.96 7.90511 35.4494 8.94623C 29.8274 10.684 27.6423 13.7162 25.5303 16.6495C 25.1061 17.2387 24.7054 17.7951 24.2738 18.3456C 23.8949 18.8288 23.5258 19.3316 23.1688 19.8179C 20.5746 23.3515 17.8919 27.0055 8.07799 28.5329C 4.59978 29.0742 2.20456 30.7076 0.958953 33.3881C -3.46602 42.9099 8.82882 62.6382 9.35437 63.4734C 9.54677 63.7792 9.88584 63.9652 10.251 63.9652L 18.5263 63.9652C 19.1007 63.9652 19.5695 63.5123 19.5812 62.9464L 19.9786 43.6306C 19.9787 43.6305 27.304 44.628 29.7448 44.9679L 29.7448 44.9679ZM 33.261 17.2966C 33.2048 17.2392 33.1506 17.1795 33.0992 17.1169C 32.6321 16.5485 32.4177 15.8349 32.4953 15.1075C 32.5728 14.3801 32.9332 13.7261 33.5098 13.2658C 33.6431 13.1595 33.7848 13.0684 33.9321 12.9895C 33.5471 14.4289 33.3169 15.8847 33.261 17.2966L 33.261 17.2966ZM 15.5091 61.8852L 15.0314 48.6346C 14.9798 47.1996 15.5717 45.8261 16.6555 44.8665C 17.0198 44.5439 17.426 44.2824 17.8586 44.0831L 17.4924 61.8852L 15.5091 61.8852L 15.5091 61.8852ZM 41.6763 61.9201L 39.6108 61.9201L 44.5374 40.3672C 44.6655 39.8069 44.3084 39.2504 43.7399 39.1242C 43.1713 38.9976 42.6068 39.3498 42.4788 39.9101L 37.4478 61.9203L 35.4165 61.9203C 35.5297 59.659 35.8016 54.3235 36.0505 50.1583C 36.1542 48.4231 35.5969 46.7261 34.4815 45.3799C 33.3661 44.0338 31.7905 43.1565 30.0448 42.9094L 20.9303 41.6193C 18.8676 41.3276 16.7957 41.9471 15.2454 43.3195C 13.6952 44.6919 12.8487 46.6561 12.9226 48.7086L 13.3976 61.8854L 10.847 61.8854C 10.0037 60.4865 7.54313 56.2709 5.45719 51.3678C 2.16362 43.6268 1.27162 37.7088 2.8779 34.2535C 3.82396 32.2183 5.63266 31.0191 8.40718 30.5873C 19.0874 28.9252 22.164 24.7345 24.8784 21.0372C 25.2418 20.5422 25.5851 20.0747 25.9436 19.6175C 26.4015 19.0335 26.8335 18.4335 27.2512 17.8534C 28.264 16.4467 29.2495 15.0798 30.619 13.8745C 30.5098 14.2008 30.4339 14.5404 30.3967 14.8903C 30.2602 16.1702 30.6375 17.4259 31.4592 18.426C 31.9777 19.0571 32.6345 19.5377 33.3746 19.841C 33.9047 23.7322 36.0956 27.2319 39.7931 30.0483C 42.9648 32.4644 46.1052 33.524 46.2374 33.568C 46.3466 33.6043 46.4605 33.6225 46.5746 33.6225C 46.6642 33.6225 46.754 33.6113 46.8415 33.5887C 46.9403 33.5633 48.5755 33.1338 50.7105 32.1216C 46.8573 44.0051 42.6664 58.4783 41.6763 61.9201L 41.6763 61.9201ZM 52.7724 28.5597C 50.1571 30.3249 47.4976 31.22 46.6137 31.488C 45.7899 31.1737 43.3937 30.1731 41.0364 28.3665C 37.268 25.4783 35.3571 21.979 35.3571 17.9656C 35.3571 14.3453 36.6951 10.3137 38.9365 7.18094C 41.2899 3.89148 44.218 2.07986 47.1814 2.07986C 50.1448 2.07986 53.0729 3.89148 55.4264 7.18094C 57.6677 10.3137 59.0058 14.3453 59.0058 17.9656C 59.0059 22.2037 56.9087 25.7681 52.7724 28.5597L 52.7724 28.5597ZM 61.1022 17.2981C 61.0464 15.8854 60.816 14.4288 60.4308 12.9887C 61.2092 13.4038 61.7748 14.176 61.8742 15.1075C 61.9635 15.946 61.6557 16.7356 61.1022 17.2981L 61.1022 17.2981Z"/>
<path id="path1_fill" d="M 10.357 1.82511C 9.23659 0.674922 7.67493 2.97215e-08 6.01614 2.97215e-08C 2.69886 2.97215e-08 1.27514e-06 2.66003 1.27514e-06 5.9296C 1.27514e-06 7.84904 0.927147 9.60529 2.44717 10.7053C 1.71892 11.6665 1.32889 12.7578 1.32889 13.8752C 1.32889 15.6936 2.31801 17.3777 4.11428 18.6168C 5.79593 19.777 8.01301 20.416 10.3571 20.416C 12.7013 20.416 14.9183 19.7771 16.6 18.6168C 18.3961 17.3775 19.3854 15.6936 19.3854 13.8752C 19.3854 12.758 18.9953 11.6666 18.2671 10.7054C 19.787 9.60529 20.7141 7.84904 20.7141 5.9296C 20.7141 2.66003 18.0154 2.97215e-08 14.698 2.97215e-08C 13.039 0.00013916 11.4774 0.6752 10.357 1.82511L 10.357 1.82511ZM 18.6038 5.92974C 18.6038 7.49343 17.656 8.8903 16.1892 9.48828C 15.8523 9.62574 15.6111 9.92487 15.5516 10.2794C 15.492 10.6339 15.6224 10.9937 15.8964 11.2307C 16.5253 11.7749 17.275 12.6755 17.275 13.8753C 17.275 16.2934 14.1069 18.3363 10.3571 18.3363C 6.60733 18.3363 3.43925 16.2934 3.43925 13.8753C 3.43925 12.6753 4.18896 11.7749 4.81783 11.2307C 5.09182 10.9937 5.22226 10.6339 5.16269 10.2792C 5.10312 9.92473 4.86201 9.6256 4.52506 9.48814C 3.05826 8.89016 2.1105 7.49329 2.1105 5.9296C 2.1105 3.80689 3.86273 2.07986 6.01643 2.07986C 7.43538 2.07986 8.74507 2.84118 9.4345 4.06664C 9.62055 4.39722 9.97373 4.6023 10.3573 4.6023C 10.7408 4.6023 11.0941 4.39722 11.28 4.06664C 11.9695 2.84118 13.2792 2.07986 14.6981 2.07986C 16.8515 2.08 18.6038 3.80689 18.6038 5.92974L 18.6038 5.92974Z"/>
<path id="path2_fill" d="M 0.205389 0.202434C 0.0745327 0.331408 1.55084e-06 0.510191 1.55084e-06 0.693287C 1.55084e-06 0.876243 0.0745327 1.05517 0.205389 1.18275C 0.336245 1.31311 0.517781 1.38657 0.703407 1.38657C 0.889175 1.38657 1.06915 1.31311 1.20001 1.18275C 1.33087 1.05517 1.40681 0.876382 1.40681 0.693287C 1.40681 0.510191 1.33087 0.331408 1.20001 0.202434C 1.06915 0.0734605 0.889175 4.5856e-07 0.703407 4.5856e-07C 0.517639 4.5856e-07 0.336245 0.0734605 0.205389 0.202434Z"/>
<path id="path3_fill" d="M 0.703406 4.5856e-07C 0.51905 4.5856e-07 0.337657 0.0734605 0.206801 0.202434C 0.0759446 0.331408 4.48021e-07 0.510191 4.48021e-07 0.693287C 4.48021e-07 0.876243 0.0759446 1.05517 0.206801 1.18275C 0.337657 1.31311 0.51905 1.38657 0.703406 1.38657C 0.889174 1.38657 1.07071 1.31311 1.20142 1.18275C 1.33228 1.05517 1.40681 0.876382 1.40681 0.693287C 1.40681 0.510191 1.33228 0.331408 1.20142 0.202434C 1.07056 0.0734605 0.889174 4.5856e-07 0.703406 4.5856e-07Z"/>
<path id="path4_fill" d="M 0.562668 1.86821e-07C 0.414872 1.86821e-07 0.27004 0.0596872 0.164593 0.162226C 0.0604158 0.266157 9.99431e-07 0.409043 9.99431e-07 0.554573C 9.99431e-07 0.700103 0.0604158 0.844383 0.164593 0.946922C 0.27004 1.05085 0.415014 1.10915 0.562668 1.10915C 0.710323 1.10915 0.855296 1.05099 0.960743 0.946922C 1.06478 0.844244 1.12534 0.700103 1.12534 0.554573C 1.12534 0.409043 1.06478 0.266157 0.960743 0.162226C 0.855296 0.0596872 0.710323 1.86821e-07 0.562668 1.86821e-07Z"/>
<path id="path5_fill" d="M 0.960743 0.946921C 1.06478 0.84299 1.12533 0.700104 1.12533 0.554574C 1.12533 0.409044 1.06478 0.266156 0.960743 0.162225C 0.855295 0.0596861 0.710322 -9.51087e-07 0.562667 -9.51087e-07C 0.414872 -9.51087e-07 0.270039 0.0596861 0.164592 0.162225C 0.0604151 0.266156 3.10168e-07 0.409044 3.10168e-07 0.554574C 3.10168e-07 0.700104 0.0604151 0.844382 0.164592 0.946921C 0.270039 1.05085 0.415013 1.10915 0.562667 1.10915C 0.710181 1.10915 0.855154 1.05085 0.960743 0.946921Z"/>
<path id="path6_fill" d="M 2.1345 -3.90625e-07L 0.703406 -3.90625e-07C 0.314931 -3.90625e-07 3.10168e-07 0.3104 3.10168e-07 0.693287C 3.10168e-07 1.07617 0.314931 1.38657 0.703406 1.38657L 2.1345 1.38657C 2.52297 1.38657 2.8379 1.07617 2.8379 0.693287C 2.8379 0.3104 2.52283 -3.90625e-07 2.1345 -3.90625e-07Z"/>
</defs>
</svg>
