<svg width="128" height="128" viewBox="0 0 128 128" version="1.1" xmlns="http://www.w3.org/2000/svg" xmlns:xlink="http://www.w3.org/1999/xlink">
<title>api</title>
<desc>Created using Figma</desc>
<g id="Canvas" transform="translate(1187 -789)">
<clipPath id="clip-0" clip-rule="evenodd">
<path d="M -1187 789L -1059 789L -1059 917L -1187 917L -1187 789Z" fill="#FFFFFF"/>
</clipPath>
<g id="api" clip-path="url(#clip-0)">
<g id="network(1)">
<g id="Group">
<g id="Group">
<g id="Vector">
<use xlink:href="#path0_fill" transform="translate(-1182 793)" fill="#333333"/>
</g>
</g>
</g>
</g>
</g>
</g>
<defs>
<path id="path0_fill" d="M 112.125 73.125L 97.5001 73.125L 97.5001 56.0624C 97.5001 54.7151 96.4098 53.6248 95.0625 53.6248L 65.8125 53.6248L 65.8125 51.1875C 65.8125 49.8402 64.7223 48.7499 63.3749 48.7499L 60.9373 48.7499L 60.9373 38.9998L 75.5623 38.9998C 82.2846 38.9998 87.7498 33.5322 87.7498 26.8124C 87.7498 21.6048 84.4521 17.1835 79.8461 15.4424C 77.9458 6.55109 70.1289 0 60.9376 0C 53.9957 0 47.6025 3.80319 44.1401 9.78115C 44.0503 9.77933 43.9648 9.74985 43.875 9.74985C 35.8102 9.74985 29.25 16.3101 29.25 24.3748C 29.25 32.4396 35.8102 38.9998 43.875 38.9998L 56.0624 38.9998L 56.0624 48.7499L 53.6248 48.7499C 52.2775 48.7499 51.1873 49.8402 51.1873 51.1875L 51.1873 53.6251L 21.9375 53.6251C 20.5902 53.6251 19.4999 54.7153 19.4999 56.0627L 19.4999 73.125L 4.87492 73.125C 2.18529 73.125 0 75.3126 0 77.9999L 0 102.375C 0 105.062 2.18529 107.25 4.87492 107.25L 19.4999 107.25L 19.4999 112.125L 14.625 112.125C 13.2777 112.125 12.1874 113.215 12.1874 114.562C 12.1874 115.91 13.2777 117 14.625 117L 29.25 117C 30.5973 117 31.6876 115.91 31.6876 114.562C 31.6876 113.215 30.5973 112.125 29.25 112.125L 24.3751 112.125L 24.3751 107.25L 39.0001 107.25C 41.6899 107.25 43.875 105.062 43.875 102.375L 43.875 77.9999C 43.875 75.3126 41.6897 73.125 39.0001 73.125L 24.3751 73.125L 24.3751 58.5L 51.1875 58.5L 51.1875 60.9376C 51.1875 62.2849 52.2777 63.3752 53.6251 63.3752L 63.3752 63.3752C 64.7225 63.3752 65.8127 62.2849 65.8127 60.9376L 65.8127 58.5L 92.6252 58.5L 92.6252 73.125L 78.0002 73.125C 75.3103 73.125 73.125 75.3126 73.125 77.9999L 73.125 102.375C 73.125 105.062 75.3103 107.25 77.9999 107.25L 92.6249 107.25L 92.6249 112.125L 87.75 112.125C 86.4027 112.125 85.3124 113.215 85.3124 114.562C 85.3124 115.91 86.4027 117 87.75 117L 102.375 117C 103.722 117 104.813 115.91 104.813 114.562C 104.813 113.215 103.722 112.125 102.375 112.125L 97.5001 112.125L 97.5001 107.25L 112.125 107.25C 114.815 107.25 117 105.062 117 102.375L 117 77.9999C 117 75.3126 114.815 73.125 112.125 73.125ZM 39.0001 77.9999L 39.0001 102.375L 39.0049 102.375L 39.0001 104.813L 39.0001 102.375L 4.87492 102.375L 4.87492 77.9999L 39.0001 77.9999ZM 43.875 34.1249C 38.5001 34.1249 34.1249 29.7523 34.1249 24.3748C 34.1249 18.9974 38.5001 14.625 43.875 14.625C 46.9696 14.625 49.8164 16.0461 51.6779 18.5242C 52.4825 19.6025 54.0106 19.8166 55.0915 19.0098C 56.1673 18.2004 56.3817 16.6723 55.5723 15.5962C 53.9423 13.4242 51.7065 11.8552 49.2287 10.8703C 51.9553 7.17265 56.2809 4.87492 60.9378 4.87492C 67.2419 4.87492 72.7146 8.98615 74.6874 14.8014C 73.7758 15.1542 73.125 16.0258 73.125 17.0626C 73.125 18.4099 74.2152 19.5002 75.5626 19.5002C 79.595 19.5002 82.8751 22.7803 82.8751 26.8127C 82.8751 30.845 79.595 34.1252 75.5626 34.1252L 43.875 34.1252L 43.875 34.1249ZM 60.9376 58.5L 56.0627 58.5L 56.0627 53.6251L 60.9376 53.6251L 60.9376 58.5ZM 112.125 104.813L 112.125 102.375L 77.9999 102.375L 77.9999 77.9999L 112.125 77.9999L 112.125 102.375L 112.13 102.375L 112.125 104.813Z"/>
</defs>
</svg>
