<svg width="126" height="126" viewBox="0 0 126 126" version="1.1" xmlns="http://www.w3.org/2000/svg" xmlns:xlink="http://www.w3.org/1999/xlink">
<title>banner</title>
<desc>Created using Figma</desc>
<g id="Canvas" transform="translate(1186 -634)">
<g id="banner">
<g id="Vector">
<use xlink:href="#path0_fill" transform="translate(-1186 634)" fill="#333333"/>
</g>
<g id="Vector">
<use xlink:href="#path1_fill" transform="translate(-1178.62 641.283)" fill="#333333"/>
</g>
<g id="Group">
<g id="Vector">
<use xlink:href="#path2_fill" transform="translate(-1117.46 731.134)" fill="#333333"/>
</g>
<g id="Vector">
<use xlink:href="#path2_fill" transform="translate(-1124.85 731.134)" fill="#333333"/>
</g>
<g id="Vector">
<use xlink:href="#path2_fill" transform="translate(-1132.23 731.134)" fill="#333333"/>
</g>
<g id="Vector">
<use xlink:href="#path3_fill" transform="translate(-1171.23 716.567)" fill="#333333"/>
</g>
<g id="Vector">
<use xlink:href="#path4_fill" transform="translate(-1124.85 702)" fill="#333333"/>
</g>
<g id="Vector">
<use xlink:href="#path5_fill" transform="translate(-1135.05 702.554)" fill="#333333"/>
</g>
<g id="Vector">
<use xlink:href="#path6_fill" transform="translate(-1117.46 702.554)" fill="#333333"/>
</g>
</g>
</g>
</g>
<defs>
<path id="path0_fill" d="M 124.154 0L 1.8457 0C 0.826383 0 0 0.995252 0 2.22353L 0 123.776C 0 125.005 0.826383 126 1.8457 126L 124.154 126C 125.174 126 126 125.005 126 123.776L 126 2.22353C 126 0.995252 125.174 0 124.154 0ZM 122.309 21.5L 103.852 21.5L 103.852 4.44706L 122.309 4.44706L 122.309 21.5ZM 100.16 4.44706L 100.16 21.5L 3.69141 21.5L 3.69141 4.44706L 100.16 4.44706ZM 3.69141 121.553L 3.69141 25L 122.309 25L 122.309 121.553L 3.69141 121.553Z"/>
<path id="path1_fill" d="M 1.8457 10.9251L 9.22852 10.9251C 10.2478 10.9251 11.0742 10.11 11.0742 9.10421C 11.0742 8.09838 10.2478 7.28337 9.22852 7.28337L 3.69141 7.28337L 3.69141 3.64169L 85.3945 3.64169L 85.3945 7.28337L 16.6113 7.28337C 15.592 7.28337 14.7656 8.09838 14.7656 9.10421C 14.7656 10.11 15.592 10.9251 16.6113 10.9251L 87.2402 10.9251C 88.2598 10.9251 89.0859 10.11 89.0859 9.10421L 89.0859 1.82084C 89.0859 0.815009 88.2598 0 87.2402 0L 1.8457 0C 0.826383 0 0 0.815009 0 1.82084L 0 9.10421C 0 10.11 0.826383 10.9251 1.8457 10.9251Z"/>
<path id="path2_fill" d="M 1.8457 3.64169C 2.86506 3.64169 3.69141 2.82647 3.69141 1.82084C 3.69141 0.815219 2.86506 0 1.8457 0C 0.826349 0 0 0.815219 0 1.82084C 0 2.82647 0.826349 3.64169 1.8457 3.64169Z"/>
<path id="path3_fill" d="M 94.623 0L 1.8457 0C 0.826383 0 0 0.815009 0 1.82084L 0 30.9543C 0 31.9602 0.826383 32.7752 1.8457 32.7752L 71.4287 32.7752C 72.4483 32.7752 73.2744 31.9602 73.2744 30.9543C 73.2744 29.9485 72.4483 29.1335 71.4287 29.1335L 3.69141 29.1335L 3.69141 3.64169L 92.7773 3.64169L 92.7773 29.1335L 78.8115 29.1335C 77.792 29.1335 76.9658 29.9485 76.9658 30.9543C 76.9658 31.9602 77.792 32.7752 78.8115 32.7752L 94.623 32.7752C 95.6426 32.7752 96.4688 31.9602 96.4688 30.9543L 96.4688 1.82084C 96.4688 0.815009 95.6426 0 94.623 0Z"/>
<path id="path4_fill" d="M 1.8457 10.9251C 2.86527 10.9251 3.69141 10.11 3.69141 9.10421L 3.69141 1.82084C 3.69141 0.815009 2.86527 0 1.8457 0C 0.826383 0 0 0.815009 0 1.82084L 0 9.10421C 0 10.11 0.826383 10.9251 1.8457 10.9251Z"/>
<path id="path5_fill" d="M 2.96613 9.24717C 3.26045 9.94856 3.9478 10.3717 4.67205 10.3717C 4.90756 10.3717 5.14676 10.3268 5.3776 10.2326C 6.3194 9.8478 6.76655 8.78273 6.37649 7.85362L 3.55134 1.12451C 3.16128 0.195395 2.08117 -0.245732 1.13986 0.139072C 0.198063 0.523877 -0.249088 1.58895 0.140971 2.51806L 2.96613 9.24717Z"/>
<path id="path6_fill" d="M 1.13997 10.2328C 1.37081 10.3275 1.61001 10.3719 1.84552 10.3719C 2.56977 10.3719 3.25686 9.94852 3.55144 9.24737L 6.3766 2.51827C 6.7669 1.58915 6.31975 0.524081 5.3777 0.139276C 4.4364 -0.246014 3.35629 0.195598 2.96623 1.12471L 0.141077 7.85382C -0.249228 8.78294 0.198168 9.84801 1.13997 10.2328Z"/>
</defs>
</svg>
