<svg width="128" height="128" viewBox="0 0 128 128" version="1.1" xmlns="http://www.w3.org/2000/svg" xmlns:xlink="http://www.w3.org/1999/xlink">
<title>export</title>
<desc>Created using Figma</desc>
<g id="Canvas" transform="translate(605 -789)">
<clipPath id="clip-0" clip-rule="evenodd">
<path d="M -605 789L -477 789L -477 917L -605 917L -605 789Z" fill="#FFFFFF"/>
</clipPath>
<g id="export" clip-path="url(#clip-0)">
<g id="backup(1)">
<g id="Group">
<g id="Group">
<g id="Group">
<g id="Vector">
<use xlink:href="#path0_fill" transform="translate(-570.29 853.5)" fill="#333333"/>
</g>
<g id="Vector">
<use xlink:href="#path1_fill" transform="translate(-570.29 826.629)" fill="#333333"/>
</g>
<g id="Vector">
<use xlink:href="#path1_fill" transform="translate(-570.29 799.758)" fill="#333333"/>
</g>
<g id="Vector">
<use xlink:href="#path2_fill" transform="translate(-601 794)" fill="#333333"/>
</g>
<g id="Vector">
<use xlink:href="#path3_fill" transform="translate(-576.048 874.613)" fill="#333333"/>
</g>
<g id="Vector">
<use xlink:href="#path4_fill" transform="translate(-524.773 818.804)" fill="#333333"/>
</g>
</g>
</g>
</g>
</g>
</g>
</g>
<defs>
<path id="path0_fill" d="M 5.75806 0C 2.58345 0 0 2.58345 0 5.75806C 0 8.93268 2.58345 11.5161 5.75806 11.5161C 8.93268 11.5161 11.5161 8.93268 11.5161 5.75806C 11.5161 2.58345 8.93268 0 5.75806 0ZM 5.75806 7.67742C 4.69858 7.67742 3.83871 6.81563 3.83871 5.75806C 3.83871 4.7005 4.69858 3.83871 5.75806 3.83871C 6.81755 3.83871 7.67742 4.7005 7.67742 5.75806C 7.67742 6.81563 6.81755 7.67742 5.75806 7.67742Z"/>
<path id="path1_fill" d="M 5.75806 11.5161C 8.93268 11.5161 11.5161 8.93268 11.5161 5.75806C 11.5161 2.58345 8.93268 0 5.75806 0C 2.58345 0 0 2.58345 0 5.75806C 0 8.93268 2.58345 11.5161 5.75806 11.5161ZM 5.75806 3.83871C 6.81755 3.83871 7.67742 4.7005 7.67742 5.75806C 7.67742 6.81563 6.81755 7.67742 5.75806 7.67742C 4.69858 7.67742 3.83871 6.81563 3.83871 5.75806C 3.83871 4.7005 4.69858 3.83871 5.75806 3.83871Z"/>
<path id="path2_fill" d="M 72.9355 61.4194L 72.9355 53.7419L 69.0968 53.7419L 69.0968 49.9032L 72.9355 49.9032L 72.9355 26.871L 69.0968 26.871L 69.0968 23.0323L 72.9355 23.0323L 72.9355 0L 0 0L 0 23.0323L 3.83871 23.0323L 3.83871 26.871L 0 26.871L 0 49.9032L 3.83871 49.9032L 3.83871 53.7419L 0 53.7419L 0 76.7742L 61.4194 76.7742L 61.4194 119L 119 119L 119 61.4194L 72.9355 61.4194ZM 72.9355 65.2581L 99.8064 65.2581L 99.8064 80.6129L 103.645 80.6129L 103.645 65.2581L 107.484 65.2581L 107.484 84.4516L 72.9355 84.4516L 72.9355 65.2581ZM 3.83871 3.83871L 69.0968 3.83871L 69.0968 19.1935L 65.2581 19.1935L 65.2581 7.67742L 61.4194 7.67742L 61.4194 19.1935L 57.5806 19.1935L 57.5806 7.67742L 53.7419 7.67742L 53.7419 19.1935L 49.9032 19.1935L 49.9032 7.67742L 46.0645 7.67742L 46.0645 19.1935L 26.871 19.1935L 26.871 7.67742L 23.0323 7.67742L 23.0323 19.1935L 19.1935 19.1935L 19.1935 7.67742L 15.3548 7.67742L 15.3548 19.1935L 11.5161 19.1935L 11.5161 7.67742L 7.67742 7.67742L 7.67742 19.1935L 3.83871 19.1935L 3.83871 3.83871ZM 65.2581 23.0323L 65.2581 26.871L 7.67742 26.871L 7.67742 23.0323L 65.2581 23.0323ZM 3.83871 30.7097L 69.0968 30.7097L 69.0968 46.0645L 65.2581 46.0645L 65.2581 34.5484L 61.4194 34.5484L 61.4194 46.0645L 57.5806 46.0645L 57.5806 34.5484L 53.7419 34.5484L 53.7419 46.0645L 49.9032 46.0645L 49.9032 34.5484L 46.0645 34.5484L 46.0645 46.0645L 26.871 46.0645L 26.871 34.5484L 23.0323 34.5484L 23.0323 46.0645L 19.1935 46.0645L 19.1935 34.5484L 15.3548 34.5484L 15.3548 46.0645L 11.5161 46.0645L 11.5161 34.5484L 7.67742 34.5484L 7.67742 46.0645L 3.83871 46.0645L 3.83871 30.7097ZM 65.2581 49.9032L 65.2581 53.7419L 7.67742 53.7419L 7.67742 49.9032L 65.2581 49.9032ZM 61.4194 72.9355L 57.5806 72.9355L 57.5806 61.4194L 53.7419 61.4194L 53.7419 72.9355L 49.9032 72.9355L 49.9032 61.4194L 46.0645 61.4194L 46.0645 72.9355L 26.871 72.9355L 26.871 61.4194L 23.0323 61.4194L 23.0323 72.9355L 19.1935 72.9355L 19.1935 61.4194L 15.3548 61.4194L 15.3548 72.9355L 11.5161 72.9355L 11.5161 61.4194L 7.67742 61.4194L 7.67742 72.9355L 3.83871 72.9355L 3.83871 57.5806L 69.0968 57.5806L 69.0968 61.4194L 66.3828 61.4194L 61.4194 66.3828L 61.4194 72.9355ZM 107.484 115.161L 72.9355 115.161L 72.9355 101.726C 72.9355 100.668 73.7954 99.8064 74.8548 99.8064L 105.565 99.8064C 106.624 99.8064 107.484 100.668 107.484 101.726L 107.484 115.161ZM 115.161 115.161L 111.323 115.161L 111.323 101.726C 111.323 98.5512 108.739 95.9677 105.565 95.9677L 74.8548 95.9677C 71.6802 95.9677 69.0968 98.5512 69.0968 101.726L 69.0968 115.161L 65.2581 115.161L 65.2581 67.972L 67.972 65.2581L 69.0968 65.2581L 69.0968 88.2903L 111.323 88.2903L 111.323 65.2581L 115.161 65.2581L 115.161 115.161Z"/>
<path id="path3_fill" d="M 10.5929 8.86358C 11.1706 7.96532 11.5161 6.90392 11.5161 5.75806C 11.5161 2.58345 8.93268 0 5.75806 0C 2.58345 0 0 2.58345 0 5.75806C 0 8.93268 2.58345 11.5161 5.75806 11.5161C 6.38761 11.5161 6.98453 11.3894 7.55266 11.2014C 13.8098 18.9325 22.4622 24.1935 32.2663 26.086L 32.9937 22.3163C 24.1167 20.6024 16.2761 15.85 10.5929 8.86358ZM 5.75806 7.67742C 4.69858 7.67742 3.83871 6.81563 3.83871 5.75806C 3.83871 4.7005 4.69858 3.83871 5.75806 3.83871C 6.81755 3.83871 7.67742 4.7005 7.67742 5.75806C 7.67742 6.81563 6.81755 7.67742 5.75806 7.67742Z"/>
<path id="path4_fill" d="M 23.1992 23.1301C 22.253 24.157 21.6599 25.5159 21.6599 27.0188C 21.6599 30.1934 24.2434 32.7768 27.418 32.7768C 30.5926 32.7768 33.176 30.1934 33.176 27.0188C 33.176 23.8441 30.5926 21.2607 27.418 21.2607C 27.1454 21.2607 26.8863 21.3048 26.6253 21.3413C 21.3797 11.042 12.1418 3.28977 1.09403 6.44315e-07L 2.9287e-07 3.6794C 10.0497 6.67168 18.4335 13.7483 23.1992 23.1301ZM 27.418 25.0994C 28.4775 25.0994 29.3373 25.9612 29.3373 27.0188C 29.3373 28.0763 28.4775 28.9381 27.418 28.9381C 26.3585 28.9381 25.4986 28.0763 25.4986 27.0188C 25.4986 25.9612 26.3585 25.0994 27.418 25.0994Z"/>
</defs>
</svg>
