<svg width="128" height="128" viewBox="0 0 128 128" version="1.1" xmlns="http://www.w3.org/2000/svg" xmlns:xlink="http://www.w3.org/1999/xlink">
<title>fast</title>
<desc>Created using Figma</desc>
<g id="Canvas" transform="translate(773 -789)">
<clipPath id="clip-0" clip-rule="evenodd">
<path d="M -773 789L -645 789L -645 917L -773 917L -773 789Z" fill="#FFFFFF"/>
</clipPath>
<g id="fast" clip-path="url(#clip-0)">
<g id="flash">
<g id="Group">
<g id="Group">
<g id="Vector">
<use xlink:href="#path0_fill" transform="matrix(0.708175 -0.706023 0.708175 0.706023 -680.024 884.152)" fill="#333333"/>
<mask id="mask0_outline_out">
<rect id="mask0_outline_inv" fill="white" x="-1" y="-1" width="6" height="14" transform="matrix(0.708175 -0.706023 0.708175 0.706023 -680.024 884.152)"/>
<use xlink:href="#path0_fill" fill="black" transform="matrix(0.708175 -0.706023 0.708175 0.706023 -680.024 884.152)"/>
</mask>
<g mask="url(#mask0_outline_out)">
<use xlink:href="#path1_stroke_2x" transform="matrix(0.708175 -0.706023 0.708175 0.706023 -680.024 884.152)" fill="#333333"/>
</g>
</g>
</g>
</g>
<g id="Group">
<g id="Group">
<g id="Vector">
<use xlink:href="#path2_fill" transform="matrix(0.708175 -0.706023 0.708175 0.706023 -667.908 896.232)" fill="#333333"/>
<mask id="mask1_outline_out">
<rect id="mask1_outline_inv" fill="white" x="-1" y="-1" width="6" height="6" transform="matrix(0.708175 -0.706023 0.708175 0.706023 -667.908 896.232)"/>
<use xlink:href="#path2_fill" fill="black" transform="matrix(0.708175 -0.706023 0.708175 0.706023 -667.908 896.232)"/>
</mask>
<g mask="url(#mask1_outline_out)">
<use xlink:href="#path3_stroke_2x" transform="matrix(0.708175 -0.706023 0.708175 0.706023 -667.908 896.232)" fill="#333333"/>
</g>
</g>
</g>
</g>
<g id="Group">
<g id="Group">
<g id="Vector">
<use xlink:href="#path4_fill" transform="translate(-666.062 850.547)" fill="#333333"/>
<mask id="mask2_outline_out">
<rect id="mask2_outline_inv" fill="white" x="-1" y="-1" width="23" height="6" transform="translate(-666.062 850.547)"/>
<use xlink:href="#path4_fill" fill="black" transform="translate(-666.062 850.547)"/>
</mask>
<g mask="url(#mask2_outline_out)">
<use xlink:href="#path5_stroke_2x" transform="translate(-666.062 850.547)" fill="#333333"/>
</g>
</g>
</g>
</g>
<g id="Group">
<g id="Group">
<g id="Vector">
<use xlink:href="#path6_fill" transform="matrix(0.708175 -0.706023 0.708175 0.706023 -680.026 820.848)" fill="#333333"/>
<mask id="mask3_outline_out">
<rect id="mask3_outline_inv" fill="white" x="-1" y="-1" width="23" height="6" transform="matrix(0.708175 -0.706023 0.708175 0.706023 -680.026 820.848)"/>
<use xlink:href="#path6_fill" fill="black" transform="matrix(0.708175 -0.706023 0.708175 0.706023 -680.026 820.848)"/>
</mask>
<g mask="url(#mask3_outline_out)">
<use xlink:href="#path7_stroke_2x" transform="matrix(0.708175 -0.706023 0.708175 0.706023 -680.026 820.848)" fill="#333333"/>
</g>
</g>
</g>
</g>
<g id="Group">
<g id="Group">
<g id="Vector">
<use xlink:href="#path8_fill" transform="matrix(0.708175 -0.706023 0.708175 0.706023 -755.64 808.764)" fill="#333333"/>
<mask id="mask4_outline_out">
<rect id="mask4_outline_inv" fill="white" x="-1" y="-1" width="6" height="23" transform="matrix(0.708175 -0.706023 0.708175 0.706023 -755.64 808.764)"/>
<use xlink:href="#path8_fill" fill="black" transform="matrix(0.708175 -0.706023 0.708175 0.706023 -755.64 808.764)"/>
</mask>
<g mask="url(#mask4_outline_out)">
<use xlink:href="#path9_stroke_2x" transform="matrix(0.708175 -0.706023 0.708175 0.706023 -755.64 808.764)" fill="#333333"/>
</g>
</g>
</g>
</g>
<g id="Group">
<g id="Group">
<g id="Vector">
<use xlink:href="#path4_fill" transform="translate(-773 850.547)" fill="#333333"/>
<mask id="mask5_outline_out">
<rect id="mask5_outline_inv" fill="white" x="-1" y="-1" width="23" height="6" transform="translate(-773 850.547)"/>
<use xlink:href="#path4_fill" fill="black" transform="translate(-773 850.547)"/>
</mask>
<g mask="url(#mask5_outline_out)">
<use xlink:href="#path5_stroke_2x" transform="translate(-773 850.547)" fill="#333333"/>
</g>
</g>
</g>
</g>
<g id="Group">
<g id="Group">
<g id="Vector">
<use xlink:href="#path10_fill" transform="matrix(0.708175 -0.706023 0.708175 0.706023 -755.642 896.237)" fill="#333333"/>
<mask id="mask6_outline_out">
<rect id="mask6_outline_inv" fill="white" x="-1" y="-1" width="23" height="6" transform="matrix(0.708175 -0.706023 0.708175 0.706023 -755.642 896.237)"/>
<use xlink:href="#path10_fill" fill="black" transform="matrix(0.708175 -0.706023 0.708175 0.706023 -755.642 896.237)"/>
</mask>
<g mask="url(#mask6_outline_out)">
<use xlink:href="#path11_stroke_2x" transform="matrix(0.708175 -0.706023 0.708175 0.706023 -755.642 896.237)" fill="#333333"/>
</g>
</g>
</g>
</g>
<g id="Group">
<g id="Group">
<g id="Vector">
<use xlink:href="#path12_fill" transform="matrix(0.389505 -0.920976 0.921822 0.387497 -733.903 840.018)" fill="#333333"/>
<mask id="mask7_outline_out">
<rect id="mask7_outline_inv" fill="white" x="-1" y="-1" width="6" height="6" transform="matrix(0.389505 -0.920976 0.921822 0.387497 -733.903 840.018)"/>
<use xlink:href="#path12_fill" fill="black" transform="matrix(0.389505 -0.920976 0.921822 0.387497 -733.903 840.018)"/>
</mask>
<g mask="url(#mask7_outline_out)">
<use xlink:href="#path13_stroke_2x" transform="matrix(0.389505 -0.920976 0.921822 0.387497 -733.903 840.018)" fill="#333333"/>
</g>
</g>
</g>
</g>
<g id="Group">
<g id="Group">
<g id="Vector">
<use xlink:href="#path14_fill" transform="translate(-742.098 811.743)" fill="#333333"/>
<mask id="mask8_outline_out">
<rect id="mask8_outline_inv" fill="white" x="-1" y="-1" width="70" height="89" transform="translate(-742.098 811.743)"/>
<use xlink:href="#path14_fill" fill="black" transform="translate(-742.098 811.743)"/>
</mask>
<g mask="url(#mask8_outline_out)">
<use xlink:href="#path15_stroke_2x" transform="translate(-742.098 811.743)" fill="#333333"/>
</g>
</g>
</g>
</g>
</g>
</g>
</g>
<defs>
<path id="path0_fill" d="M 3.9123 2.80335e-06L -2.92524e-06 2.80335e-06L -2.92524e-06 12.4091L 3.9123 12.4091L 3.9123 2.80335e-06Z"/>
<path id="path1_stroke_2x" d="M -2.92524e-06 2.80335e-06L -2.92524e-06 -0.499997L -0.500003 -0.499997L -0.500003 2.80335e-06L -2.92524e-06 2.80335e-06ZM 3.9123 2.80335e-06L 4.4123 2.80335e-06L 4.4123 -0.499997L 3.9123 -0.499997L 3.9123 2.80335e-06ZM 3.9123 12.4091L 3.9123 12.9091L 4.4123 12.9091L 4.4123 12.4091L 3.9123 12.4091ZM -2.92524e-06 12.4091L -0.500003 12.4091L -0.500003 12.9091L -2.92524e-06 12.9091L -2.92524e-06 12.4091ZM -2.92524e-06 0.500003L 3.9123 0.500003L 3.9123 -0.499997L -2.92524e-06 -0.499997L -2.92524e-06 0.500003ZM 3.4123 2.80335e-06L 3.4123 12.4091L 4.4123 12.4091L 4.4123 2.80335e-06L 3.4123 2.80335e-06ZM 3.9123 11.9091L -2.92524e-06 11.9091L -2.92524e-06 12.9091L 3.9123 12.9091L 3.9123 11.9091ZM 0.499997 12.4091L 0.499997 2.80335e-06L -0.500003 2.80335e-06L -0.500003 12.4091L 0.499997 12.4091Z"/>
<path id="path2_fill" d="M 3.9123 0L 0 0L 0 3.92029L 3.9123 3.92029L 3.9123 0Z"/>
<path id="path3_stroke_2x" d="M 0 0L 0 -0.5L -0.5 -0.5L -0.5 0L 0 0ZM 3.9123 0L 4.4123 0L 4.4123 -0.5L 3.9123 -0.5L 3.9123 0ZM 3.9123 3.92029L 3.9123 4.42029L 4.4123 4.42029L 4.4123 3.92029L 3.9123 3.92029ZM 0 3.92029L -0.5 3.92029L -0.5 4.42029L 0 4.42029L 0 3.92029ZM 0 0.5L 3.9123 0.5L 3.9123 -0.5L 0 -0.5L 0 0.5ZM 3.4123 0L 3.4123 3.92029L 4.4123 3.92029L 4.4123 0L 3.4123 0ZM 3.9123 3.42029L 0 3.42029L 0 4.42029L 3.9123 4.42029L 3.9123 3.42029ZM 0.5 3.92029L 0.5 0L -0.5 0L -0.5 3.92029L 0.5 3.92029Z"/>
<path id="path4_fill" d="M 21.0625 0L 0 0L 0 3.90634L 21.0625 3.90634L 21.0625 0Z"/>
<path id="path5_stroke_2x" d="M 0 0L 0 -0.5L -0.5 -0.5L -0.5 0L 0 0ZM 21.0625 0L 21.5625 0L 21.5625 -0.5L 21.0625 -0.5L 21.0625 0ZM 21.0625 3.90634L 21.0625 4.40634L 21.5625 4.40634L 21.5625 3.90634L 21.0625 3.90634ZM 0 3.90634L -0.5 3.90634L -0.5 4.40634L 0 4.40634L 0 3.90634ZM 0 0.5L 21.0625 0.5L 21.0625 -0.5L 0 -0.5L 0 0.5ZM 20.5625 0L 20.5625 3.90634L 21.5625 3.90634L 21.5625 0L 20.5625 0ZM 21.0625 3.40634L 0 3.40634L 0 4.40634L 21.0625 4.40634L 21.0625 3.40634ZM 0.5 3.90634L 0.5 0L -0.5 0L -0.5 3.90634L 0.5 3.90634Z"/>
<path id="path6_fill" d="M 21.0303 0L 0 0L 0 3.9123L 21.0303 3.9123L 21.0303 0Z"/>
<path id="path7_stroke_2x" d="M 0 0L 0 -0.5L -0.5 -0.5L -0.5 0L 0 0ZM 21.0303 0L 21.5303 0L 21.5303 -0.5L 21.0303 -0.5L 21.0303 0ZM 21.0303 3.9123L 21.0303 4.4123L 21.5303 4.4123L 21.5303 3.9123L 21.0303 3.9123ZM 0 3.9123L -0.5 3.9123L -0.5 4.4123L 0 4.4123L 0 3.9123ZM 0 0.5L 21.0303 0.5L 21.0303 -0.5L 0 -0.5L 0 0.5ZM 20.5303 0L 20.5303 3.9123L 21.5303 3.9123L 21.5303 0L 20.5303 0ZM 21.0303 3.4123L 0 3.4123L 0 4.4123L 21.0303 4.4123L 21.0303 3.4123ZM 0.5 3.9123L 0.5 0L -0.5 0L -0.5 3.9123L 0.5 3.9123Z"/>
<path id="path8_fill" d="M 3.9123 0L 0 0L 0 21.0303L 3.9123 21.0303L 3.9123 0Z"/>
<path id="path9_stroke_2x" d="M 0 0L 0 -0.5L -0.5 -0.5L -0.5 0L 0 0ZM 3.9123 0L 4.4123 0L 4.4123 -0.5L 3.9123 -0.5L 3.9123 0ZM 3.9123 21.0303L 3.9123 21.5303L 4.4123 21.5303L 4.4123 21.0303L 3.9123 21.0303ZM 0 21.0303L -0.5 21.0303L -0.5 21.5303L 0 21.5303L 0 21.0303ZM 0 0.5L 3.9123 0.5L 3.9123 -0.5L 0 -0.5L 0 0.5ZM 3.4123 0L 3.4123 21.0303L 4.4123 21.0303L 4.4123 0L 3.4123 0ZM 3.9123 20.5303L 0 20.5303L 0 21.5303L 3.9123 21.5303L 3.9123 20.5303ZM 0.5 21.0303L 0.5 0L -0.5 0L -0.5 21.0303L 0.5 21.0303Z"/>
<path id="path10_fill" d="M 21.0303 2.0111e-06L 0 2.0111e-06L 0 3.9123L 21.0303 3.9123L 21.0303 2.0111e-06Z"/>
<path id="path11_stroke_2x" d="M 0 2.0111e-06L 0 -0.499998L -0.5 -0.499998L -0.5 2.0111e-06L 0 2.0111e-06ZM 21.0303 2.0111e-06L 21.5303 2.0111e-06L 21.5303 -0.499998L 21.0303 -0.499998L 21.0303 2.0111e-06ZM 21.0303 3.9123L 21.0303 4.4123L 21.5303 4.4123L 21.5303 3.9123L 21.0303 3.9123ZM 0 3.9123L -0.5 3.9123L -0.5 4.4123L 0 4.4123L 0 3.9123ZM 0 0.500002L 21.0303 0.500002L 21.0303 -0.499998L 0 -0.499998L 0 0.500002ZM 20.5303 2.0111e-06L 20.5303 3.9123L 21.5303 3.9123L 21.5303 2.0111e-06L 20.5303 2.0111e-06ZM 21.0303 3.4123L 0 3.4123L 0 4.4123L 21.0303 4.4123L 21.0303 3.4123ZM 0.5 3.9123L 0.5 2.0111e-06L -0.5 2.0111e-06L -0.5 3.9123L 0.5 3.9123Z"/>
<path id="path12_fill" d="M 3.95826 0L 0 0L 0 3.91645L 3.95826 3.91645L 3.95826 0Z"/>
<path id="path13_stroke_2x" d="M 0 0L 0 -0.5L -0.5 -0.5L -0.5 0L 0 0ZM 3.95826 0L 4.45826 0L 4.45826 -0.5L 3.95826 -0.5L 3.95826 0ZM 3.95826 3.91645L 3.95826 4.41645L 4.45826 4.41645L 4.45826 3.91645L 3.95826 3.91645ZM 0 3.91645L -0.5 3.91645L -0.5 4.41645L 0 4.41645L 0 3.91645ZM 0 0.5L 3.95826 0.5L 3.95826 -0.5L 0 -0.5L 0 0.5ZM 3.45826 0L 3.45826 3.91645L 4.45826 3.91645L 4.45826 0L 3.45826 0ZM 3.95826 3.41645L 0 3.41645L 0 4.41645L 3.95826 4.41645L 3.95826 3.41645ZM 0.5 3.91645L 0.5 0L -0.5 0L -0.5 3.91645L 0.5 3.91645Z"/>
<path id="path14_fill" d="M 67.3978 26.7846L 38.252 26.7846L 50.6315 -5.17222e-07L 20.156 -5.17222e-07L 11.7202 19.9452L 15.3305 21.4631L 22.7562 3.90659L 44.5115 3.90659L 32.1322 30.6909L 59.089 30.6909L 24.9505 71.9718L 31.3773 43.7481L 5.905 43.7481L 9.823 34.4846L 6.2125 32.967L 4.27246e-07 47.6547L 26.4695 47.6547L 17.476 87.1513L 67.3978 26.7846Z"/>
<path id="path15_stroke_2x" d="M 67.3978 26.7846L 67.7831 27.1032L 68.4601 26.2846L 67.3978 26.2846L 67.3978 26.7846ZM 38.252 26.7846L 37.7981 26.5748L 37.4701 27.2846L 38.252 27.2846L 38.252 26.7846ZM 50.6315 -5.17222e-07L 51.0854 0.209771L 51.4134 -0.500001L 50.6315 -0.500001L 50.6315 -5.17222e-07ZM 20.156 -5.17222e-07L 20.156 -0.500001L 19.8246 -0.500001L 19.6955 -0.194769L 20.156 -5.17222e-07ZM 11.7202 19.9452L 11.2597 19.7504L 11.0646 20.2119L 11.5265 20.4061L 11.7202 19.9452ZM 15.3305 21.4631L 15.1367 21.924L 15.5966 22.1174L 15.791 21.6578L 15.3305 21.4631ZM 22.7562 3.90659L 22.7562 3.40659L 22.4248 3.40659L 22.2957 3.71182L 22.7562 3.90659ZM 44.5115 3.90659L 44.9654 4.11636L 45.2934 3.40659L 44.5115 3.40659L 44.5115 3.90659ZM 32.1322 30.6909L 31.6784 30.4812L 31.3503 31.1909L 32.1322 31.1909L 32.1322 30.6909ZM 59.089 30.6909L 59.4743 31.0096L 60.1513 30.1909L 59.089 30.1909L 59.089 30.6909ZM 24.9505 71.9718L 24.463 71.8608L 25.3358 72.2905L 24.9505 71.9718ZM 31.3773 43.7481L 31.8648 43.8592L 32.0039 43.2481L 31.3773 43.2481L 31.3773 43.7481ZM 5.905 43.7481L 5.44449 43.5534L 5.15064 44.2481L 5.905 44.2481L 5.905 43.7481ZM 9.823 34.4846L 10.2835 34.6794L 10.4787 34.2179L 10.0167 34.0237L 9.823 34.4846ZM 6.2125 32.967L 6.40625 32.5061L 5.94634 32.3128L 5.752 32.7722L 6.2125 32.967ZM 4.27246e-07 47.6547L -0.460501 47.46L -0.754373 48.1547L 4.27246e-07 48.1547L 4.27246e-07 47.6547ZM 26.4695 47.6547L 26.957 47.7657L 27.0961 47.1547L 26.4695 47.1547L 26.4695 47.6547ZM 17.476 87.1513L 16.9885 87.0403L 17.8613 87.47L 17.476 87.1513ZM 67.3978 26.2846L 38.252 26.2846L 38.252 27.2846L 67.3978 27.2846L 67.3978 26.2846ZM 38.7059 26.9944L 51.0854 0.209771L 50.1776 -0.209772L 37.7981 26.5748L 38.7059 26.9944ZM 50.6315 -0.500001L 20.156 -0.500001L 20.156 0.499999L 50.6315 0.499999L 50.6315 -0.500001ZM 19.6955 -0.194769L 11.2597 19.7504L 12.1808 20.14L 20.6165 0.194768L 19.6955 -0.194769ZM 11.5265 20.4061L 15.1367 21.924L 15.5243 21.0022L 11.914 19.4843L 11.5265 20.4061ZM 15.791 21.6578L 23.2168 4.10137L 22.2957 3.71182L 14.87 21.2683L 15.791 21.6578ZM 22.7562 4.40659L 44.5115 4.40659L 44.5115 3.40659L 22.7562 3.40659L 22.7562 4.40659ZM 44.0576 3.69682L 31.6784 30.4812L 32.5861 30.9007L 44.9654 4.11636L 44.0576 3.69682ZM 32.1322 31.1909L 59.089 31.1909L 59.089 30.1909L 32.1322 30.1909L 32.1322 31.1909ZM 58.7037 30.3723L 24.5652 71.6532L 25.3358 72.2905L 59.4743 31.0096L 58.7037 30.3723ZM 25.438 72.0829L 31.8648 43.8592L 30.8897 43.6371L 24.463 71.8608L 25.438 72.0829ZM 31.3773 43.2481L 5.905 43.2481L 5.905 44.2481L 31.3773 44.2481L 31.3773 43.2481ZM 6.3655 43.9429L 10.2835 34.6794L 9.36249 34.2899L 5.44449 43.5534L 6.3655 43.9429ZM 10.0167 34.0237L 6.40625 32.5061L 6.01875 33.4279L 9.62925 34.9456L 10.0167 34.0237ZM 5.752 32.7722L -0.460501 47.46L 0.460501 47.8495L 6.673 33.1618L 5.752 32.7722ZM 4.27246e-07 48.1547L 26.4695 48.1547L 26.4695 47.1547L 4.27246e-07 47.1547L 4.27246e-07 48.1547ZM 25.982 47.5437L 16.9885 87.0403L 17.9635 87.2623L 26.957 47.7657L 25.982 47.5437ZM 17.8613 87.47L 67.7831 27.1032L 67.0124 26.466L 17.0907 86.8327L 17.8613 87.47Z"/>
</defs>
</svg>
