<svg width="128" height="128" viewBox="0 0 128 128" version="1.1" xmlns="http://www.w3.org/2000/svg" xmlns:xlink="http://www.w3.org/1999/xlink">
<title>follow</title>
<desc>Created using Figma</desc>
<g id="Canvas" transform="translate(1049 -633)">
<clipPath id="clip-0" clip-rule="evenodd">
<path d="M -1049 633L -921 633L -921 761L -1049 761L -1049 633Z" fill="#FFFFFF"/>
</clipPath>
<g id="follow" clip-path="url(#clip-0)">
<path d="M -1049 633L -921 633L -921 761L -1049 761L -1049 633Z" fill="#FFFFFF"/>
<g id="Group">
<g id="rss">
<g id="Group">
<g id="Vector">
<use xlink:href="#path0_fill" transform="translate(-1006.99 667)" fill="#333333"/>
<mask id="mask0_outline_out">
<rect id="mask0_outline_inv" fill="white" x="-1" y="-1" width="46" height="46" transform="translate(-1006.99 667)"/>
<use xlink:href="#path0_fill" fill="black" transform="translate(-1006.99 667)"/>
</mask>
<g mask="url(#mask0_outline_out)">
<use xlink:href="#path1_stroke_2x" transform="translate(-1006.99 667)" fill="#333333"/>
</g>
</g>
<g id="Vector">
<use xlink:href="#path2_fill" transform="translate(-1006.99 680.957)" fill="#333333"/>
<mask id="mask1_outline_out">
<rect id="mask1_outline_inv" fill="white" x="-1" y="-1" width="32" height="32" transform="translate(-1006.99 680.957)"/>
<use xlink:href="#path2_fill" fill="black" transform="translate(-1006.99 680.957)"/>
</mask>
<g mask="url(#mask1_outline_out)">
<use xlink:href="#path3_stroke_2x" transform="translate(-1006.99 680.957)" fill="#333333"/>
</g>
</g>
<g id="Vector">
<use xlink:href="#path4_fill" transform="translate(-1007 697.116)" fill="#333333"/>
<mask id="mask2_outline_out">
<rect id="mask2_outline_inv" fill="white" x="-1" y="-1" width="16" height="16" transform="translate(-1007 697.116)"/>
<use xlink:href="#path4_fill" fill="black" transform="translate(-1007 697.116)"/>
</mask>
<g mask="url(#mask2_outline_out)">
<use xlink:href="#path5_stroke_2x" transform="translate(-1007 697.116)" fill="#333333"/>
</g>
</g>
</g>
</g>
<g id="smartphone">
<g id="Group">
<g id="Vector">
<use xlink:href="#path6_fill" transform="translate(-1020.13 635)" fill="#333333"/>
</g>
<g id="Vector">
<use xlink:href="#path7_fill" transform="translate(-993.267 736.267)" fill="#333333"/>
</g>
<g id="Vector">
<use xlink:href="#path8_fill" transform="translate(-995.334 641.2)" fill="#333333"/>
</g>
<g id="Vector">
<use xlink:href="#path9_fill" transform="translate(-980.867 641.2)" fill="#333333"/>
</g>
<g id="Vector">
<use xlink:href="#path10_fill" transform="translate(-933.528 643.837)" fill="#333333"/>
</g>
<g id="Vector">
<use xlink:href="#path11_fill" transform="translate(-942.232 648.54)" fill="#333333"/>
</g>
<g id="Vector">
<use xlink:href="#path12_fill" transform="translate(-1047 643.837)" fill="#333333"/>
</g>
<g id="Vector">
<use xlink:href="#path13_fill" transform="translate(-1036.47 647.97)" fill="#333333"/>
</g>
</g>
</g>
</g>
</g>
</g>
<defs>
<path id="path0_fill" d="M 34.6139 44L 42.5135 44C 43.3269 44 43.9864 43.343 43.9864 42.5327C 43.9864 19.0801 24.915 0 1.47291 0C 0.659494 0 -1.37096e-06 0.656968 -1.37096e-06 1.46727L -1.37096e-06 9.33878C -1.37096e-06 10.1491 0.659494 10.806 1.47291 10.806C 18.9348 10.806 33.141 25.0385 33.141 42.5326C 33.141 43.343 33.8005 44 34.6139 44ZM 2.94582 7.90251L 2.94582 2.96149C 23.5973 3.72099 40.2568 20.3974 41.0137 41.0653L 36.0563 41.0653C 35.3069 23.1201 20.8654 8.65834 2.94582 7.90251Z"/>
<path id="path1_stroke_2x" d="M 2.94582 7.90251L 2.74582 7.90251L 2.74582 8.09425L 2.93739 8.10233L 2.94582 7.90251ZM 2.94582 2.96149L 2.95317 2.76163L 2.74582 2.754L 2.74582 2.96149L 2.94582 2.96149ZM 41.0137 41.0653L 41.0137 41.2653L 41.2212 41.2653L 41.2136 41.058L 41.0137 41.0653ZM 36.0563 41.0653L 35.8565 41.0736L 35.8645 41.2653L 36.0563 41.2653L 36.0563 41.0653ZM 34.6139 44.2L 42.5135 44.2L 42.5135 43.8L 34.6139 43.8L 34.6139 44.2ZM 42.5135 44.2C 43.4367 44.2 44.1864 43.4542 44.1864 42.5327L 43.7864 42.5327C 43.7864 43.2319 43.2172 43.8 42.5135 43.8L 42.5135 44.2ZM 44.1864 42.5327C 44.1864 18.9698 25.0256 -0.2 1.47291 -0.2L 1.47291 0.2C 24.8045 0.2 43.7864 19.1905 43.7864 42.5327L 44.1864 42.5327ZM 1.47291 -0.2C 0.549762 -0.2 -0.200001 0.545788 -0.200001 1.46727L 0.199999 1.46727C 0.199999 0.768148 0.769226 0.2 1.47291 0.2L 1.47291 -0.2ZM -0.200001 1.46727L -0.200001 9.33878L 0.199999 9.33878L 0.199999 1.46727L -0.200001 1.46727ZM -0.200001 9.33878C -0.200001 10.2603 0.549762 11.006 1.47291 11.006L 1.47291 10.606C 0.769226 10.606 0.199999 10.0379 0.199999 9.33878L -0.200001 9.33878ZM 1.47291 11.006C 18.824 11.006 32.941 25.1486 32.941 42.5326L 33.341 42.5326C 33.341 24.9284 19.0456 10.606 1.47291 10.606L 1.47291 11.006ZM 32.941 42.5326C 32.941 43.4542 33.6908 44.2 34.6139 44.2L 34.6139 43.8C 33.9103 43.8 33.341 43.2319 33.341 42.5326L 32.941 42.5326ZM 3.14582 7.90251L 3.14582 2.96149L 2.74582 2.96149L 2.74582 7.90251L 3.14582 7.90251ZM 2.93847 3.16136C 23.4851 3.917 40.0608 20.5093 40.8139 41.0726L 41.2136 41.058C 40.4529 20.2855 23.7095 3.52498 2.95317 2.76163L 2.93847 3.16136ZM 41.0137 40.8653L 36.0563 40.8653L 36.0563 41.2653L 41.0137 41.2653L 41.0137 40.8653ZM 36.2561 41.0569C 35.5024 23.0081 20.9779 8.4629 2.95425 7.70269L 2.93739 8.10233C 20.7529 8.85377 35.1114 23.2321 35.8565 41.0736L 36.2561 41.0569Z"/>
<path id="path2_fill" d="M 19.1972 28.5655C 19.1972 29.3758 19.8567 30.0327 20.6701 30.0327L 28.5695 30.0327C 29.3829 30.0327 30.0424 29.3758 30.0424 28.5655C 30.0424 12.8146 17.2262 1.32093e-06 1.47291 1.32093e-06C 0.659495 1.32093e-06 -2.24748e-08 0.65697 -2.24748e-08 1.46727L -2.24748e-08 9.3364C -2.24748e-08 10.1467 0.659495 10.8037 1.47291 10.8037C 6.20979 10.8037 10.6571 12.6469 13.9967 15.9952C 17.3503 19.3501 19.1972 23.8143 19.1972 28.5655ZM 2.94582 2.97635C 15.9067 3.71438 26.3198 14.1329 27.0551 27.0982L 22.0922 27.0982C 21.7464 22.1185 19.6438 17.4858 16.0853 13.9258C 12.5376 10.3692 7.91707 8.26768 2.94582 7.92049L 2.94582 2.97635L 2.94582 2.97635Z"/>
<path id="path3_stroke_2x" d="M 13.9967 15.9952L 13.8551 16.1365L 13.8552 16.1366L 13.9967 15.9952ZM 27.0551 27.0982L 27.0551 27.2982L 27.2668 27.2982L 27.2548 27.0869L 27.0551 27.0982ZM 22.0922 27.0982L 21.8927 27.1121L 21.9056 27.2982L 22.0922 27.2982L 22.0922 27.0982ZM 16.0853 13.9258L 15.9437 14.0671L 15.9438 14.0672L 16.0853 13.9258ZM 2.94582 7.92049L 2.74582 7.92049L 2.74582 8.107L 2.93189 8.12L 2.94582 7.92049ZM 18.9972 28.5655C 18.9972 29.4869 19.7469 30.2327 20.6701 30.2327L 20.6701 29.8327C 19.9664 29.8327 19.3972 29.2646 19.3972 28.5655L 18.9972 28.5655ZM 20.6701 30.2327L 28.5695 30.2327L 28.5695 29.8327L 20.6701 29.8327L 20.6701 30.2327ZM 28.5695 30.2327C 29.4926 30.2327 30.2424 29.4869 30.2424 28.5655L 29.8424 28.5655C 29.8424 29.2646 29.2732 29.8327 28.5695 29.8327L 28.5695 30.2327ZM 30.2424 28.5655C 30.2424 12.7041 17.3367 -0.199999 1.47291 -0.199999L 1.47291 0.200001C 17.1158 0.200001 29.8424 12.925 29.8424 28.5655L 30.2424 28.5655ZM 1.47291 -0.199999C 0.549763 -0.199999 -0.2 0.545789 -0.2 1.46727L 0.2 1.46727C 0.2 0.76815 0.769228 0.200001 1.47291 0.200001L 1.47291 -0.199999ZM -0.2 1.46727L -0.2 9.3364L 0.2 9.3364L 0.2 1.46727L -0.2 1.46727ZM -0.2 9.3364C -0.2 10.2579 0.549763 11.0037 1.47291 11.0037L 1.47291 10.6037C 0.769227 10.6037 0.2 10.0355 0.2 9.3364L -0.2 9.3364ZM 1.47291 11.0037C 6.15677 11.0037 10.5531 12.8258 13.8551 16.1365L 14.1383 15.854C 10.7611 12.468 6.26281 10.6037 1.47291 10.6037L 1.47291 11.0037ZM 13.8552 16.1366C 17.1713 19.4539 18.9972 23.8672 18.9972 28.5655L 19.3972 28.5655C 19.3972 23.7613 17.5293 19.2463 14.1381 15.8538L 13.8552 16.1366ZM 2.93445 3.17603C 15.7937 3.90828 26.1259 14.2457 26.8555 27.1095L 27.2548 27.0869C 26.5137 14.0201 16.0196 3.52049 2.95719 2.77667L 2.93445 3.17603ZM 27.0551 26.8982L 22.0922 26.8982L 22.0922 27.2982L 27.0551 27.2982L 27.0551 26.8982ZM 22.2917 27.0843C 21.9403 22.0694 19.8083 17.3719 16.2267 13.7844L 15.9438 14.0672C 19.4794 17.5996 21.5525 22.1675 21.8927 27.1121L 22.2917 27.0843ZM 16.2269 13.7846C 12.6516 10.2049 7.96622 8.07381 2.95975 7.72097L 2.93189 8.12C 7.86792 8.46154 12.4236 10.5335 15.9437 14.0671L 16.2269 13.7846ZM 3.14582 7.92049L 3.14582 2.97635L 2.74582 2.97635L 2.74582 7.92049L 3.14582 7.92049Z"/>
<path id="path4_fill" d="M 0 6.91853C 0 10.7351 3.11447 13.8398 6.94274 13.8398C 10.7738 13.8398 13.8906 10.7349 13.8906 6.91853C 13.8906 3.10363 10.7738 1.83587e-06 6.94274 1.83587e-06C 3.11447 1.83587e-06 0 3.10363 0 6.91853ZM 10.9448 6.91853C 10.9448 9.11686 9.14953 10.9053 6.94274 10.9053C 4.7389 10.9053 2.94582 9.11686 2.94582 6.91853C 2.94582 4.72166 4.7389 2.93453 6.94274 2.93453C 9.14953 2.93453 10.9448 4.72184 10.9448 6.91853Z"/>
<path id="path5_stroke_2x" d="M -0.2 6.91853C -0.2 10.8461 3.0046 14.0398 6.94274 14.0398L 6.94274 13.6398C 3.22434 13.6398 0.2 10.624 0.2 6.91853L -0.2 6.91853ZM 6.94274 14.0398C 10.8835 14.0398 14.0906 10.8461 14.0906 6.91853L 13.6906 6.91853C 13.6906 10.6237 10.6641 13.6398 6.94274 13.6398L 6.94274 14.0398ZM 14.0906 6.91853C 14.0906 2.99238 10.8834 -0.199998 6.94274 -0.199998L 6.94274 0.200002C 10.6641 0.200002 13.6906 3.21489 13.6906 6.91853L 14.0906 6.91853ZM 6.94274 -0.199998C 3.00467 -0.199998 -0.2 2.99252 -0.2 6.91853L 0.2 6.91853C 0.2 3.21475 3.22427 0.200002 6.94274 0.200002L 6.94274 -0.199998ZM 10.7448 6.91853C 10.7448 9.00568 9.0398 10.7053 6.94274 10.7053L 6.94274 11.1053C 9.25926 11.1053 11.1448 9.22804 11.1448 6.91853L 10.7448 6.91853ZM 6.94274 10.7053C 4.84888 10.7053 3.14582 9.00592 3.14582 6.91853L 2.74582 6.91853C 2.74582 9.2278 4.62893 11.1053 6.94274 11.1053L 6.94274 10.7053ZM 3.14582 6.91853C 3.14582 4.83273 4.84874 3.13453 6.94274 3.13453L 6.94274 2.73453C 4.62906 2.73453 2.74582 4.61059 2.74582 6.91853L 3.14582 6.91853ZM 6.94274 3.13453C 9.03993 3.13453 10.7448 4.83315 10.7448 6.91853L 11.1448 6.91853C 11.1448 4.61054 9.25914 2.73453 6.94274 2.73453L 6.94274 3.13453Z"/>
<path id="path6_fill" d="M 61.165 0L 9.10397 0C 4.08594 0 0 4.0858 0 9.10367L 0 114.894C 0 119.914 4.08594 124 9.10397 124L 61.163 124C 66.1831 124 70.269 119.914 70.269 114.896L 70.269 9.10367C 70.269 4.0858 66.1831 0 61.165 0ZM 4.13347 16.5333L 66.1355 16.5333L 66.1355 95.0667L 4.13347 95.0667L 4.13347 16.5333ZM 9.10397 4.13333L 61.163 4.13333C 63.9055 4.13333 66.1355 6.36327 66.1355 9.10367L 66.1355 12.4L 4.13347 12.4L 4.13347 9.10367C 4.13347 6.36327 6.36348 4.13333 9.10397 4.13333ZM 61.165 119.867L 9.10397 119.867C 6.36348 119.867 4.13347 117.637 4.13347 114.896L 4.13347 99.2L 66.1355 99.2L 66.1355 114.896C 66.1355 117.637 63.9055 119.867 61.165 119.867Z"/>
<path id="path7_fill" d="M 8.26694 0C 3.70772 0 0 3.7076 0 8.26667C 0 12.8257 3.70772 16.5333 8.26694 16.5333C 12.8262 16.5333 16.5339 12.8257 16.5339 8.26667C 16.5339 3.7076 12.8262 0 8.26694 0ZM 8.26694 12.4C 5.98733 12.4 4.13347 10.5462 4.13347 8.26667C 4.13347 5.98713 5.98733 4.13333 8.26694 4.13333C 10.5466 4.13333 12.4004 5.98713 12.4004 8.26667C 12.4004 10.5462 10.5466 12.4 8.26694 12.4Z"/>
<path id="path8_fill" d="M 2.06674 4.13333L 10.3337 4.13333C 11.4766 4.13333 12.4004 3.20953 12.4004 2.06667C 12.4004 0.9238 11.4766 0 10.3337 0L 2.06674 0C 0.923831 0 0 0.9238 0 2.06667C 0 3.20953 0.923831 4.13333 2.06674 4.13333Z"/>
<path id="path9_fill" d="M 2.06674 4.13333L 4.13347 4.13333C 5.27638 4.13333 6.20021 3.20953 6.20021 2.06667C 6.20021 0.9238 5.27638 0 4.13347 0L 2.06674 0C 0.923831 0 0 0.9238 0 2.06667C 0 3.20953 0.923831 4.13333 2.06674 4.13333Z"/>
<path id="path10_fill" d="M 3.52843 0.60605C 2.72034 -0.202017 1.41417 -0.202017 0.606074 0.60605C -0.20202 1.41412 -0.20202 2.72025 0.606074 3.52832C 8.3274 11.2494 8.3274 23.8127 0.606074 31.5358C -0.20202 32.3439 -0.20202 33.65 0.606074 34.4581C 1.00909 34.8611 1.53817 35.0636 2.06725 35.0636C 2.59633 35.0636 3.12542 34.8611 3.52843 34.4581C 12.8618 25.1271 12.8618 9.93912 3.52843 0.60605Z"/>
<path id="path11_fill" d="M 3.52844 0.60605C 2.72034 -0.202017 1.41416 -0.202017 0.606069 0.60605C -0.202024 1.41412 -0.202024 2.72025 0.606069 3.52832C 3.16262 6.08478 4.57007 9.49065 4.57007 13.1156C 4.57007 16.7405 3.16262 20.1443 0.606069 22.7008C -0.202024 23.5088 -0.202024 24.815 0.606069 25.6231C 1.00908 26.0261 1.53817 26.2286 2.06725 26.2286C 2.59634 26.2286 3.12542 26.0261 3.52844 25.6231C 6.86621 22.2875 8.70354 17.8441 8.70354 13.1156C 8.70354 8.38705 6.86828 3.94165 3.52844 0.60605Z"/>
<path id="path12_fill" d="M 9.9224 3.52832C 10.7305 2.72025 10.7305 1.41412 9.9224 0.60605C 9.1143 -0.202017 7.80813 -0.202017 7.00003 0.60605C -2.33334 9.93912 -2.33334 25.125 7.00003 34.4581C 7.40305 34.8611 7.93213 35.0636 8.46121 35.0636C 8.9903 35.0636 9.51938 34.8611 9.9224 34.4581C 10.7305 33.65 10.7305 32.3439 9.9224 31.5358C 2.19901 23.8147 2.19901 11.2515 9.9224 3.52832Z"/>
<path id="path13_fill" d="M 8.09747 0.606049C 7.28938 -0.202017 5.9832 -0.202017 5.17511 0.606049C 1.83733 3.94165 -4.33618e-07 8.38498 -4.33618e-07 13.1135C -4.33618e-07 17.842 1.83733 22.2854 5.17511 25.623C 5.57812 26.026 6.1072 26.2286 6.63629 26.2286C 7.16537 26.2286 7.69446 26.026 8.09747 25.623C 8.90556 24.815 8.90556 23.5088 8.09747 22.7008C 5.54092 20.1443 4.13347 16.7384 4.13347 13.1135C 4.13347 9.48858 5.53885 6.08478 8.09747 3.52832C 8.9035 2.72232 8.9035 1.41412 8.09747 0.606049Z"/>
</defs>
</svg>
