<svg width="128" height="128" viewBox="0 0 128 128" version="1.1" xmlns="http://www.w3.org/2000/svg" xmlns:xlink="http://www.w3.org/1999/xlink">
<title>give</title>
<desc>Created using Figma</desc>
<g id="Canvas" transform="translate(911 -633)">
<clipPath id="clip-0" clip-rule="evenodd">
<path d="M -911 633L -783 633L -783 761L -911 761L -911 633Z" fill="#FFFFFF"/>
</clipPath>
<g id="give" clip-path="url(#clip-0)">
<path d="M -911 633L -783 633L -783 761L -911 761L -911 633Z" fill="#FFFFFF"/>
<g id="mobile-phone">
<g id="Group">
<g id="Group">
<g id="Vector">
<use xlink:href="#path0_fill" transform="translate(-841.35 666.7)" fill="#333333"/>
</g>
</g>
</g>
<g id="Group">
<g id="Group">
<g id="Vector">
<use xlink:href="#path1_fill" transform="translate(-909 638)" fill="#333333"/>
</g>
</g>
</g>
<g id="Group">
<g id="Group">
<g id="Vector">
<use xlink:href="#path2_fill" transform="translate(-812.65 665.251)" fill="#333333"/>
</g>
</g>
</g>
<g id="Group">
<g id="Group">
<g id="Vector">
<use xlink:href="#path3_fill" transform="translate(-883.58 668.75)" fill="#333333"/>
</g>
</g>
</g>
<g id="Group">
<g id="Group">
<g id="Vector">
<use xlink:href="#path4_fill" transform="translate(-889.73 660.55)" fill="#333333"/>
</g>
</g>
</g>
<g id="Group">
<g id="Group">
<g id="Vector">
<use xlink:href="#path5_fill" transform="translate(-878.25 676.95)" fill="#333333"/>
</g>
</g>
</g>
</g>
</g>
</g>
<defs>
<path id="path0_fill" d="M 4.22913 5.43045C 4.52228 4.65555 5.27258 4.1 6.14997 4.1C 7.27952 4.1 8.19997 5.02045 8.19997 6.15L 12.2999 6.15C 12.2999 2.7593 9.54066 -1.40762e-07 6.14997 -1.40762e-07C 2.75929 -1.40762e-07 0 2.7593 0 6.15C 0 6.69325 0.215248 7.216 0.600646 7.59935L 8.07082 15.0696C 7.77767 15.8445 7.02737 16.4 6.14997 16.4C 5.02043 16.4 4.09998 15.4796 4.09998 14.35L 0 14.35C 0 17.7407 2.75929 20.5 6.14997 20.5C 9.54066 20.5 12.2999 17.7407 12.2999 14.35C 12.2999 13.8068 12.0847 13.284 11.6993 12.9007L 4.22913 5.43045Z"/>
<path id="path1_fill" d="M 73.7997 20.5C 71.6411 20.5 69.5767 20.8915 67.6497 21.5762L 67.6497 10.25C 67.6497 4.59815 63.0516 1.217e-11 57.3998 1.217e-11L 10.25 1.217e-11C 4.59813 1.217e-11 0 4.59815 0 10.25L 0 96.35C 0 102.002 4.59813 106.6 10.25 106.6L 24.5999 106.6C 24.5999 107.143 24.8151 107.666 25.2005 108.049L 32.7999 115.649L 32.7999 123L 36.8998 123L 36.8998 114.8C 36.8998 114.257 36.6846 113.734 36.2992 113.351L 28.6999 105.751L 28.6999 96.6821L 30.6453 90.8478C 30.715 90.6387 30.7499 90.4193 30.7499 90.2L 30.7499 61.5C 30.7499 60.3704 31.6703 59.45 32.7999 59.45C 33.9294 59.45 34.8499 60.3704 34.8499 61.5L 34.8499 79.95L 34.8499 90.2L 34.8499 92.25L 38.9498 92.25L 38.9498 90.2L 38.9498 79.95C 38.9498 78.8204 39.8703 77.9 40.9998 77.9C 42.1294 77.9 43.0498 78.8204 43.0498 79.95L 43.0498 86.1L 43.0498 92.25L 47.1498 92.25L 47.1498 86.1L 47.1498 79.95C 47.1498 78.8204 48.0703 77.9 49.1998 77.9C 50.3293 77.9 51.2498 78.8204 51.2498 79.95L 51.2498 82L 51.2498 90.2L 51.2498 92.25L 55.3498 92.25L 55.3498 90.2L 55.3498 82C 55.3498 80.8704 56.2702 79.95 57.3998 79.95C 58.5293 79.95 59.4498 80.8704 59.4498 82L 59.4498 86.1L 59.4498 92.25L 63.5497 92.25L 63.5497 86.1C 63.5497 84.9704 64.4702 84.05 65.5997 84.05C 66.7293 84.05 67.6497 84.9704 67.6497 86.1L 67.6497 98.0679L 61.6043 116.202C 61.5346 116.411 61.4997 116.631 61.4997 116.85L 61.4997 123L 65.5997 123L 65.5997 117.182L 71.6452 99.0478C 71.7149 98.8387 71.7497 98.6193 71.7497 98.4L 71.7497 86.1C 71.7497 83.4309 70.0298 81.1759 67.6497 80.3272L 67.6497 56.3237C 69.5767 57.0084 71.6411 57.4 73.7997 57.4C 83.9718 57.4 92.2496 49.1221 92.2496 38.95C 92.2496 28.7779 83.9718 20.5 73.7997 20.5ZM 4.09998 10.25C 4.09998 6.8593 6.85927 4.1 10.25 4.1L 57.3998 4.1C 60.7905 4.1 63.5497 6.8593 63.5497 10.25L 63.5497 12.3L 4.09998 12.3L 4.09998 10.25ZM 24.7044 95.7022C 24.6347 95.9113 24.5999 96.1306 24.5999 96.35L 24.5999 102.5L 10.25 102.5C 6.85927 102.5 4.09998 99.7407 4.09998 96.35L 4.09998 90.2L 26.5392 90.2L 24.7044 95.7022ZM 32.7999 55.35C 29.4092 55.35 26.6499 58.1093 26.6499 61.5L 26.6499 63.55L 22.5499 63.55C 21.4204 63.55 20.4999 62.6295 20.4999 61.5L 20.4999 53.3C 20.4999 52.1704 21.4204 51.25 22.5499 51.25L 43.0498 51.25C 44.1794 51.25 45.0998 52.1704 45.0998 53.3L 45.0998 61.5C 45.0998 62.6295 44.1794 63.55 43.0498 63.55L 38.9498 63.55L 38.9498 61.5C 38.9498 58.1093 36.1906 55.35 32.7999 55.35ZM 63.5497 80.3005C 63.48 80.3251 63.4185 80.362 63.3509 80.3887C 63.3386 80.3928 63.3242 80.3948 63.3119 80.401C 62.6047 77.7872 60.2349 75.85 57.3998 75.85C 56.2989 75.85 55.2801 76.1637 54.3842 76.6721C 53.2936 74.9521 51.383 73.8 49.1998 73.8C 47.6193 73.8 46.1904 74.417 45.0998 75.399C 44.0092 74.415 42.5804 73.8 40.9998 73.8C 40.2782 73.8 39.5935 73.9476 38.9498 74.1772L 38.9498 67.65L 43.0498 67.65C 46.4405 67.65 49.1998 64.8907 49.1998 61.5L 49.1998 53.3C 49.1998 49.9093 46.4405 47.15 43.0498 47.15L 22.5499 47.15C 19.1592 47.15 16.3999 49.9093 16.3999 53.3L 16.3999 61.5C 16.3999 64.8907 19.1592 67.65 22.5499 67.65L 26.6499 67.65L 26.6499 86.1L 4.09998 86.1L 4.09998 16.4L 63.5497 16.4L 63.5497 23.6201C 62.9409 24.0281 62.3648 24.479 61.8093 24.9567C 61.7334 25.0223 61.6637 25.09 61.5899 25.1576C 61.1267 25.5697 60.6839 26.0022 60.2636 26.4573C 60.1796 26.5495 60.0955 26.6398 60.0115 26.7341C 59.5646 27.2384 59.1423 27.7631 58.7507 28.3146C 58.7384 28.333 58.7241 28.3494 58.7097 28.3679C 57.8713 29.5589 57.1763 30.8504 56.6372 32.2239C 56.6064 32.2998 56.5818 32.3777 56.5531 32.4535C 56.3358 33.0275 56.1493 33.6118 55.9894 34.2104C 55.9504 34.358 55.9115 34.5056 55.8746 34.6552C 55.7434 35.1985 55.6409 35.7499 55.5609 36.3116C 55.5363 36.4797 55.5035 36.6437 55.4851 36.8118C 55.4031 37.515 55.3498 38.2263 55.3498 38.95C 55.3498 39.6736 55.4031 40.385 55.4851 41.0881C 55.5056 41.2562 55.5363 41.4202 55.5609 41.5883C 55.6409 42.148 55.7454 42.7015 55.8746 43.2447C 55.9115 43.3944 55.9484 43.5399 55.9894 43.6896C 56.1493 44.2882 56.3358 44.8745 56.5531 45.4464C 56.5818 45.5223 56.6085 45.6002 56.6372 45.676C 57.1784 47.0495 57.8733 48.341 58.7097 49.5321C 58.722 49.5505 58.7364 49.5669 58.7507 49.5854C 59.1423 50.1368 59.5646 50.6616 60.0115 51.1659C 60.0935 51.2602 60.1775 51.3504 60.2636 51.4427C 60.6839 51.8978 61.1246 52.3324 61.5899 52.7424C 61.6637 52.808 61.7355 52.8777 61.8093 52.9433C 62.3648 53.4189 62.9409 53.8699 63.5497 54.2799L 63.5497 80.3005ZM 73.7997 53.3C 71.1614 53.3 68.6952 52.5722 66.5673 51.3238C 66.0651 51.0306 65.5874 50.7067 65.1303 50.3582C 65.0872 50.3254 65.0421 50.2947 65.0011 50.2619C 64.0376 49.5095 63.1787 48.6444 62.4448 47.6912C 62.4202 47.6584 62.3976 47.6276 62.373 47.5948C 62.0143 47.1213 61.6822 46.6272 61.3849 46.1147C 61.3829 46.1106 61.3788 46.1065 61.3767 46.1024C 60.7761 45.0631 60.3128 43.9479 59.9869 42.7876C 59.9623 42.6953 59.9397 42.6031 59.9151 42.5108C 59.7942 42.0455 59.7019 41.5699 59.6281 41.0922C 59.6076 40.961 59.583 40.8298 59.5687 40.6986C 59.4949 40.1205 59.4498 39.5383 59.4498 38.95C 59.4498 38.3616 59.4949 37.7794 59.5666 37.2034C 59.583 37.0701 59.6076 36.941 59.6261 36.8098C 59.6999 36.3301 59.7921 35.8565 59.9131 35.3912C 59.9377 35.2989 59.9582 35.2067 59.9848 35.1144C 60.3108 33.9541 60.774 32.8389 61.3747 31.7996C 61.3767 31.7955 61.3809 31.7914 61.3829 31.7873C 61.6801 31.2748 62.0122 30.7808 62.371 30.3072C 62.3956 30.2744 62.4181 30.2437 62.4427 30.2109C 63.1787 29.2556 64.0356 28.3904 64.9991 27.6401C 65.0421 27.6073 65.0852 27.5766 65.1282 27.5438C 65.5854 27.1953 66.063 26.8734 66.5653 26.5782C 68.6952 25.3277 71.1614 24.6 73.7997 24.6C 81.7127 24.6 88.1496 31.037 88.1496 38.95C 88.1496 46.863 81.7127 53.3 73.7997 53.3Z"/>
<path id="path2_fill" d="M 26.0492 8.2L 17.8493 3.12805e-07L 14.9506 2.8987L 19.6512 7.59935L 0 7.59935L 0 11.6994L 19.6512 11.6994L 14.9506 16.4L 17.8493 19.2987L 26.0492 11.0987C 26.8508 10.2971 26.8508 9.00155 26.0492 8.2Z"/>
<path id="path3_fill" d="M 7.37997 -1.40762e-07C 3.81298 -1.40762e-07 1.22589 1.5416 -7.8201e-07 2.46L 2.45999 5.74C 3.27589 5.1291 5.00198 4.1 7.37997 4.1C 8.40086 4.1 10.3976 4.3132 12.2999 5.74L 14.7599 2.46C 11.9064 0.319799 8.91131 -1.40762e-07 7.37997 -1.40762e-07Z"/>
<path id="path4_fill" d="M 13.5299 -1.40762e-07C 6.98842 -1.40762e-07 2.24474 2.8249 -7.8201e-07 4.51L 2.45999 7.79C 4.29678 6.4124 8.17742 4.1 13.5299 4.1C 15.8259 4.1 20.3195 4.5797 24.5999 7.79L 27.0599 4.50795C 21.8263 0.586301 16.3364 -1.40762e-07 13.5299 -1.40762e-07Z"/>
<path id="path5_fill" d="M 4.09998 0L 0 0L 0 4.1L 4.09998 4.1L 4.09998 0Z"/>
</defs>
</svg>
