<svg width="128" height="128" viewBox="0 0 128 128" version="1.1" xmlns="http://www.w3.org/2000/svg" xmlns:xlink="http://www.w3.org/1999/xlink">
<title>offline</title>
<desc>Created using Figma</desc>
<g id="Canvas" transform="translate(773 -633)">
<clipPath id="clip-0" clip-rule="evenodd">
<path d="M -773 633L -645 633L -645 761L -773 761L -773 633Z" fill="#FFFFFF"/>
</clipPath>
<g id="offline" clip-path="url(#clip-0)">
<g id="content">
<g id="Group">
<g id="Group">
<g id="Group">
<g id="Vector">
<use xlink:href="#path0_fill" transform="translate(-757.077 705.786)" fill="#333333"/>
</g>
<g id="Vector">
<use xlink:href="#path1_fill" transform="translate(-757.077 690.832)" fill="#333333"/>
</g>
<g id="Vector">
<use xlink:href="#path2_fill" transform="translate(-757.077 720.741)" fill="#333333"/>
</g>
<g id="Vector">
<use xlink:href="#path2_fill" transform="translate(-757.077 735.695)" fill="#333333"/>
</g>
<g id="Vector">
<use xlink:href="#path1_fill" transform="translate(-757.077 675.878)" fill="#333333"/>
</g>
<g id="Vector">
<use xlink:href="#path3_fill" transform="translate(-772 636)" fill="#333333"/>
</g>
</g>
<g id="diskette">
<g id="Group">
<g id="Group">
<g id="Vector">
<use xlink:href="#path4_fill" transform="translate(-700.498 705.422)" fill="#333333"/>
<mask id="mask0_outline_ins">
<use xlink:href="#path4_fill" fill="white" transform="translate(-700.498 705.422)"/>
</mask>
<g mask="url(#mask0_outline_ins)">
<use xlink:href="#path5_stroke_2x" transform="translate(-700.498 705.422)" fill="#333333"/>
</g>
</g>
</g>
</g>
</g>
</g>
</g>
</g>
</g>
</g>
<defs>
<path id="path0_fill" d="M 2.48716 4.98489L 39.7935 4.98489C 41.1682 4.98489 42.2806 3.8701 42.2806 2.49245C 42.2806 1.11479 41.1682 -3.47979e-06 39.7935 -3.47979e-06L 2.48716 -3.47979e-06C 1.11243 -3.47979e-06 1.70775e-07 1.11479 1.70775e-07 2.49245C 1.70775e-07 3.8701 1.11243 4.98489 2.48716 4.98489Z"/>
<path id="path1_fill" d="M 2.48716 4.98489L 57.2031 4.98489C 58.5779 4.98489 59.6903 3.8701 59.6903 2.49244C 59.6903 1.11479 58.5779 8.55686e-08 57.2031 8.55686e-08L 2.48716 8.55686e-08C 1.11243 8.55686e-08 1.70775e-07 1.11479 1.70775e-07 2.49244C 1.70775e-07 3.8701 1.11243 4.98489 2.48716 4.98489Z"/>
<path id="path2_fill" d="M 27.3579 -1.82546e-06L 2.48716 -1.82546e-06C 1.11243 -1.82546e-06 1.70775e-07 1.11479 1.70775e-07 2.49245C 1.70775e-07 3.8701 1.11243 4.98489 2.48716 4.98489L 27.3581 4.98489C 28.7328 4.98489 29.8453 3.8701 29.8453 2.49245C 29.845 1.11479 28.7326 -1.82546e-06 27.3579 -1.82546e-06Z"/>
<path id="path3_fill" fill-rule="evenodd" d="M 89.5349 27.416C 89.5349 26.754 89.2726 26.121 88.8062 25.6537L 63.9355 0.730185C 63.4692 0.262867 62.8378 0 62.177 0L 9.94819 0C 4.46416 0 0 4.47107 0 9.96954L 0 109.664C 0 115.163 4.46416 119.634 9.94842 119.634L 71.5017 119.634L 71.5017 114.649L 9.94842 114.649C 7.20385 114.649 4.97433 112.412 4.97433 109.664L 4.97433 9.96954C 4.97433 7.22171 7.20408 4.98489 9.94842 4.98489L 59.6901 4.98489L 59.6901 19.9391C 59.6901 25.4373 64.1542 29.9086 69.6385 29.9086L 84.561 29.9086L 84.561 69.4225L 89.5349 69.4225L 89.5349 27.416ZM 81.044 24.9237L 64.6642 8.50917L 64.6642 19.9391C 64.6642 22.6869 66.8937 24.9237 69.6383 24.9237L 81.044 24.9237Z"/>
<path id="path4_fill" d="M 53.0953 9.12542L 45.3862 1.40494C 44.4816 0.498872 43.2787 0 41.9992 0C 41.0477 0 15.5156 0 14.3697 0L 4.78989 0C 2.14874 0 0 2.15187 0 4.79685L 0 49.7806C 0 52.4256 2.14874 54.5775 4.78989 54.5775C 7.14949 54.5775 47.8545 54.5775 49.7084 54.5775C 52.3495 54.5775 54.4983 52.4256 54.4983 49.7806L 54.4983 12.5172C 54.4983 11.236 54 10.0314 53.0953 9.12542ZM 15.9663 3.1979L 32.1455 3.1979L 32.1455 11.1926C 32.1455 12.0757 32.8603 12.7916 33.7421 12.7916C 34.6239 12.7916 35.3387 12.0757 35.3387 11.1926L 35.3387 3.1979L 38.532 3.1979L 38.532 14.3905C 38.532 15.2722 37.8157 15.9895 36.9354 15.9895L 17.5629 15.9895C 16.6825 15.9895 15.9663 15.2722 15.9663 14.3905L 15.9663 3.1979ZM 41.7252 51.3796L 12.773 51.3796L 12.773 35.3901L 41.7252 35.3901L 41.7252 51.3796ZM 41.7252 32.1922L 12.773 32.1922L 12.773 30.5932C 12.773 29.7116 13.4893 28.9943 14.3697 28.9943L 40.1286 28.9943C 41.009 28.9943 41.7252 29.7116 41.7252 30.5932L 41.7252 32.1922ZM 51.305 49.7806C 51.305 50.6623 50.5888 51.3796 49.7084 51.3796L 44.9185 51.3796L 44.9185 30.5932C 44.9185 27.9482 42.7698 25.7964 40.1286 25.7964L 14.3697 25.7964C 11.7285 25.7964 9.57977 27.9482 9.57977 30.5932L 9.57977 51.3796L 4.78989 51.3796C 3.90951 51.3796 3.19326 50.6623 3.19326 49.7806L 3.19326 4.79685C 3.19326 3.91519 3.90951 3.1979 4.78989 3.1979L 12.773 3.1979L 12.773 14.3905C 12.773 17.0355 14.9218 19.1874 17.5629 19.1874L 36.9354 19.1874C 39.5765 19.1874 41.7252 17.0355 41.7252 14.3905L 41.7252 3.1979L 41.9991 3.1979C 42.4256 3.1979 42.8266 3.36419 43.1281 3.66618L 50.8373 11.3866C 51.1389 11.6886 51.305 12.0902 51.305 12.5172L 51.305 49.7806L 51.305 49.7806Z"/>
<path id="path5_stroke_2x" d="M 53.0953 9.12542L 50.9724 11.2452L 50.9725 11.2453L 53.0953 9.12542ZM 45.3862 1.40494L 43.2632 3.5246L 43.2633 3.52469L 45.3862 1.40494ZM 15.9663 3.1979L 15.9663 0.197898L 12.9663 0.197898L 12.9663 3.1979L 15.9663 3.1979ZM 32.1455 3.1979L 35.1455 3.1979L 35.1455 0.197898L 32.1455 0.197898L 32.1455 3.1979ZM 35.3387 3.1979L 35.3387 0.197898L 32.3387 0.197898L 32.3387 3.1979L 35.3387 3.1979ZM 38.532 3.1979L 41.532 3.1979L 41.532 0.197898L 38.532 0.197898L 38.532 3.1979ZM 41.7252 51.3796L 41.7252 54.3796L 44.7252 54.3796L 44.7252 51.3796L 41.7252 51.3796ZM 12.773 51.3796L 9.77303 51.3796L 9.77303 54.3796L 12.773 54.3796L 12.773 51.3796ZM 12.773 35.3901L 12.773 32.3901L 9.77303 32.3901L 9.77303 35.3901L 12.773 35.3901ZM 41.7252 35.3901L 44.7252 35.3901L 44.7252 32.3901L 41.7252 32.3901L 41.7252 35.3901ZM 41.7252 32.1922L 41.7252 35.1922L 44.7252 35.1922L 44.7252 32.1922L 41.7252 32.1922ZM 12.773 32.1922L 9.77303 32.1922L 9.77303 35.1922L 12.773 35.1922L 12.773 32.1922ZM 44.9185 51.3796L 41.9185 51.3796L 41.9185 54.3796L 44.9185 54.3796L 44.9185 51.3796ZM 9.57977 51.3796L 9.57977 54.3796L 12.5798 54.3796L 12.5798 51.3796L 9.57977 51.3796ZM 12.773 3.1979L 15.773 3.1979L 15.773 0.197898L 12.773 0.197898L 12.773 3.1979ZM 41.7252 3.1979L 41.7252 0.197898L 38.7252 0.197898L 38.7252 3.1979L 41.7252 3.1979ZM 43.1281 3.66618L 45.251 1.54641L 45.251 1.5464L 43.1281 3.66618ZM 50.8373 11.3866L 48.7144 13.5064L 48.7144 13.5064L 50.8373 11.3866ZM 55.2181 7.00567L 47.5091 -0.714807L 43.2633 3.52469L 50.9724 11.2452L 55.2181 7.00567ZM 47.5092 -0.714711C 46.0421 -2.18412 44.0755 -3 41.9992 -3L 41.9992 3C 42.4818 3 42.921 3.18186 43.2632 3.5246L 47.5092 -0.714711ZM 41.9992 -3C 41.0477 -3 15.5156 -3 14.3697 -3L 14.3697 3C 15.5156 3 41.0477 3 41.9992 3L 41.9992 -3ZM 14.3697 -3L 4.78989 -3L 4.78989 3L 14.3697 3L 14.3697 -3ZM 4.78989 -3C 0.487783 -3 -3 0.49912 -3 4.79685L 3 4.79685C 3 3.80461 3.8097 3 4.78989 3L 4.78989 -3ZM -3 4.79685L -3 49.7806L 3 49.7806L 3 4.79685L -3 4.79685ZM -3 49.7806C -3 54.0783 0.487783 57.5775 4.78989 57.5775L 4.78989 51.5775C 3.8097 51.5775 3 50.7729 3 49.7806L -3 49.7806ZM 4.78989 57.5775C 7.14949 57.5775 47.8545 57.5775 49.7084 57.5775L 49.7084 51.5775C 47.8545 51.5775 7.14949 51.5775 4.78989 51.5775L 4.78989 57.5775ZM 49.7084 57.5775C 54.0105 57.5775 57.4983 54.0783 57.4983 49.7806L 51.4983 49.7806C 51.4983 50.7729 50.6886 51.5775 49.7084 51.5775L 49.7084 57.5775ZM 57.4983 49.7806L 57.4983 12.5172L 51.4983 12.5172L 51.4983 49.7806L 57.4983 49.7806ZM 57.4983 12.5172C 57.4983 10.4418 56.685 8.47445 55.218 7.00551L 50.9725 11.2453C 51.3151 11.5883 51.4983 12.0303 51.4983 12.5172L 57.4983 12.5172ZM 15.9663 6.1979L 32.1455 6.1979L 32.1455 0.197898L 15.9663 0.197898L 15.9663 6.1979ZM 29.1455 3.1979L 29.1455 11.1926L 35.1455 11.1926L 35.1455 3.1979L 29.1455 3.1979ZM 29.1455 11.1926C 29.1455 13.7284 31.1994 15.7916 33.7421 15.7916L 33.7421 9.79159C 34.5213 9.79159 35.1455 10.4229 35.1455 11.1926L 29.1455 11.1926ZM 33.7421 15.7916C 36.2848 15.7916 38.3387 13.7284 38.3387 11.1926L 32.3387 11.1926C 32.3387 10.4229 32.9629 9.79159 33.7421 9.79159L 33.7421 15.7916ZM 38.3387 11.1926L 38.3387 3.1979L 32.3387 3.1979L 32.3387 11.1926L 38.3387 11.1926ZM 35.3387 6.1979L 38.532 6.1979L 38.532 0.197898L 35.3387 0.197898L 35.3387 6.1979ZM 35.532 3.1979L 35.532 14.3905L 41.532 14.3905L 41.532 3.1979L 35.532 3.1979ZM 35.532 14.3905C 35.532 13.6195 36.1548 12.9895 36.9354 12.9895L 36.9354 18.9895C 39.4767 18.9895 41.532 16.9249 41.532 14.3905L 35.532 14.3905ZM 36.9354 12.9895L 17.5629 12.9895L 17.5629 18.9895L 36.9354 18.9895L 36.9354 12.9895ZM 17.5629 12.9895C 18.3435 12.9895 18.9663 13.6195 18.9663 14.3905L 12.9663 14.3905C 12.9663 16.9249 15.0216 18.9895 17.5629 18.9895L 17.5629 12.9895ZM 18.9663 14.3905L 18.9663 3.1979L 12.9663 3.1979L 12.9663 14.3905L 18.9663 14.3905ZM 41.7252 48.3796L 12.773 48.3796L 12.773 54.3796L 41.7252 54.3796L 41.7252 48.3796ZM 15.773 51.3796L 15.773 35.3901L 9.77303 35.3901L 9.77303 51.3796L 15.773 51.3796ZM 12.773 38.3901L 41.7252 38.3901L 41.7252 32.3901L 12.773 32.3901L 12.773 38.3901ZM 38.7252 35.3901L 38.7252 51.3796L 44.7252 51.3796L 44.7252 35.3901L 38.7252 35.3901ZM 41.7252 29.1922L 12.773 29.1922L 12.773 35.1922L 41.7252 35.1922L 41.7252 29.1922ZM 15.773 32.1922L 15.773 30.5932L 9.77303 30.5932L 9.77303 32.1922L 15.773 32.1922ZM 15.773 30.5932C 15.773 31.3643 15.1502 31.9943 14.3697 31.9943L 14.3697 25.9943C 11.8283 25.9943 9.77303 28.0588 9.77303 30.5932L 15.773 30.5932ZM 14.3697 31.9943L 40.1286 31.9943L 40.1286 25.9943L 14.3697 25.9943L 14.3697 31.9943ZM 40.1286 31.9943C 39.348 31.9943 38.7252 31.3643 38.7252 30.5932L 44.7252 30.5932C 44.7252 28.0588 42.67 25.9943 40.1286 25.9943L 40.1286 31.9943ZM 38.7252 30.5932L 38.7252 32.1922L 44.7252 32.1922L 44.7252 30.5932L 38.7252 30.5932ZM 48.305 49.7806C 48.305 49.0095 48.9278 48.3796 49.7084 48.3796L 49.7084 54.3796C 52.2497 54.3796 54.305 52.315 54.305 49.7806L 48.305 49.7806ZM 49.7084 48.3796L 44.9185 48.3796L 44.9185 54.3796L 49.7084 54.3796L 49.7084 48.3796ZM 47.9185 51.3796L 47.9185 30.5932L 41.9185 30.5932L 41.9185 51.3796L 47.9185 51.3796ZM 47.9185 30.5932C 47.9185 26.2955 44.4307 22.7964 40.1286 22.7964L 40.1286 28.7964C 41.1088 28.7964 41.9185 29.601 41.9185 30.5932L 47.9185 30.5932ZM 40.1286 22.7964L 14.3697 22.7964L 14.3697 28.7964L 40.1286 28.7964L 40.1286 22.7964ZM 14.3697 22.7964C 10.0676 22.7964 6.57977 26.2955 6.57977 30.5932L 12.5798 30.5932C 12.5798 29.601 13.3895 28.7964 14.3697 28.7964L 14.3697 22.7964ZM 6.57977 30.5932L 6.57977 51.3796L 12.5798 51.3796L 12.5798 30.5932L 6.57977 30.5932ZM 9.57977 48.3796L 4.78989 48.3796L 4.78989 54.3796L 9.57977 54.3796L 9.57977 48.3796ZM 4.78989 48.3796C 5.57047 48.3796 6.19326 49.0095 6.19326 49.7806L 0.193258 49.7806C 0.193258 52.315 2.24855 54.3796 4.78989 54.3796L 4.78989 48.3796ZM 6.19326 49.7806L 6.19326 4.79685L 0.193258 4.79685L 0.193258 49.7806L 6.19326 49.7806ZM 6.19326 4.79685C 6.19326 5.56793 5.57047 6.1979 4.78989 6.1979L 4.78989 0.197898C 2.24855 0.197898 0.193258 2.26244 0.193258 4.79685L 6.19326 4.79685ZM 4.78989 6.1979L 12.773 6.1979L 12.773 0.197898L 4.78989 0.197898L 4.78989 6.1979ZM 9.77303 3.1979L 9.77303 14.3905L 15.773 14.3905L 15.773 3.1979L 9.77303 3.1979ZM 9.77303 14.3905C 9.77303 18.6883 13.2608 22.1874 17.5629 22.1874L 17.5629 16.1874C 16.5827 16.1874 15.773 15.3828 15.773 14.3905L 9.77303 14.3905ZM 17.5629 22.1874L 36.9354 22.1874L 36.9354 16.1874L 17.5629 16.1874L 17.5629 22.1874ZM 36.9354 22.1874C 41.2375 22.1874 44.7252 18.6883 44.7252 14.3905L 38.7252 14.3905C 38.7252 15.3828 37.9155 16.1874 36.9354 16.1874L 36.9354 22.1874ZM 44.7252 14.3905L 44.7252 3.1979L 38.7252 3.1979L 38.7252 14.3905L 44.7252 14.3905ZM 41.7252 6.1979L 41.9991 6.1979L 41.9991 0.197898L 41.7252 0.197898L 41.7252 6.1979ZM 41.9991 6.1979C 41.6288 6.1979 41.2662 6.04722 41.0053 5.78596L 45.251 1.5464C 44.387 0.681157 43.2225 0.197898 41.9991 0.197898L 41.9991 6.1979ZM 41.0053 5.78594L 48.7144 13.5064L 52.9602 9.26688L 45.251 1.54641L 41.0053 5.78594ZM 48.7144 13.5064C 48.4541 13.2457 48.305 12.8848 48.305 12.5172L 54.305 12.5172C 54.305 11.2956 53.8236 10.1315 52.9602 9.26687L 48.7144 13.5064ZM 48.305 12.5172L 48.305 49.7806L 54.305 49.7806L 54.305 12.5172L 48.305 12.5172Z"/>
</defs>
</svg>
