<svg width="128" height="128" viewBox="0 0 128 128" version="1.1" xmlns="http://www.w3.org/2000/svg" xmlns:xlink="http://www.w3.org/1999/xlink">
<title>opensource</title>
<desc>Created using Figma</desc>
<g id="Canvas" transform="translate(911 -789)">
<clipPath id="clip-0" clip-rule="evenodd">
<path d="M -911 789L -783 789L -783 917L -911 917L -911 789Z" fill="#FFFFFF"/>
</clipPath>
<g id="opensource" clip-path="url(#clip-0)">
<g id="Group">
<g id="coding">
<g id="Group">
<g id="Group">
<g id="Vector">
<use xlink:href="#path0_fill" transform="translate(-907 793)" fill="#333333"/>
</g>
</g>
</g>
<g id="Group">
<g id="Group">
<g id="Vector">
<use xlink:href="#path1_fill" transform="translate(-873 849.586)" fill="#333333"/>
</g>
</g>
</g>
<g id="Group">
<g id="Group">
<g id="Vector">
<use xlink:href="#path2_fill" transform="matrix(0.6002 -0.7999 0.7999 0.6002 -854.595 865.801)" fill="#333333"/>
</g>
</g>
</g>
<g id="Group">
<g id="Group">
<g id="Vector">
<use xlink:href="#path3_fill" transform="translate(-832.414 849.586)" fill="#333333"/>
</g>
</g>
</g>
<g id="Group">
<g id="Group">
<g id="Vector">
<use xlink:href="#path4_fill" transform="translate(-875 809)" fill="#333333"/>
</g>
</g>
</g>
<g id="Group">
<g id="Group">
<g id="Vector">
<use xlink:href="#path4_fill" transform="translate(-883 809)" fill="#333333"/>
</g>
</g>
</g>
<g id="Group">
<g id="Group">
<g id="Vector">
<use xlink:href="#path4_fill" transform="translate(-891 809)" fill="#333333"/>
</g>
</g>
</g>
<g id="Group">
<g id="Group">
<g id="Vector">
<use xlink:href="#path4_fill" transform="translate(-899 809)" fill="#333333"/>
</g>
</g>
</g>
<g id="Group">
<g id="Group">
<g id="Vector">
<use xlink:href="#path4_fill" transform="translate(-899 817)" fill="#333333"/>
</g>
</g>
</g>
<g id="Group">
<g id="Group">
<g id="Vector">
<use xlink:href="#path4_fill" transform="translate(-899 825)" fill="#333333"/>
</g>
</g>
</g>
<g id="Group">
<g id="Group">
<g id="Vector">
<use xlink:href="#path4_fill" transform="translate(-899 833)" fill="#333333"/>
</g>
</g>
</g>
<g id="Group">
<g id="Group">
<g id="Vector">
<use xlink:href="#path4_fill" transform="translate(-899 841)" fill="#333333"/>
</g>
</g>
</g>
<g id="Group">
<g id="Group">
<g id="Vector">
<use xlink:href="#path4_fill" transform="translate(-899 849)" fill="#333333"/>
</g>
</g>
</g>
<g id="Group">
<g id="Group">
<g id="Vector">
<use xlink:href="#path4_fill" transform="translate(-899 857)" fill="#333333"/>
</g>
</g>
</g>
<g id="Group">
<g id="Group">
<g id="Vector">
<use xlink:href="#path4_fill" transform="translate(-891 857)" fill="#333333"/>
</g>
</g>
</g>
<g id="Group">
<g id="Group">
<g id="Vector">
<use xlink:href="#path4_fill" transform="translate(-883 857)" fill="#333333"/>
</g>
</g>
</g>
<g id="Group">
<g id="Group">
<g id="Vector">
<use xlink:href="#path4_fill" transform="translate(-815 857)" fill="#333333"/>
</g>
</g>
</g>
<g id="Group">
<g id="Group">
<g id="Vector">
<use xlink:href="#path4_fill" transform="translate(-807 857)" fill="#333333"/>
</g>
</g>
</g>
<g id="Group">
<g id="Group">
<g id="Vector">
<use xlink:href="#path4_fill" transform="translate(-799 857)" fill="#333333"/>
</g>
</g>
</g>
<g id="Group">
<g id="Group">
<g id="Vector">
<use xlink:href="#path4_fill" transform="translate(-799 849)" fill="#333333"/>
</g>
</g>
</g>
<g id="Group">
<g id="Group">
<g id="Vector">
<use xlink:href="#path4_fill" transform="translate(-799 841)" fill="#333333"/>
</g>
</g>
</g>
<g id="Group">
<g id="Group">
<g id="Vector">
<use xlink:href="#path4_fill" transform="translate(-799 833)" fill="#333333"/>
</g>
</g>
</g>
<g id="Group">
<g id="Group">
<g id="Vector">
<use xlink:href="#path4_fill" transform="translate(-799 825)" fill="#333333"/>
</g>
</g>
</g>
<g id="Group">
<g id="Group">
<g id="Vector">
<use xlink:href="#path4_fill" transform="translate(-799 817)" fill="#333333"/>
</g>
</g>
</g>
<g id="Group">
<g id="Group">
<g id="Vector">
<use xlink:href="#path4_fill" transform="translate(-799 809)" fill="#333333"/>
</g>
</g>
</g>
<g id="Group">
<g id="Group">
<g id="Vector">
<use xlink:href="#path4_fill" transform="translate(-807 809)" fill="#333333"/>
</g>
</g>
</g>
<g id="Group">
<g id="Group">
<g id="Vector">
<use xlink:href="#path4_fill" transform="translate(-815 809)" fill="#333333"/>
</g>
</g>
</g>
</g>
<g id="padlock">
<g id="Group">
<g id="Group">
<g id="Vector">
<use xlink:href="#path5_fill" transform="translate(-827.691 811.839)" fill="#333333"/>
</g>
</g>
</g>
<g id="Group">
<g id="Group">
<g id="Vector">
<use xlink:href="#path6_fill" transform="translate(-827.691 824.656)" fill="#333333"/>
</g>
</g>
</g>
<g id="Group">
<g id="Group">
<g id="Vector">
<use xlink:href="#path7_fill" transform="translate(-863.75 801.5)" fill="#333333"/>
</g>
</g>
</g>
<g id="Group">
<g id="Group">
<g id="Vector">
<use xlink:href="#path8_fill" transform="translate(-850.847 827.22)" fill="#333333"/>
</g>
</g>
</g>
<g id="Group">
<g id="Group">
<g id="Vector">
<use xlink:href="#path9_fill" transform="translate(-827.691 819.53)" fill="#333333"/>
</g>
</g>
</g>
</g>
</g>
</g>
</g>
<defs>
<path id="path0_fill" d="M 110 0L 10 0C 4.486 0 0 4.486 0 10L 0 86C 0 91.514 4.486 96 10 96L 49.44 96L 46.44 108L 32 108C 30.894 108 30 108.896 30 110C 30 115.514 34.486 120 40 120L 80 120C 85.514 120 90 115.514 90 110C 90 108.896 89.106 108 88 108L 73.56 108L 70.56 96L 110 96C 115.514 96 120 91.514 120 86L 120 10C 120 4.486 115.514 0 110 0ZM 72 112L 85.658 112C 84.832 114.328 82.608 116 80 116L 40 116C 37.392 116 35.168 114.328 34.342 112L 48 112L 72 112ZM 50.562 108L 53.562 96L 66.438 96L 69.438 108L 50.562 108ZM 116 86C 116 89.308 113.308 92 110 92L 68 92L 52 92L 10 92C 6.692 92 4 89.308 4 86L 4 84L 116 84L 116 86ZM 116 80L 4 80L 4 10C 4 6.692 6.692 4 10 4L 110 4C 113.308 4 116 6.692 116 10L 116 80Z"/>
<path id="path1_fill" d="M 11.4145 2.828L 8.5865 -1.46484e-06L 0.586499 8C -0.195501 8.782 -0.195501 10.046 0.586499 10.828L 8.5865 18.828L 11.4145 16L 4.8285 9.414L 11.4145 2.828Z"/>
<path id="path2_fill" d="M 20.0007 0L 0 0L 0 4.00025L 20.0007 4.00025L 20.0007 0Z"/>
<path id="path3_fill" d="M 10.828 8L 2.828 -1.46484e-06L -1.46484e-06 2.828L 6.586 9.414L -1.46484e-06 16L 2.828 18.828L 10.828 10.828C 11.61 10.046 11.61 8.782 10.828 8Z"/>
<path id="path4_fill" d="M 4 0L 0 0L 0 4L 4 4L 4 0Z"/>
<path id="path5_fill" d="M 7.55534 0.708793C 7.23875 0.0756977 6.46902 -0.180993 5.83576 0.135597L 0.708805 2.69908C 0.0756268 3.01567 -0.180978 3.78557 0.135611 4.41876C 0.452115 5.05185 1.22193 5.30854 1.85519 4.99195L 6.98214 2.42847C 7.61532 2.11188 7.87193 1.34197 7.55534 0.708793Z"/>
<path id="path6_fill" d="M 6.98214 2.69903L 1.85519 0.135538C 1.22235 -0.180881 0.452286 0.0755508 0.135611 0.708732C -0.180978 1.34191 0.0756268 2.11181 0.708805 2.4284L 5.83576 4.99189C 6.46894 5.30848 7.23883 5.05179 7.55534 4.4187C 7.87193 3.78552 7.61532 3.01562 6.98214 2.69903Z"/>
<path id="path7_fill" d="M 29.5653 20.5933L 10.2538 20.5933L 10.2538 14.0991C 10.2538 10.5653 13.1671 7.69037 16.748 7.69037C 20.2817 7.69037 23.1567 10.5653 23.1567 14.0991L 23.1567 16.6626C 23.1567 17.3704 23.7305 17.9443 24.4384 17.9443L 29.5653 17.9443C 30.2732 17.9443 30.8471 17.3704 30.8471 16.6626L 30.8471 14.0991C 30.8471 6.32489 24.5223 4.05823e-12 16.748 4.05823e-12C 8.92662 8.54496e-05 2.56348 6.32489 2.56348 14.0992L 2.56348 20.8138C 1.07162 21.3428 0 22.7675 0 24.4385L 0 39.9048C 0 42.025 1.72496 43.75 3.84521 43.75L 29.5653 43.75C 31.6855 43.75 33.4105 42.025 33.4105 39.9048L 33.4105 24.4385C 33.4105 22.3182 31.6855 20.5933 29.5653 20.5933ZM 5.12695 14.0992C 5.12695 7.7384 10.3402 2.56357 16.748 2.56357C 23.1087 2.56357 28.2835 7.73848 28.2835 14.0992L 28.2835 15.3809L 25.72 15.3809L 25.72 14.0992C 25.72 9.1519 21.6951 5.12706 16.748 5.12706C 11.7861 5.12706 7.69043 9.15344 7.69043 14.0992L 7.69043 20.5933L 5.12695 20.5933L 5.12695 14.0992ZM 30.847 39.9048C 30.847 40.6115 30.272 41.1865 29.5653 41.1865L 3.84521 41.1865C 3.13846 41.1865 2.56348 40.6115 2.56348 39.9048L 2.56348 24.4385C 2.56348 23.7317 3.13846 23.1567 3.84521 23.1567C 5.04048 23.1567 28.53 23.1567 29.5653 23.1567C 30.272 23.1567 30.847 23.7317 30.847 24.4385L 30.847 39.9048Z"/>
<path id="path8_fill" d="M 3.84521 0C 1.72496 0 -6.04987e-07 1.72497 -6.04987e-07 3.84523C -6.04987e-07 5.5162 1.07162 6.9409 2.56348 7.47L 2.56348 11.6211C 2.56348 12.329 3.13735 12.9029 3.84521 12.9029C 4.55308 12.9029 5.12695 12.329 5.12695 11.6211L 5.12695 7.47C 6.61881 6.9409 7.69043 5.5162 7.69043 3.84523C 7.69043 1.72497 5.96547 0 3.84521 0ZM 3.84521 5.12689C 3.13846 5.12689 2.56348 4.5519 2.56348 3.84514C 2.56348 3.13839 3.13846 2.5634 3.84521 2.5634C 4.55196 2.5634 5.12695 3.13839 5.12695 3.84514C 5.12695 4.5519 4.55196 5.12689 3.84521 5.12689Z"/>
<path id="path9_fill" d="M 6.40869 0L 1.28174 0C 0.573878 0 7.92742e-07 0.573879 7.92742e-07 1.28174C 7.92742e-07 1.98961 0.573878 2.56349 1.28174 2.56349L 6.40869 2.56349C 7.11655 2.56349 7.69043 1.98961 7.69043 1.28174C 7.69043 0.573879 7.11655 0 6.40869 0Z"/>
</defs>
</svg>
