<svg width="407" height="476" viewBox="0 0 407 476" fill="none" xmlns="http://www.w3.org/2000/svg">
<path d="M49.1 1.59998C24.6 8.19998 6.9 30.2 5.3 55.9C4.3 72.4 9.8 88.1 20.9 100.2C26.3 106 35 113 37 113C37.4 113 38.9 109.9 40.4 106C45.2 94 54.8 79.2 64.9 68.5C76.2 56.5 94.5 42.9 107.7 36.5C111.1 34.8 113.9 32.9 113.9 32.2C114 29.7 107 20.2 100.9 14.6C94.3 8.49998 83.5 2.79998 75.2 1.09998C68 -0.400023 55.6 -0.200023 49.1 1.59998Z" fill="black"/>
<path d="M317 1.59998C308.9 3.69998 300.2 8.29998 294.1 13.7C288.4 18.7 280 29.3 280 31.5C280 32.2 284.6 35.4 290.3 38.5C318.1 54.1 340 76.8 352.1 102.4C354.2 107 356 111.3 356 111.9C356 112.5 356.4 113 356.8 113C358.9 113 367.4 106.3 373.1 100.3C386.2 86.2 391.6 66.1 387.5 46.7C382.8 24.6 364.2 5.49998 343.2 1.09998C336 -0.400023 323.7 -0.200023 317 1.59998Z" fill="black"/>
<path d="M121.2 112.1C105.2 120 94 142.8 96.7 161.7C99.3 179.8 110.7 190.2 124.5 187.1C151.9 181 166.4 134.1 146.8 115.3C139.5 108.3 130.9 107.2 121.2 112.1ZM137.6 140C146.5 144.4 147.4 155.6 139.4 161.9C136 164.6 129.6 164.7 125.3 162C116.3 156.5 117.5 143.9 127.5 139.4C131.6 137.6 132.7 137.7 137.6 140Z" fill="black"/>
<path d="M260.4 111.5C252 115.7 247.2 124.3 246.3 136.6C245.1 151.5 250.8 167 261.1 177.3C274.7 190.9 290.3 191 299.4 177.6C303.8 171.1 305.3 165.5 305.2 155.5C304.9 132 289.3 110.8 271.1 109.3C266.5 108.9 264.6 109.3 260.4 111.5ZM274.4 139.4C287.8 145 283.8 164 269.1 164C265.4 164 264.2 163.4 260.9 160.1C257.6 156.8 257 155.6 257 151.9C257 146.4 259.7 141.9 264.1 139.7C268.3 137.7 270.1 137.6 274.4 139.4Z" fill="black"/>
<path d="M193.7 165.1C187.1 166.1 181.5 170 180 174.5C179 177.5 179.1 178.5 180.7 181.3C181.8 183 184.6 185.6 187.1 187C193.2 190.5 204.6 190.5 210.6 187.1C218 182.9 220 176.5 215.5 171.1C211.3 166.2 202.2 163.7 193.7 165.1Z" fill="black"/>
<path d="M166 201.4C166 204.2 174.6 215.5 179.4 219.1C185.4 223.6 191.6 225.6 199.5 225.3C211.1 225 220.9 219.3 230.1 207.7C232.3 205 234 202.2 234 201.4C234 199 231.1 199.9 229.6 202.8C227.3 207.2 218.8 215.3 213 218.4C203.3 223.7 190.6 223.1 182.2 217C178.3 214.2 171.1 205.4 169.7 201.7C168.9 199.7 166 199.4 166 201.4Z" fill="black"/>
<path d="M312.5 243.5C291.6 260.9 257.3 275 224.4 279.5C209.4 281.6 176.2 281.1 162.5 278.6C136.2 273.8 108.8 262.8 90 249.5L83.5 245L79.7 249.2C77.6 251.5 73.4 257.1 70.5 261.5C57.7 280.8 52.6 299.6 55 319.4C58.3 346.7 70.3 372.5 87.3 388.7C99.8 400.6 110.3 404.3 125.9 402.3C145.5 399.8 156.5 390.5 156.5 376.4C156.5 371.2 156 369.5 152.9 364.4C143.4 348.9 138.7 336.2 138.6 325.5C138.5 316.9 140.2 312.7 144.9 309.8L148.5 307.5L200.1 307.6C249.5 307.8 251.9 307.9 256.3 309.8C268.9 315.4 267.2 335.5 252 362C249.3 366.7 246.8 372.3 246.4 374.5C244.2 388.8 257 400.6 277.2 403.1C287.7 404.4 294.1 403.3 303.2 398.8C310.4 395.1 321.7 384.5 327.7 375.5C344.8 350 352.6 314.9 346.2 291.9C342 276.7 332 259.1 320.3 246.3L315.5 241L312.5 243.5Z" fill="black"/>
<path d="M57.6 381C53.2 390.2 49.5 393.9 41.3 397.1C36.2 399.1 33.8 399.3 21 399.3C5.1 399.2 1.5 400.1 0.399998 404.6C-1.9 413.7 9.7 441.3 23.1 458.6C28.2 465.3 36.3 471.6 42.5 473.7C48.3 475.6 65.9 475.2 100.5 472.1C112.6 471 125.8 469.8 129.8 469.5C133.7 469.1 137 468.5 136.9 468.2C136.9 467.8 133.9 465.2 130.4 462.5C126.8 459.7 119.2 452.7 113.6 446.9C96.7 429.5 83.6 411.5 68.9 385.5C65 378.6 61.8 373 61.7 373C61.5 373 59.7 376.6 57.6 381Z" fill="black"/>
<path d="M340.2 381.3C321.6 416.6 301.9 441.2 271.7 467L268.8 469.6L302.3 472.4C320.7 474 341.8 475.3 349.1 475.4C361.4 475.5 362.9 475.3 367.5 473.1C380.4 466.7 395.9 444.3 404 420.1C407.3 410.4 407.5 408.3 405.9 404.7C403.9 400.2 401.5 399.6 387 399.9C364 400.2 356.3 396.5 348.7 381.4L344.5 373.1L340.2 381.3Z" fill="black"/>
</svg>
