<svg width="256" height="256" viewBox="0 0 256 256" version="1.1" xmlns="http://www.w3.org/2000/svg" xmlns:xlink="http://www.w3.org/1999/xlink">
<title>pollygot-icon</title>
<desc>Created using Figma</desc>
<g id="Canvas" transform="translate(5176 -325)">
<clipPath id="clip-0" clip-rule="evenodd">
<path d="M -5176 325L -4920 325L -4920 581L -5176 581L -5176 325Z" fill="#FFFFFF"/>
</clipPath>
<g id="pollygot-icon" clip-path="url(#clip-0)">
<g id="Group" filter="url(#filter0_d)">
<g id="Vector">
<use xlink:href="#path0_fill" transform="translate(-5008.57 367.189)" fill="#ECC31C"/>
</g>
<g id="Vector">
<use xlink:href="#path1_fill" transform="translate(-5113 352)" fill="url(#paint1_linear)"/>
</g>
<g id="Vector">
<use xlink:href="#path2_fill" transform="translate(-5113 417.207)" fill="url(#paint2_linear)"/>
</g>
<g id="Vector">
<use xlink:href="#path3_fill" transform="translate(-5053.27 371.66)" fill="#FFFFFF"/>
</g>
</g>
</g>
</g>
<defs>
<filter id="filter0_d" filterUnits="userSpaceOnUse" x="-5123" y="342" width="162" height="236" color-interpolation-filters="sRGB">
<feFlood flood-opacity="0" result="BackgroundImageFix"/>
<feColorMatrix in="SourceAlpha" type="matrix" values="0 0 0 0 0 0 0 0 0 0 0 0 0 0 0 0 0 0 255 0"/>
<feOffset dx="0" dy="0"/>
<feGaussianBlur stdDeviation="5"/>
<feColorMatrix type="matrix" values="0 0 0 0 0 0 0 0 0 0 0 0 0 0 0 0 0 0 0.1 0"/>
<feBlend mode="normal" in2="BackgroundImageFix" result="effect1_dropShadow"/>
<feBlend mode="normal" in="SourceGraphic" in2="effect1_dropShadow" result="shape"/>
</filter>
<linearGradient id="paint1_linear" x1="0" y1="0" x2="1" y2="0" gradientUnits="userSpaceOnUse" gradientTransform="matrix(5.89548e-15 159.744 -96.2805 9.78152e-15 96.2805 -9.78152e-15)">
<stop offset="0" stop-color="#55A14F"/>
<stop offset="1" stop-color="#3F8D42"/>
</linearGradient>
<linearGradient id="paint2_linear" x1="0" y1="0" x2="1" y2="0" gradientUnits="userSpaceOnUse" gradientTransform="matrix(2.57726e-15 149.793 -42.0898 9.17218e-15 42.0898 -9.17218e-15)">
<stop offset="0" stop-color="#55A14F"/>
<stop offset="1" stop-color="#3F8D42"/>
</linearGradient>
<path id="path0_fill" d="M 9.99635 -7.99182e-06L -3.2112e-05 -7.99182e-06L -3.2112e-05 32.2107L -3.2112e-05 43.9951L 36.5656 43.9951L 36.5656 26.4495C 36.5656 11.7844 24.7278 -7.99182e-06 9.99635 -7.99182e-06Z"/>
<path id="path1_fill" d="M 71.5527 3.99591e-06C 70.7635 3.99591e-06 69.9743 3.99591e-06 69.1851 3.99591e-06L 48.4033 3.99591e-06C 21.571 3.99591e-06 1.6056e-05 21.4738 1.6056e-05 48.1852L 1.6056e-05 53.4227L 4.99817 56.3033C 34.198 72.5396 52.3492 104.75 52.3492 140.365C 52.3492 142.722 52.3492 145.079 52.0861 147.174C 51.8231 149.531 51.56 152.15 51.297 154.769L 51.297 155.031C 51.0339 156.602 50.7708 158.173 50.5078 159.744C 76.0247 158.435 96.2805 137.485 96.2805 111.821L 96.2805 80.3959L 96.2805 59.184L 96.2805 16.4982C 96.2805 14.9269 95.7543 3.99591e-06 71.5527 3.99591e-06Z"/>
<path id="path2_fill" d="M 1.6056e-05 7.99182e-06L 1.6056e-05 94.0134L 1.6056e-05 149.793C 10.2594 144.032 18.9404 136.175 26.0431 126.224C 33.6719 115.225 38.9331 102.132 41.0376 87.7284C 41.0376 87.7284 41.0376 87.7284 41.0376 87.4665C 41.3007 85.3715 41.5637 83.0147 41.8268 80.6578C 41.8268 78.5628 42.0898 76.7296 42.0898 74.6346C 41.8268 42.162 24.7278 13.6176 1.6056e-05 7.99182e-06Z"/>
<path id="path3_fill" d="M 12.3449 0.242982C 4.97919 -1.32827 -1.3343 4.95674 0.244066 12.2893C 1.03325 15.9555 3.92697 18.8362 7.60983 19.6218C 14.9756 21.1931 21.289 14.908 19.7106 7.57552C 19.1845 4.17113 16.0278 1.29049 12.3449 0.242982Z"/>
</defs>
</svg>
