<svg width="903" height="256" viewBox="0 0 903 256" version="1.1" xmlns="http://www.w3.org/2000/svg" xmlns:xlink="http://www.w3.org/1999/xlink">
<title>pollygot-logo</title>
<desc>Created using Figma</desc>
<g id="Canvas" transform="translate(4393 77)">
<clipPath id="clip-0" clip-rule="evenodd">
<path d="M -4393 -77L -3490 -77L -3490 179L -4393 179L -4393 -77Z" fill="#FFFFFF"/>
</clipPath>
<g id="pollygot-logo" clip-path="url(#clip-0)">
<g id="Group">
<g id="Vector">
<use xlink:href="#path0_fill" transform="translate(-4268.72 -58.9147)" fill="#ECC31C"/>
</g>
<g id="Vector">
<use xlink:href="#path1_fill" transform="translate(-4393 -77)" fill="#3F8D42"/>
</g>
<g id="Vector">
<use xlink:href="#path2_fill" transform="translate(-4393 0.641838)" fill="#3F8D42"/>
</g>
<g id="Vector">
<use xlink:href="#path3_fill" transform="translate(-4321.91 -53.5914)" fill="#FFFFFF"/>
</g>
</g>
<g id="Pollygot">
<use xlink:href="#path4_fill" transform="translate(-4166 -77)" fill="#333333"/>
</g>
</g>
</g>
<defs>
<path id="path0_fill" d="M 11.8962 -9.51584e-06L -3.82151e-05 -9.51584e-06L -3.82151e-05 38.3532L -3.82151e-05 52.3849L 43.5152 52.3849L 43.5152 31.4933C 43.5152 14.0317 29.4275 -9.51584e-06 11.8962 -9.51584e-06Z"/>
<path id="path1_fill" d="M 85.1519 4.75792e-06C 84.2127 4.75792e-06 83.2735 4.75792e-06 82.3344 4.75792e-06L 57.6028 4.75792e-06C 25.6708 4.75792e-06 1.91076e-05 25.5688 1.91076e-05 57.374L 1.91076e-05 63.6103L 5.94811 67.0402C 40.6976 86.3728 62.2986 124.726 62.2986 167.133C 62.2986 169.939 62.2986 172.746 61.9856 175.24C 61.6725 178.046 61.3595 181.165 61.0464 184.283L 61.0464 184.595C 60.7334 186.465 60.4202 188.336 60.1072 190.207C 90.4739 188.648 114.579 163.703 114.579 133.145L 114.579 95.7272L 114.579 70.4702L 114.579 19.6443C 114.579 17.7734 113.953 4.75792e-06 85.1519 4.75792e-06Z"/>
<path id="path2_fill" d="M 1.91076e-05 9.51584e-06L 1.91076e-05 111.942L 1.91076e-05 178.358C 12.2093 171.498 22.5402 162.144 30.9928 150.295C 40.0715 137.199 46.3327 121.608 48.8372 104.458C 48.8372 104.458 48.8372 104.458 48.8372 104.146C 49.1502 101.652 49.4632 98.8454 49.7763 96.039C 49.7763 93.5445 50.0894 91.3618 50.0894 88.8673C 49.7763 50.2022 29.4275 16.2144 1.91076e-05 9.51584e-06Z"/>
<path id="path3_fill" d="M 14.6912 0.289319C 5.92552 -1.58157 -1.5879 5.90198 0.290453 14.6328C 1.22963 18.9982 4.67333 22.4282 9.05615 23.3636C 17.8218 25.2345 25.3351 17.751 23.4568 9.02015C 22.8306 4.96655 19.074 1.53658 14.6912 0.289319Z"/>
<path id="path4_fill" d="M 36.8 128.32L 36.8 168L 9.44 168L 9.44 54.88L 53.76 54.88C 67.2 54.88 77.44 58.24 84.48 64.96C 91.52 71.5733 95.04 80.5333 95.04 91.84C 95.04 98.88 93.44 105.173 90.24 110.72C 87.1467 116.16 82.5067 120.48 76.32 123.68C 70.1333 126.773 62.6133 128.32 53.76 128.32L 36.8 128.32ZM 50.72 106.4C 61.7067 106.4 67.2 101.547 67.2 91.84C 67.2 81.92 61.7067 76.96 50.72 76.96L 36.8 76.96L 36.8 106.4L 50.72 106.4ZM 150.262 77.6C 159.116 77.6 167.009 79.4667 173.942 83.2C 180.982 86.8267 186.476 92.1067 190.423 99.04C 194.476 105.973 196.502 114.08 196.502 123.36C 196.502 132.64 194.476 140.747 190.423 147.68C 186.476 154.613 180.982 159.947 173.942 163.68C 167.009 167.307 159.116 169.12 150.262 169.12C 141.409 169.12 133.463 167.307 126.422 163.68C 119.382 159.947 113.836 154.613 109.782 147.68C 105.836 140.747 103.862 132.64 103.862 123.36C 103.862 114.08 105.836 105.973 109.782 99.04C 113.836 92.1067 119.382 86.8267 126.422 83.2C 133.463 79.4667 141.409 77.6 150.262 77.6ZM 150.262 101.28C 145.036 101.28 140.609 103.2 136.983 107.04C 133.463 110.773 131.702 116.213 131.702 123.36C 131.702 130.507 133.463 135.947 136.983 139.68C 140.609 143.413 145.036 145.28 150.262 145.28C 155.489 145.28 159.862 143.413 163.382 139.68C 166.902 135.947 168.662 130.507 168.662 123.36C 168.662 116.213 166.902 110.773 163.382 107.04C 159.862 103.2 155.489 101.28 150.262 101.28ZM 238.05 49.6L 238.05 168L 210.69 168L 210.69 49.6L 238.05 49.6ZM 284.3 49.6L 284.3 168L 256.94 168L 256.94 49.6L 284.3 49.6ZM 323.83 78.72L 345.27 133.44L 365.27 78.72L 395.51 78.72L 339.83 210.56L 309.75 210.56L 330.71 164.64L 293.27 78.72L 323.83 78.72ZM 438.516 77.6C 445.343 77.6 451.21 79.1467 456.116 82.24C 461.023 85.3333 464.65 89.5467 466.996 94.88L 466.996 78.72L 494.196 78.72L 494.196 167.52C 494.196 175.84 492.596 183.307 489.396 189.92C 486.196 196.64 481.29 201.973 474.676 205.92C 468.063 209.867 459.85 211.84 450.036 211.84C 436.596 211.84 425.823 208.64 417.716 202.24C 409.716 195.947 404.916 187.36 403.316 176.48L 430.356 176.48C 431.21 180.107 433.13 182.933 436.116 184.96C 439.21 186.987 443.21 188 448.116 188C 453.77 188 458.303 186.347 461.716 183.04C 465.236 179.84 466.996 174.667 466.996 167.52L 466.996 151.84C 464.65 157.173 461.023 161.387 456.116 164.48C 451.21 167.573 445.343 169.12 438.516 169.12C 431.156 169.12 424.543 167.307 418.676 163.68C 412.916 159.947 408.33 154.613 404.916 147.68C 401.61 140.747 399.956 132.64 399.956 123.36C 399.956 113.973 401.61 105.867 404.916 99.04C 408.33 92.1067 412.916 86.8267 418.676 83.2C 424.543 79.4667 431.156 77.6 438.516 77.6ZM 447.316 101.6C 441.45 101.6 436.703 103.52 433.076 107.36C 429.556 111.2 427.796 116.533 427.796 123.36C 427.796 130.187 429.556 135.52 433.076 139.36C 436.703 143.2 441.45 145.12 447.316 145.12C 453.076 145.12 457.77 143.147 461.396 139.2C 465.13 135.253 466.996 129.973 466.996 123.36C 466.996 116.64 465.13 111.36 461.396 107.52C 457.77 103.573 453.076 101.6 447.316 101.6ZM 554.794 77.6C 563.647 77.6 571.54 79.4667 578.474 83.2C 585.514 86.8267 591.007 92.1067 594.954 99.04C 599.007 105.973 601.034 114.08 601.034 123.36C 601.034 132.64 599.007 140.747 594.954 147.68C 591.007 154.613 585.514 159.947 578.474 163.68C 571.54 167.307 563.647 169.12 554.794 169.12C 545.94 169.12 537.994 167.307 530.954 163.68C 523.914 159.947 518.367 154.613 514.314 147.68C 510.367 140.747 508.394 132.64 508.394 123.36C 508.394 114.08 510.367 105.973 514.314 99.04C 518.367 92.1067 523.914 86.8267 530.954 83.2C 537.994 79.4667 545.94 77.6 554.794 77.6ZM 554.794 101.28C 549.567 101.28 545.14 103.2 541.514 107.04C 537.994 110.773 536.234 116.213 536.234 123.36C 536.234 130.507 537.994 135.947 541.514 139.68C 545.14 143.413 549.567 145.28 554.794 145.28C 560.02 145.28 564.394 143.413 567.914 139.68C 571.434 135.947 573.194 130.507 573.194 123.36C 573.194 116.213 571.434 110.773 567.914 107.04C 564.394 103.2 560.02 101.28 554.794 101.28ZM 665.781 144.48L 665.781 168L 653.461 168C 643.008 168 634.848 165.44 628.981 160.32C 623.221 155.093 620.341 146.507 620.341 134.56L 620.341 101.76L 608.341 101.76L 608.341 78.72L 620.341 78.72L 620.341 56.8L 647.701 56.8L 647.701 78.72L 665.621 78.72L 665.621 101.76L 647.701 101.76L 647.701 135.04C 647.701 138.56 648.395 141.013 649.781 142.4C 651.275 143.787 653.728 144.48 657.141 144.48L 665.781 144.48Z"/>
</defs>
</svg>
