<svg width="256" height="256" viewBox="0 0 256 256" version="1.1" xmlns="http://www.w3.org/2000/svg" xmlns:xlink="http://www.w3.org/1999/xlink">
<title>pollygot-reader-icon</title>
<desc>Created using Figma</desc>
<g id="Canvas" transform="translate(5176 -959)">
<clipPath id="clip-0" clip-rule="evenodd">
<path d="M -5176 959L -4920 959L -4920 1215L -5176 1215L -5176 959Z" fill="#FFFFFF"/>
</clipPath>
<g id="pollygot-reader-icon" clip-path="url(#clip-0)">
<g id="Group 2.1" filter="url(#filter0_d)">
<g id="Group">
<g id="Vector">
<use xlink:href="#path0_fill" transform="translate(-5020.52 1162.26)" fill="#ECC31C"/>
</g>
</g>
<g id="Vector">
<use xlink:href="#path1_fill" transform="translate(-5136 989)" fill="url(#paint1_linear)"/>
</g>
<g id="Group">
<g id="Vector">
<use xlink:href="#path2_fill" transform="translate(-5073.21 1045.58)" fill="#FFFFFF"/>
</g>
</g>
<g id="Group">
<g id="Vector">
<use xlink:href="#path3_fill" transform="translate(-4988.97 989)" fill="#ECC31C"/>
</g>
</g>
<g id="Vector">
<use xlink:href="#path4_fill" transform="translate(-5037.86 1004.69)" fill="#FFFFFF"/>
</g>
</g>
</g>
</g>
<defs>
<filter id="filter0_d" filterUnits="userSpaceOnUse" x="-5146" y="979" width="198" height="215" color-interpolation-filters="sRGB">
<feFlood flood-opacity="0" result="BackgroundImageFix"/>
<feColorMatrix in="SourceAlpha" type="matrix" values="0 0 0 0 0 0 0 0 0 0 0 0 0 0 0 0 0 0 255 0"/>
<feOffset dx="0" dy="0"/>
<feGaussianBlur stdDeviation="5"/>
<feColorMatrix type="matrix" values="0 0 0 0 0 0 0 0 0 0 0 0 0 0 0 0 0 0 0.1 0"/>
<feBlend mode="normal" in2="BackgroundImageFix" result="effect1_dropShadow"/>
<feBlend mode="normal" in="SourceGraphic" in2="effect1_dropShadow" result="shape"/>
</filter>
<linearGradient id="paint1_linear" x1="0" y1="0" x2="1" y2="0" gradientUnits="userSpaceOnUse" gradientTransform="matrix(8.50046e-15 194.68 -138.823 1.19207e-14 138.823 -1.19207e-14)">
<stop offset="0" stop-color="#288FE0"/>
<stop offset="1" stop-color="#1B75BC"/>
</linearGradient>
<path id="path0_fill" d="M 0 21.7377L 44.171 21.7377L 22.7165 3.90224e-05C 16.7219 8.95085 8.8342 16.3033 0 21.7377Z"/>
<path id="path1_fill" d="M 81.7163 0C 79.8233 0 77.9303 1.95065e-05 76.0372 0.319691C 75.7217 0.319691 75.4062 0.319691 75.0907 0.319691C 46.0641 3.83608 23.663 28.4508 23.663 58.4999L 23.663 90.1475L 23.663 138.418C 23.3475 140.336 23.3475 142.574 23.3475 145.451C 23.3475 161.115 19.5615 171.983 14.8289 179.656C 8.2032 190.844 -1.9257e-05 194.68 -1.9257e-05 194.68L 23.3475 194.68L 57.4223 194.68L 75.7217 194.68L 80.7698 194.68C 112.952 194.68 138.823 168.467 138.823 135.861L 138.823 97.4999L 138.823 65.8524L 138.823 0L 81.7163 0Z"/>
<path id="path2_fill" d="M 18.2994 122.434C 41.647 122.434 60.5774 103.254 60.5774 79.5983L 60.5774 41.2377L 60.5774 9.59019L 60.5774 3.90224e-05L 58.6843 3.90224e-05C 56.7913 3.90224e-05 54.8983 -3.90367e-05 53.0052 0.319633C 52.6897 0.319633 52.3741 0.319633 52.0586 0.319633C 22.7165 3.83602 -3.85141e-05 28.7705 -3.85141e-05 59.1393L -3.85141e-05 91.1065L -3.85141e-05 122.115L 13.2513 122.115L 18.2994 122.115L 18.2994 122.434Z"/>
<path id="path3_fill" d="M 0 30.3688L 29.9732 0L 0 0L 0 30.3688Z"/>
<path id="path4_fill" d="M 14.8061 0.296608C 5.97191 -1.62142 -1.60028 6.05072 0.292764 15.0015C 1.23928 19.4769 4.70982 22.9933 9.12692 23.9523C 17.9611 25.8703 25.5333 18.1982 23.6403 9.24738C 22.6938 5.09165 19.2232 1.5753 14.8061 0.296608Z"/>
</defs>
</svg>
