<svg width="128" height="128" viewBox="0 0 128 128" version="1.1" xmlns="http://www.w3.org/2000/svg" xmlns:xlink="http://www.w3.org/1999/xlink">
<title>roadmap</title>
<desc>Created using Figma</desc>
<g id="Canvas" transform="translate(1049 -789)">
<clipPath id="clip-0" clip-rule="evenodd">
<path d="M -1049 789L -921 789L -921 917L -1049 917L -1049 789Z" fill="#FFFFFF"/>
</clipPath>
<g id="roadmap" clip-path="url(#clip-0)">
<g id="calendar(1)">
<g id="Group">
<g id="Vector">
<use xlink:href="#path0_fill" transform="translate(-1047 792)" fill="#333333"/>
</g>
<g id="Vector">
<use xlink:href="#path1_fill" transform="translate(-993.552 792)" fill="#333333"/>
</g>
<g id="Vector">
<use xlink:href="#path1_fill" transform="translate(-980.724 792)" fill="#333333"/>
</g>
<g id="Vector">
<use xlink:href="#path2_fill" transform="translate(-1029.9 841.228)" fill="#333333"/>
</g>
<g id="Vector">
<use xlink:href="#path3_fill" transform="translate(-976.448 875.474)" fill="#333333"/>
</g>
<g id="Vector">
<use xlink:href="#path4_fill" transform="translate(-1029.9 858.351)" fill="#333333"/>
</g>
<g id="Vector">
<use xlink:href="#path5_fill" transform="translate(-965.759 892.596)" fill="#333333"/>
</g>
<g id="Vector">
<use xlink:href="#path6_fill" transform="translate(-987.138 858.351)" fill="#333333"/>
</g>
<g id="Vector">
<use xlink:href="#path7_fill" transform="translate(-997.828 858.378)" fill="#333333"/>
</g>
<g id="Vector">
<use xlink:href="#path6_fill" transform="translate(-1019.21 875.474)" fill="#333333"/>
</g>
<g id="Vector">
<use xlink:href="#path8_fill" transform="translate(-1029.9 875.503)" fill="#333333"/>
</g>
<g id="Vector">
<use xlink:href="#path9_fill" transform="translate(-944.379 858.378)" fill="#333333"/>
</g>
<g id="Vector">
<use xlink:href="#path10_fill" transform="translate(-1029.9 892.596)" fill="#333333"/>
</g>
</g>
</g>
</g>
</g>
<defs>
<path id="path0_fill" fill-rule="evenodd" d="M 91.7151 8.5614C 90.721 3.68354 86.4045 0 81.2414 0C 80.0612 0 79.1035 0.956737 79.1035 2.14035C 79.1035 3.32396 80.0612 4.2807 81.2414 4.2807C 84.7775 4.2807 87.6552 7.16161 87.6552 10.7018C 87.6552 14.2419 84.7775 17.1228 81.2414 17.1228C 80.0612 17.1228 79.1035 18.0795 79.1035 19.2632C 79.1035 20.4468 80.0612 21.4035 81.2414 21.4035C 86.4023 21.4035 90.721 17.72 91.7151 12.8421L 119.724 12.8421L 119.724 32.1053L 4.27586 32.1053L 4.27586 12.8421L 34.2069 12.8421L 40.6207 12.8421C 41.8008 12.8421 42.7586 11.8854 42.7586 10.7018C 42.7586 9.51814 41.8008 8.5614 40.6207 8.5614L 36.7382 8.5614C 37.6233 6.07432 39.975 4.2807 42.7586 4.2807C 46.2948 4.2807 49.1724 7.16161 49.1724 10.7018C 49.1724 14.2419 46.2948 17.1228 42.7586 17.1228C 41.5785 17.1228 40.6207 18.0795 40.6207 19.2632C 40.6207 20.4468 41.5785 21.4035 42.7586 21.4035C 48.6529 21.4035 53.4483 16.6027 53.4483 10.7018C 53.4483 4.80081 48.6529 0 42.7586 0C 37.5977 0 33.279 3.68354 32.2849 8.5614L 4.27586 8.5614C 1.58389 8.97601 0.518409 9.75525 0 12.8421L 0 36.386L 0 117.719C 0.234224 120.913 1.26017 121.756 4.27586 122L 119.724 122C 122.986 121.661 123.744 120.575 124 117.719L 124 36.386L 124 12.8421C 123.703 9.62878 122.719 8.74469 119.724 8.5614L 91.7151 8.5614ZM 4.27586 117.719L 119.724 117.719L 119.724 36.386L 4.27586 36.386L 4.27586 117.719Z"/>
<path id="path1_fill" d="M 2.13793 4.2807C 5.67407 4.2807 8.55172 7.16161 8.55172 10.7018C 8.55172 14.2419 5.67407 17.1228 2.13793 17.1228C 0.957793 17.1228 0 18.0795 0 19.2632C 0 20.4468 0.957793 21.4035 2.13793 21.4035C 8.03221 21.4035 12.8276 16.6027 12.8276 10.7018C 12.8276 4.80081 8.03221 0 2.13793 0C 0.957793 0 0 0.956737 0 2.14035C 0 3.32396 0.957793 4.2807 2.13793 4.2807Z"/>
<path id="path2_fill" d="M 2.13793 4.2807L 49.1724 4.2807C 50.3525 4.2807 51.3103 3.32396 51.3103 2.14035C 51.3103 0.956737 50.3525 0 49.1724 0L 2.13793 0C 0.957793 0 0 0.956737 0 2.14035C 0 3.32396 0.957793 4.2807 2.13793 4.2807Z"/>
<path id="path3_fill" d="M 34.2069 0L 2.13793 0C 0.957793 0 0 0.956737 0 2.14035C 0 3.32396 0.957793 4.2807 2.13793 4.2807L 34.2069 4.2807C 35.387 4.2807 36.3448 3.32396 36.3448 2.14035C 36.3448 0.956737 35.387 0 34.2069 0Z"/>
<path id="path4_fill" d="M 2.13793 4.2807L 23.5172 4.2807C 24.6974 4.2807 25.6552 3.32396 25.6552 2.14035C 25.6552 0.956737 24.6974 0 23.5172 0L 2.13793 0C 0.957793 0 0 0.956737 0 2.14035C 0 3.32396 0.957793 4.2807 2.13793 4.2807Z"/>
<path id="path5_fill" d="M 23.5172 0L 2.13793 0C 0.957793 0 0 0.956737 0 2.14035C 0 3.32396 0.957793 4.2807 2.13793 4.2807L 23.5172 4.2807C 24.6974 4.2807 25.6552 3.32396 25.6552 2.14035C 25.6552 0.956737 24.6974 0 23.5172 0Z"/>
<path id="path6_fill" d="M 0 2.14035C 0 3.32396 0.957793 4.2807 2.13793 4.2807L 34.2069 4.2807C 35.387 4.2807 36.3448 3.32396 36.3448 2.14035C 36.3448 0.956737 35.387 0 34.2069 0L 2.13793 0C 0.957793 0 0 0.956737 0 2.14035Z"/>
<path id="path7_fill" d="M 3.65586 3.63324C 4.04069 3.22658 4.27586 2.67009 4.27586 2.1136C 4.27586 1.55496 4.04069 0.998476 3.65586 0.593949C 2.86483 -0.19798 1.41104 -0.19798 0.620002 0.593949C 0.235174 0.998476 0 1.55496 0 2.1136C 0 2.67009 0.235174 3.22658 0.620002 3.63324C 1.02621 4.03777 1.58207 4.25395 2.13793 4.25395C 2.69379 4.25395 3.24965 4.03777 3.65586 3.63324Z"/>
<path id="path8_fill" d="M 2.13793 4.2513C 2.69379 4.2513 3.24966 4.01586 3.65586 3.63059C 4.04069 3.22393 4.27586 2.66744 4.27586 2.11095C 4.27586 1.55232 4.04069 0.995823 3.65586 0.612701C 2.86483 -0.200633 1.41103 -0.200629 0.62 0.591301C 0.235172 0.995827 0 1.55232 0 2.11095C 0 2.66744 0.235172 3.22393 0.62 3.63059C 1.02621 4.01586 1.56069 4.2513 2.13793 4.2513Z"/>
<path id="path9_fill" d="M 2.13793 4.25395C 2.69379 4.25395 3.24965 4.03777 3.65586 3.63324C 4.06207 3.22658 4.27586 2.67009 4.27586 2.1136C 4.27586 1.55496 4.06207 0.998476 3.65586 0.593949C 2.84345 -0.19798 1.41104 -0.19798 0.620002 0.593949C 0.235174 0.998476 0 1.55496 0 2.1136C 0 2.67009 0.235174 3.22658 0.620002 3.63324C 1.02621 4.03777 1.58207 4.25395 2.13793 4.25395Z"/>
<path id="path10_fill" d="M 55.5862 0L 2.13793 0C 0.957793 0 0 0.956737 0 2.14035C 0 3.32396 0.957793 4.2807 2.13793 4.2807L 55.5862 4.2807C 56.7663 4.2807 57.7241 3.32396 57.7241 2.14035C 57.7241 0.956737 56.7663 0 55.5862 0Z"/>
</defs>
</svg>
