<svg width="128" height="128" viewBox="0 0 128 128" version="1.1" xmlns="http://www.w3.org/2000/svg" xmlns:xlink="http://www.w3.org/1999/xlink">
<title>social</title>
<desc>Created using Figma</desc>
<g id="Canvas" transform="translate(1049 -449)">
<clipPath id="clip-0" clip-rule="evenodd">
<path d="M -1049 449L -921 449L -921 577L -1049 577L -1049 449Z" fill="#FFFFFF"/>
</clipPath>
<g id="social" clip-path="url(#clip-0)">
<g id="Group">
<g id="network">
<g id="Vector">
<use xlink:href="#path0_fill" transform="matrix(-1 -8.81382e-08 8.67132e-08 -1 -964 517)" fill="#333333"/>
<mask id="mask0_outline_out">
<rect id="mask0_outline_inv" fill="white" x="-1" y="-1" width="46" height="46" transform="matrix(-1 -8.81382e-08 8.67132e-08 -1 -964 517)"/>
<use xlink:href="#path0_fill" fill="black" transform="matrix(-1 -8.81382e-08 8.67132e-08 -1 -964 517)"/>
</mask>
<g mask="url(#mask0_outline_out)">
<use xlink:href="#path1_stroke_2x" transform="matrix(-1 -8.81382e-08 8.67132e-08 -1 -964 517)" fill="#333333"/>
</g>
</g>
</g>
</g>
<g id="monitor">
<g id="Group">
<g id="Group">
<g id="Vector">
<use xlink:href="#path2_fill" transform="translate(-1049 460)" fill="#333333"/>
</g>
</g>
</g>
<g id="Group">
<g id="Group">
<g id="Vector">
<use xlink:href="#path3_fill" transform="translate(-989.609 533.403)" fill="#333333"/>
</g>
</g>
</g>
</g>
</g>
</g>
<defs>
<path id="path0_fill" d="M 39.2 0C 36.5528 0 34.4 2.1528 34.4 4.8C 34.4 5.628 34.6104 6.4072 34.9808 7.088L 27.1176 14.9512C 26.0336 14.1072 24.6768 13.6 23.2 13.6C 21.7232 13.6 20.3664 14.1072 19.2816 14.9504L 13.1464 8.8152C 13.428 8.3392 13.6 7.792 13.6 7.2C 13.6 5.4352 12.1648 4 10.4 4C 8.6352 4 7.2 5.4352 7.2 7.2C 7.2 8.9648 8.6352 10.4 10.4 10.4C 10.992 10.4 11.5392 10.228 12.0152 9.9464L 18.1504 16.0816C 17.3072 17.1664 16.8 18.5232 16.8 20C 16.8 21.4768 17.3072 22.8336 18.1504 23.9176L 8.0192 34.0496C 7.1664 33.276 6.0392 32.8 4.8 32.8C 2.1528 32.8 0 34.9528 0 37.6C 0 40.2472 2.1528 42.4 4.8 42.4C 7.4472 42.4 9.6 40.2472 9.6 37.6C 9.6 36.772 9.3896 35.9928 9.0192 35.312L 19.2824 25.0488C 20.1672 25.7368 21.2344 26.1976 22.4008 26.344L 22.4008 34.472C 20.1344 34.8544 18.4008 36.8256 18.4008 39.2C 18.4008 41.8472 20.5536 44 23.2008 44C 25.848 44 28.0008 41.8472 28.0008 39.2C 28.0008 36.8264 26.2672 34.8552 24.0008 34.472L 24.0008 26.344C 25.1672 26.1976 26.2344 25.7368 27.1192 25.0488L 33.2544 31.184C 32.972 31.6608 32.8 32.208 32.8 32.8C 32.8 34.5648 34.2352 36 36 36C 37.7648 36 39.2 34.5648 39.2 32.8C 39.2 31.0352 37.7648 29.6 36 29.6C 35.408 29.6 34.8608 29.772 34.3848 30.0536L 28.2496 23.9184C 29.0928 22.8336 29.6 21.4768 29.6 20C 29.6 18.5232 29.0928 17.1664 28.2496 16.0824L 35.9816 8.3504C 36.8336 9.124 37.9608 9.6 39.2 9.6C 41.8472 9.6 44 7.4472 44 4.8C 44 2.1528 41.8472 0 39.2 0ZM 8.8 7.2C 8.8 6.3176 9.5176 5.6 10.4 5.6C 11.2824 5.6 12 6.3176 12 7.2C 12 8.0824 11.2824 8.8 10.4 8.8C 9.5176 8.8 8.8 8.0824 8.8 7.2ZM 4.8 40.8C 3.0352 40.8 1.6 39.3648 1.6 37.6C 1.6 35.8352 3.0352 34.4 4.8 34.4C 6.5648 34.4 8 35.8352 8 37.6C 8 39.3648 6.5648 40.8 4.8 40.8ZM 26.4 39.2C 26.4 40.9648 24.9648 42.4 23.2 42.4C 21.4352 42.4 20 40.9648 20 39.2C 20 37.4352 21.4352 36 23.2 36C 24.9648 36 26.4 37.4352 26.4 39.2ZM 23.2 24.8C 20.5528 24.8 18.4 22.6472 18.4 20C 18.4 17.3528 20.5528 15.2 23.2 15.2C 25.8472 15.2 28 17.3528 28 20C 28 22.6472 25.8472 24.8 23.2 24.8ZM 37.6 32.8C 37.6 33.6824 36.8824 34.4 36 34.4C 35.1176 34.4 34.4 33.6824 34.4 32.8C 34.4 31.9176 35.1176 31.2 36 31.2C 36.8824 31.2 37.6 31.9176 37.6 32.8ZM 39.2 8C 37.4352 8 36 6.5648 36 4.8C 36 3.0352 37.4352 1.6 39.2 1.6C 40.9648 1.6 42.4 3.0352 42.4 4.8C 42.4 6.5648 40.9648 8 39.2 8Z"/>
<path id="path1_stroke_2x" d="M 34.9808 7.088L 35.3344 7.44155L 35.5986 7.17731L 35.42 6.84904L 34.9808 7.088ZM 27.1176 14.9512L 26.8104 15.3457L 27.1589 15.617L 27.4712 15.3048L 27.1176 14.9512ZM 19.2816 14.9504L 18.928 15.304L 19.2401 15.616L 19.5885 15.3452L 19.2816 14.9504ZM 13.1464 8.8152L 12.7161 8.56062L 12.5186 8.89447L 12.7928 9.16875L 13.1464 8.8152ZM 12.0152 9.9464L 12.3688 9.59285L 12.0945 9.31856L 11.7606 9.51607L 12.0152 9.9464ZM 18.1504 16.0816L 18.5452 16.3884L 18.816 16.0401L 18.504 15.728L 18.1504 16.0816ZM 18.1504 23.9176L 18.504 24.2711L 18.8161 23.959L 18.5451 23.6106L 18.1504 23.9176ZM 8.0192 34.0496L 7.68326 34.4199L 8.03601 34.7399L 8.37277 34.4031L 8.0192 34.0496ZM 9.0192 35.312L 8.66565 34.9584L 8.4014 35.2227L 8.58 35.551L 9.0192 35.312ZM 19.2824 25.0488L 19.5893 24.6541L 19.2409 24.3832L 18.9288 24.6952L 19.2824 25.0488ZM 22.4008 26.344L 22.9008 26.344L 22.9008 25.9028L 22.4631 25.8479L 22.4008 26.344ZM 22.4008 34.472L 22.484 34.965L 22.9008 34.8947L 22.9008 34.472L 22.4008 34.472ZM 24.0008 34.472L 23.5008 34.472L 23.5008 34.8946L 23.9174 34.965L 24.0008 34.472ZM 24.0008 26.344L 23.9385 25.8479L 23.5008 25.9028L 23.5008 26.344L 24.0008 26.344ZM 27.1192 25.0488L 27.4728 24.6952L 27.1607 24.3832L 26.8123 24.6541L 27.1192 25.0488ZM 33.2544 31.184L 33.6846 31.4388L 33.8824 31.1049L 33.608 30.8304L 33.2544 31.184ZM 34.3848 30.0536L 34.0312 30.4072L 34.3055 30.6814L 34.6394 30.4839L 34.3848 30.0536ZM 28.2496 23.9184L 27.8548 23.6115L 27.584 23.9599L 27.896 24.272L 28.2496 23.9184ZM 28.2496 16.0824L 27.896 15.7288L 27.5839 16.041L 27.8549 16.3894L 28.2496 16.0824ZM 35.9816 8.3504L 36.3177 7.98022L 35.965 7.65993L 35.6281 7.99685L 35.9816 8.3504ZM 39.2 -0.5C 36.2767 -0.5 33.9 1.87666 33.9 4.8L 34.9 4.8C 34.9 2.42894 36.8289 0.5 39.2 0.5L 39.2 -0.5ZM 33.9 4.8C 33.9043 5.69374 34.1463 6.59313 34.5416 7.32696L 35.42 6.84904C 35.0746 6.22127 34.8957 5.56226 34.9 4.8L 33.9 4.8ZM 34.6273 6.73445L 26.764 14.5976L 27.4712 15.3048L 35.3344 7.44155L 34.6273 6.73445ZM 27.4248 14.5567C 26.2775 13.6707 24.7658 13.108 23.2 13.1L 23.2 14.1C 24.5878 14.092 25.7897 14.5437 26.8104 15.3457L 27.4248 14.5567ZM 23.2 13.1C 21.6342 13.108 20.1226 13.6706 18.9748 14.5556L 19.5885 15.3452C 20.6102 14.5438 21.8122 14.092 23.2 14.1L 23.2 13.1ZM 19.6352 14.5968L 13.5 8.46165L 12.7928 9.16875L 18.928 15.304L 19.6352 14.5968ZM 13.5767 9.06978C 13.8847 8.5428 14.0942 7.86784 14.1 7.2L 13.1 7.2C 13.1058 7.71616 12.9713 8.1356 12.7161 8.56062L 13.5767 9.06978ZM 14.1 7.2C 14.1 5.15906 12.4409 3.5 10.4 3.5L 10.4 4.5C 11.8887 4.5 13.1 5.71134 13.1 7.2L 14.1 7.2ZM 10.4 3.5C 8.35906 3.5 6.7 5.15906 6.7 7.2L 7.7 7.2C 7.7 5.71134 8.91134 4.5 10.4 4.5L 10.4 3.5ZM 6.7 7.2C 6.7 9.24094 8.35906 10.9 10.4 10.9L 10.4 9.9C 8.91134 9.9 7.7 8.68866 7.7 7.2L 6.7 7.2ZM 10.4 10.9C 11.0678 10.8942 11.7428 10.6847 12.2698 10.3767L 11.7606 9.51607C 11.3356 9.77133 10.9162 9.90579 10.4 9.9L 10.4 10.9ZM 11.6616 10.3L 17.7968 16.4352L 18.504 15.728L 12.3688 9.59285L 11.6616 10.3ZM 17.7556 15.7747C 16.8706 16.9226 16.308 18.4342 16.3 20L 17.3 20C 17.292 18.6122 17.7438 17.4102 18.5452 16.3884L 17.7556 15.7747ZM 16.3 20C 16.308 21.5658 16.8707 23.0774 17.7557 24.2246L 18.5451 23.6106C 17.7437 22.5898 17.292 21.3878 17.3 20L 16.3 20ZM 17.7968 23.5641L 7.66563 33.6961L 8.37277 34.4031L 18.504 24.2711L 17.7968 23.5641ZM 8.35514 33.6793C 7.43544 32.8546 6.13843 32.3099 4.8 32.3L 4.8 33.3C 5.93997 33.2901 6.89736 33.6974 7.68326 34.4199L 8.35514 33.6793ZM 4.8 32.3C 1.87666 32.3 -0.5 34.6767 -0.5 37.6L 0.5 37.6C 0.5 35.2289 2.42894 33.3 4.8 33.3L 4.8 32.3ZM -0.5 37.6C -0.5 40.5233 1.87666 42.9 4.8 42.9L 4.8 41.9C 2.42894 41.9 0.5 39.9711 0.5 37.6L -0.5 37.6ZM 4.8 42.9C 7.72334 42.9 10.1 40.5233 10.1 37.6L 9.1 37.6C 9.1 39.9711 7.17106 41.9 4.8 41.9L 4.8 42.9ZM 10.1 37.6C 10.0957 36.7063 9.85375 35.8069 9.4584 35.073L 8.58 35.551C 8.92545 36.1787 9.10434 36.8377 9.1 37.6L 10.1 37.6ZM 9.37275 35.6656L 19.636 25.4024L 18.9288 24.6952L 8.66565 34.9584L 9.37275 35.6656ZM 18.9755 25.4435C 19.9126 26.1671 21.1029 26.68 22.3385 26.8401L 22.4631 25.8479C 21.366 25.7152 20.4218 25.3065 19.5893 24.6541L 18.9755 25.4435ZM 21.9008 26.344L 21.9008 34.472L 22.9008 34.472L 22.9008 26.344L 21.9008 26.344ZM 22.3176 33.979C 19.8158 34.4011 17.9008 36.5763 17.9008 39.2L 18.9008 39.2C 18.9008 37.0749 20.453 35.3077 22.484 34.965L 22.3176 33.979ZM 17.9008 39.2C 17.9008 42.1233 20.2775 44.5 23.2008 44.5L 23.2008 43.5C 20.8297 43.5 18.9008 41.5711 18.9008 39.2L 17.9008 39.2ZM 23.2008 44.5C 26.1241 44.5 28.5008 42.1233 28.5008 39.2L 27.5008 39.2C 27.5008 41.5711 25.5719 43.5 23.2008 43.5L 23.2008 44.5ZM 28.5008 39.2C 28.5008 36.577 26.5857 34.402 24.0842 33.979L 23.9174 34.965C 25.9487 35.3084 27.5008 37.0758 27.5008 39.2L 28.5008 39.2ZM 24.5008 34.472L 24.5008 26.344L 23.5008 26.344L 23.5008 34.472L 24.5008 34.472ZM 24.0631 26.8401C 25.2988 26.68 26.489 26.1671 27.4261 25.4435L 26.8123 24.6541C 25.9798 25.3065 25.0357 25.7152 23.9385 25.8479L 24.0631 26.8401ZM 26.7656 25.4024L 32.9009 31.5376L 33.608 30.8304L 27.4728 24.6952L 26.7656 25.4024ZM 32.8242 30.9292C 32.5154 31.4571 32.3058 32.1322 32.3 32.8L 33.3 32.8C 33.2942 32.2838 33.4286 31.8645 33.6846 31.4388L 32.8242 30.9292ZM 32.3 32.8C 32.3 34.8409 33.9591 36.5 36 36.5L 36 35.5C 34.5113 35.5 33.3 34.2887 33.3 32.8L 32.3 32.8ZM 36 36.5C 38.0409 36.5 39.7 34.8409 39.7 32.8L 38.7 32.8C 38.7 34.2887 37.4887 35.5 36 35.5L 36 36.5ZM 39.7 32.8C 39.7 30.7591 38.0409 29.1 36 29.1L 36 30.1C 37.4887 30.1 38.7 31.3113 38.7 32.8L 39.7 32.8ZM 36 29.1C 35.3322 29.1058 34.6572 29.3153 34.1302 29.6233L 34.6394 30.4839C 35.0644 30.2287 35.4838 30.0942 36 30.1L 36 29.1ZM 34.7384 29.7L 28.6032 23.5648L 27.896 24.272L 34.0312 30.4072L 34.7384 29.7ZM 28.6444 24.2252C 29.5294 23.0774 30.092 21.5658 30.1 20L 29.1 20C 29.108 21.3878 28.6562 22.5898 27.8548 23.6115L 28.6444 24.2252ZM 30.1 20C 30.092 18.4342 29.5293 16.9226 28.6443 15.7754L 27.8549 16.3894C 28.6563 17.4102 29.108 18.6122 29.1 20L 30.1 20ZM 28.6032 16.436L 36.3352 8.70395L 35.6281 7.99685L 27.896 15.7288L 28.6032 16.436ZM 35.6455 8.72057C 36.5645 9.54538 37.8616 10.0901 39.2 10.1L 39.2 9.1C 38.06 9.10994 37.1027 8.70261 36.3177 7.98022L 35.6455 8.72057ZM 39.2 10.1C 42.1233 10.1 44.5 7.72334 44.5 4.8L 43.5 4.8C 43.5 7.17106 41.5711 9.1 39.2 9.1L 39.2 10.1ZM 44.5 4.8C 44.5 1.87666 42.1233 -0.5 39.2 -0.5L 39.2 0.5C 41.5711 0.5 43.5 2.42894 43.5 4.8L 44.5 4.8ZM 9.3 7.2C 9.3 6.59374 9.79374 6.1 10.4 6.1L 10.4 5.1C 9.24146 5.1 8.3 6.04146 8.3 7.2L 9.3 7.2ZM 10.4 6.1C 11.0063 6.1 11.5 6.59374 11.5 7.2L 12.5 7.2C 12.5 6.04146 11.5585 5.1 10.4 5.1L 10.4 6.1ZM 11.5 7.2C 11.5 7.80626 11.0063 8.3 10.4 8.3L 10.4 9.3C 11.5585 9.3 12.5 8.35854 12.5 7.2L 11.5 7.2ZM 10.4 8.3C 9.79374 8.3 9.3 7.80626 9.3 7.2L 8.3 7.2C 8.3 8.35854 9.24146 9.3 10.4 9.3L 10.4 8.3ZM 4.8 40.3C 3.31134 40.3 2.1 39.0887 2.1 37.6L 1.1 37.6C 1.1 39.6409 2.75906 41.3 4.8 41.3L 4.8 40.3ZM 2.1 37.6C 2.1 36.1113 3.31134 34.9 4.8 34.9L 4.8 33.9C 2.75906 33.9 1.1 35.5591 1.1 37.6L 2.1 37.6ZM 4.8 34.9C 6.28866 34.9 7.5 36.1113 7.5 37.6L 8.5 37.6C 8.5 35.5591 6.84094 33.9 4.8 33.9L 4.8 34.9ZM 7.5 37.6C 7.5 39.0887 6.28866 40.3 4.8 40.3L 4.8 41.3C 6.84094 41.3 8.5 39.6409 8.5 37.6L 7.5 37.6ZM 25.9 39.2C 25.9 40.6887 24.6887 41.9 23.2 41.9L 23.2 42.9C 25.2409 42.9 26.9 41.2409 26.9 39.2L 25.9 39.2ZM 23.2 41.9C 21.7113 41.9 20.5 40.6887 20.5 39.2L 19.5 39.2C 19.5 41.2409 21.1591 42.9 23.2 42.9L 23.2 41.9ZM 20.5 39.2C 20.5 37.7113 21.7113 36.5 23.2 36.5L 23.2 35.5C 21.1591 35.5 19.5 37.1591 19.5 39.2L 20.5 39.2ZM 23.2 36.5C 24.6887 36.5 25.9 37.7113 25.9 39.2L 26.9 39.2C 26.9 37.1591 25.2409 35.5 23.2 35.5L 23.2 36.5ZM 23.2 24.3C 20.8289 24.3 18.9 22.3711 18.9 20L 17.9 20C 17.9 22.9233 20.2767 25.3 23.2 25.3L 23.2 24.3ZM 18.9 20C 18.9 17.6289 20.8289 15.7 23.2 15.7L 23.2 14.7C 20.2767 14.7 17.9 17.0767 17.9 20L 18.9 20ZM 23.2 15.7C 25.5711 15.7 27.5 17.6289 27.5 20L 28.5 20C 28.5 17.0767 26.1233 14.7 23.2 14.7L 23.2 15.7ZM 27.5 20C 27.5 22.3711 25.5711 24.3 23.2 24.3L 23.2 25.3C 26.1233 25.3 28.5 22.9233 28.5 20L 27.5 20ZM 37.1 32.8C 37.1 33.4063 36.6063 33.9 36 33.9L 36 34.9C 37.1585 34.9 38.1 33.9585 38.1 32.8L 37.1 32.8ZM 36 33.9C 35.3937 33.9 34.9 33.4063 34.9 32.8L 33.9 32.8C 33.9 33.9585 34.8415 34.9 36 34.9L 36 33.9ZM 34.9 32.8C 34.9 32.1937 35.3937 31.7 36 31.7L 36 30.7C 34.8415 30.7 33.9 31.6415 33.9 32.8L 34.9 32.8ZM 36 31.7C 36.6063 31.7 37.1 32.1937 37.1 32.8L 38.1 32.8C 38.1 31.6415 37.1585 30.7 36 30.7L 36 31.7ZM 39.2 7.5C 37.7113 7.5 36.5 6.28866 36.5 4.8L 35.5 4.8C 35.5 6.84094 37.1591 8.5 39.2 8.5L 39.2 7.5ZM 36.5 4.8C 36.5 3.31134 37.7113 2.1 39.2 2.1L 39.2 1.1C 37.1591 1.1 35.5 2.75906 35.5 4.8L 36.5 4.8ZM 39.2 2.1C 40.6887 2.1 41.9 3.31134 41.9 4.8L 42.9 4.8C 42.9 2.75906 41.2409 1.1 39.2 1.1L 39.2 2.1ZM 41.9 4.8C 41.9 6.28866 40.6887 7.5 39.2 7.5L 39.2 8.5C 41.2409 8.5 42.9 6.84094 42.9 4.8L 41.9 4.8Z"/>
<path id="path2_fill" d="M 117.454 6.68394e-08L 7.54617 6.68394e-08C 3.38527 6.68394e-08 0 3.37436 0 7.52186L 0 83.1612C 0 87.3087 3.38527 90.683 7.54617 90.683L 45.2075 90.683L 45.2075 96.1561C 45.2075 101.173 41.1122 105.255 36.0788 105.255L 27.7787 105.255C 26.1874 105.255 24.8971 106.541 24.8971 108.128C 24.8971 109.714 26.1874 111 27.7787 111L 97.2213 111C 98.8126 111 100.103 109.714 100.103 108.128C 100.103 106.541 98.8126 105.255 97.2213 105.255L 88.921 105.255C 83.8875 105.255 79.7923 101.173 79.7923 96.1561L 79.7923 90.6833L 117.454 90.6833C 121.614 90.6833 125 87.3089 125 83.1614L 125 7.52186C 125 3.37436 121.615 6.68394e-08 117.454 6.68394e-08ZM 47.8322 105.256C 49.7966 102.741 50.9711 99.5837 50.9711 96.1566L 50.9711 90.6835L 74.0296 90.6835L 74.0296 96.1566C 74.0296 99.5837 75.2041 102.741 77.1685 105.256L 47.8322 105.256ZM 119.237 83.1614C 119.237 84.1414 118.437 84.9389 117.454 84.9389L 7.54617 84.9389C 6.56301 84.9389 5.76296 84.1416 5.76296 83.1614L 5.76296 68.0654L 119.237 68.0654L 119.237 83.1614ZM 119.237 62.3205L 5.76321 62.3205L 5.76321 7.52186C 5.76321 6.54187 6.56301 5.74439 7.54642 5.74439L 117.454 5.74439C 118.437 5.74439 119.238 6.54162 119.238 7.52186L 119.238 62.3205L 119.237 62.3205Z"/>
<path id="path3_fill" d="M 3.10987 6.19971C 4.82741 6.19971 6.21975 4.81186 6.21975 3.09985C 6.21975 1.38785 4.82741 -3.38653e-06 3.10987 -3.38653e-06C 1.39234 -3.38653e-06 0 1.38785 0 3.09985C 0 4.81186 1.39234 6.19971 3.10987 6.19971Z"/>
</defs>
</svg>
