<svg width="128" height="128" viewBox="0 0 128 128" version="1.1" xmlns="http://www.w3.org/2000/svg" xmlns:xlink="http://www.w3.org/1999/xlink">
<title>tip</title>
<desc>Created using Figma</desc>
<g id="Canvas" transform="translate(911 -449)">
<clipPath id="clip-0" clip-rule="evenodd">
<path d="M -911 449L -783 449L -783 577L -911 577L -911 449Z" fill="#FFFFFF"/>
</clipPath>
<g id="tip" clip-path="url(#clip-0)">
<g id="exchange">
<g id="Group">
<g id="Group">
<g id="Vector">
<use xlink:href="#path0_fill" transform="translate(-906.064 516.916)" fill="#333333"/>
</g>
</g>
</g>
<g id="Group">
<g id="Group">
<g id="Vector">
<use xlink:href="#path1_fill" transform="translate(-841.987 452.839)" fill="#333333"/>
</g>
</g>
</g>
<g id="Group">
<g id="Group">
<g id="Vector">
<use xlink:href="#path2_fill" transform="translate(-911 449)" fill="#333333"/>
</g>
</g>
</g>
<g id="Group">
<g id="Group">
<g id="Vector">
<use xlink:href="#path3_fill" transform="translate(-904.193 486.979)" fill="#333333"/>
</g>
</g>
</g>
<g id="Group">
<g id="Group">
<g id="Vector">
<use xlink:href="#path4_fill" transform="translate(-903.857 455.302)" fill="#333333"/>
</g>
</g>
</g>
<g id="Group">
<g id="Group">
<g id="Vector">
<use xlink:href="#path5_fill" transform="translate(-852.395 507.605)" fill="#333333"/>
</g>
</g>
</g>
<g id="Group">
<g id="Group">
<g id="Vector">
<use xlink:href="#path6_fill" transform="translate(-845.328 513.907)" fill="#333333"/>
</g>
</g>
</g>
<g id="Group">
<g id="Group">
<g id="Vector">
<use xlink:href="#path7_fill" transform="translate(-845.525 545.812)" fill="#333333"/>
</g>
</g>
</g>
<g id="Group">
<g id="Group">
<g id="Vector">
<use xlink:href="#path8_fill" transform="translate(-886.537 465.891)" fill="#333333"/>
</g>
</g>
</g>
<g id="Group">
<g id="Group">
<g id="Vector">
<use xlink:href="#path9_fill" transform="translate(-825.813 526.787)" fill="#333333"/>
</g>
</g>
</g>
</g>
</g>
</g>
<defs>
<path id="path0_fill" d="M 54.1615 49.6472C 54.1618 49.6192 54.1588 49.5927 54.1578 49.5655C 54.1568 49.5415 54.156 49.5175 54.1543 49.4935C 54.1498 49.4398 54.1425 49.3872 54.1338 49.3347C 54.1315 49.3207 54.13 49.3068 54.1273 49.293C 54.1008 49.1553 54.0585 49.0235 54.0033 48.8985C 53.9975 48.8855 53.9908 48.873 53.9848 48.86C 53.9623 48.812 53.9378 48.765 53.9113 48.7192C 53.901 48.7017 53.8905 48.6847 53.8798 48.6675C 53.8543 48.6267 53.8273 48.5872 53.7988 48.5487C 53.7863 48.5317 53.7737 48.5145 53.7607 48.4978C 53.7277 48.4563 53.693 48.4165 53.6567 48.378C 53.6465 48.3672 53.6373 48.3557 53.627 48.3452C 53.5793 48.297 53.529 48.2515 53.4762 48.2087C 53.4737 48.2067 53.4717 48.2045 53.4692 48.2022L 44.7 41.1592C 43.902 40.5182 42.736 40.646 42.0955 41.4437C 41.4548 42.2415 41.5823 43.4075 42.38 44.0482L 46.697 47.5157C 35.2788 46.3847 24.9818 41.8002 17.2708 34.3188C 8.523 25.831 3.7055 14.3012 3.7055 1.85275C 3.7055 0.829499 2.87625 -3.72314e-06 1.85275 -3.72314e-06C 0.82925 -3.72314e-06 2.09808e-07 0.829499 2.09808e-07 1.85275C 2.09808e-07 15.312 5.217 27.7862 14.6902 36.978C 23.0442 45.0837 34.178 50.0342 46.4933 51.2192L 42.17 54.0312C 41.3123 54.589 41.069 55.7365 41.627 56.5945C 41.982 57.1402 42.5758 57.4372 43.1818 57.4372C 43.528 57.4372 43.8785 57.3402 44.19 57.1375L 53.3188 51.2002C 53.3218 51.1982 53.3242 51.196 53.327 51.1942C 53.3845 51.1562 53.4403 51.1155 53.493 51.0715C 53.5008 51.065 53.5075 51.0577 53.5153 51.0512C 53.5585 51.014 53.6003 50.975 53.6398 50.934C 53.655 50.9182 53.669 50.9018 53.6838 50.8858C 53.7148 50.8513 53.7448 50.8158 53.7733 50.779C 53.7868 50.7615 53.8 50.7437 53.813 50.7257C 53.8417 50.6857 53.8688 50.6442 53.8943 50.602C 53.9033 50.587 53.913 50.5725 53.9215 50.5572C 53.9888 50.4385 54.0433 50.312 54.083 50.1787C 54.086 50.1685 54.088 50.158 54.091 50.1477C 54.1062 50.0932 54.1195 50.0377 54.1298 49.9812C 54.1335 49.9605 54.1363 49.9397 54.1393 49.9187C 54.146 49.8722 54.1515 49.8252 54.1548 49.7777C 54.1558 49.765 54.1583 49.7525 54.159 49.7397C 54.1598 49.7272 54.1583 49.7147 54.1588 49.7022C 54.1593 49.6837 54.1615 49.6657 54.1615 49.6472Z"/>
<path id="path1_fill" d="M 39.4717 20.4591C 31.1172 12.3539 19.9835 7.40336 7.66825 6.21811L 11.9918 3.40611C 12.8495 2.84836 13.0928 1.70086 12.5348 0.842856C 11.9768 -0.0148942 10.8287 -0.258144 9.97175 0.299856L 0.843001 6.23736C 0.840001 6.23936 0.837504 6.24161 0.834754 6.24336C 0.777254 6.28136 0.721503 6.32211 0.668753 6.36611C 0.661003 6.37261 0.654248 6.37961 0.646498 6.38611C 0.603248 6.42336 0.5615 6.46236 0.52175 6.50336C 0.50675 6.51911 0.492503 6.53536 0.478003 6.55136C 0.446753 6.58586 0.417001 6.62136 0.388251 6.65836C 0.374751 6.67586 0.361502 6.69361 0.348502 6.71161C 0.319752 6.75161 0.292749 6.79311 0.267249 6.83536C 0.258249 6.85036 0.248497 6.86486 0.239997 6.88011C 0.172747 6.99886 0.118253 7.12536 0.0782534 7.25861C 0.0752534 7.26861 0.073252 7.27886 0.070502 7.28886C 0.055252 7.34361 0.0420023 7.39911 0.0317523 7.45586C 0.0280023 7.47661 0.0252537 7.49736 0.0222537 7.51836C 0.0155037 7.56486 0.0100007 7.61186 0.00675073 7.65936C 0.00575073 7.67211 0.00325116 7.68461 0.00250116 7.69736C 0.00175116 7.70986 0.00325293 7.72236 0.00275293 7.73486C 0.00225293 7.75336 -1.28174e-06 7.77136 -1.28174e-06 7.78986C 0.000248718 7.81786 0.00324829 7.84461 0.00424829 7.87161C 0.00524829 7.89561 0.00600018 7.91961 0.00775018 7.94361C 0.0122502 7.99736 0.0195004 8.04986 0.0282504 8.10236C 0.0305004 8.11636 0.0320006 8.13035 0.0347506 8.1441C 0.0612506 8.2816 0.103501 8.41361 0.158751 8.53861C 0.164501 8.55186 0.171247 8.56436 0.177497 8.57736C 0.199997 8.62536 0.224246 8.67236 0.250746 8.71786C 0.260996 8.73536 0.271498 8.75236 0.282248 8.76961C 0.307748 8.81036 0.334749 8.84986 0.363249 8.88836C 0.375749 8.90536 0.388251 8.92261 0.401251 8.93936C 0.434251 8.98086 0.468998 9.02061 0.505248 9.05911C 0.515498 9.06986 0.524752 9.08136 0.535002 9.09186C 0.582752 9.14011 0.633002 9.18561 0.685752 9.22836C 0.688252 9.23036 0.690248 9.23261 0.692748 9.23486L 9.462 16.2779C 9.804 16.5526 10.214 16.6861 10.6207 16.6861C 11.163 16.6861 11.7005 16.4491 12.0665 15.9934C 12.7072 15.1956 12.5797 14.0296 11.782 13.3889L 7.46475 9.92136C 18.883 11.0524 29.1803 15.6366 36.8913 23.1184C 45.639 31.6059 50.4565 43.1359 50.4565 55.5844C 50.4565 56.6076 51.2857 57.4371 52.3092 57.4371C 53.3325 57.4371 54.162 56.6076 54.162 55.5844C 54.162 42.1251 48.945 29.6509 39.4717 20.4591Z"/>
<path id="path2_fill" d="M 34.6975 0C 15.5652 0 0 15.5652 0 34.6975C 0 53.8297 15.5652 69.395 34.6975 69.395C 53.8297 69.395 69.395 53.8297 69.395 34.6975C 69.395 15.5652 53.8297 0 34.6975 0ZM 34.6975 65.6898C 17.6085 65.6898 3.70525 51.7865 3.70525 34.6975C 3.70525 17.6082 17.6085 3.70525 34.6975 3.70525C 51.7865 3.70525 65.6898 17.6082 65.6898 34.6975C 65.6898 51.7865 51.7865 65.6898 34.6975 65.6898Z"/>
<path id="path3_fill" d="M 54.291 0.035152C 53.2848 -0.162348 52.3133 0.492402 52.1163 1.4964C 51.1718 6.30915 48.8318 10.6939 45.3483 14.1771C 40.685 18.8404 34.485 21.4087 27.89 21.4087C 21.295 21.4087 15.0948 18.8404 10.4315 14.1771C 6.95679 10.7024 4.61879 6.32915 3.67029 1.53015C 3.47204 0.526401 2.49929 -0.126097 1.49379 0.0719027C 0.490043 0.270403 -0.162958 1.2449 0.0355422 2.24865C 1.12679 7.77065 3.81554 12.8017 7.81129 16.7974C 13.1748 22.1604 20.3053 25.1139 27.89 25.1139C 35.4748 25.1139 42.6053 22.1604 47.9683 16.7972C 51.974 12.7919 54.6655 7.74765 55.752 2.2099C 55.949 1.2059 55.2948 0.232402 54.291 0.035152Z"/>
<path id="path4_fill" d="M 55.057 21.316C 53.799 16.411 51.2315 11.916 47.6325 8.31675C 42.2693 2.95375 35.1388 -9.15527e-08 27.554 -9.15527e-08C 19.9693 -9.15527e-08 12.8388 2.95375 7.47553 8.31675C 3.88453 11.908 1.32003 16.3922 0.059026 21.2845C -0.196224 22.2755 0.400026 23.2855 1.39078 23.541C 2.38278 23.796 3.39203 23.2 3.64728 22.2092C 4.74303 17.9577 6.97278 14.0597 10.0958 10.9367C 14.7588 6.2735 20.959 3.70525 27.554 3.70525C 34.149 3.70525 40.349 6.27325 45.0123 10.9367C 48.1425 14.0667 50.3748 17.9742 51.468 22.2365C 51.6825 23.0732 52.4355 23.6292 53.2613 23.6292C 53.4135 23.6292 53.5683 23.6102 53.7228 23.5707C 54.714 23.3165 55.3113 22.307 55.057 21.316Z"/>
<path id="path5_fill" d="M 34.6975 -4.57764e-07C 15.5652 -4.57764e-07 -4.57764e-07 15.5652 -4.57764e-07 34.6975C -4.57764e-07 53.8297 15.5652 69.395 34.6975 69.395C 53.8297 69.395 69.395 53.8297 69.395 34.6975C 69.395 15.5652 53.8297 -4.57764e-07 34.6975 -4.57764e-07ZM 34.6975 65.6897C 17.6085 65.6897 3.70525 51.7867 3.70525 34.6975C 3.70525 17.6085 17.6085 3.70525 34.6975 3.70525C 51.7865 3.70525 65.6897 17.6082 65.6897 34.6975C 65.6897 51.7867 51.7865 65.6897 34.6975 65.6897Z"/>
<path id="path6_fill" d="M 55.2399 21.746C 54.0221 16.6695 51.4179 12.0257 47.7089 8.31675C 42.3456 2.9535 35.2149 -2.31934e-06 27.6304 -2.31934e-06C 20.0459 -2.31934e-06 12.9151 2.9535 7.55185 8.31675C 3.87735 11.9912 1.28485 16.588 0.0538494 21.61C -0.190151 22.6042 0.418101 23.6073 1.41185 23.8508C 2.40535 24.0955 3.40885 23.486 3.6521 22.4925C 4.7216 18.1282 6.9761 14.1325 10.1719 10.937C 14.8351 6.27375 21.0351 3.7055 27.6301 3.7055C 34.2251 3.7055 40.4254 6.27375 45.0886 10.937C 48.3144 14.1625 50.5784 18.1993 51.6369 22.6105C 51.8406 23.4603 52.5999 24.0315 53.4369 24.0312C 53.5799 24.0312 53.7254 24.0145 53.8706 23.9797C 54.8654 23.741 55.4786 22.741 55.2399 21.746Z"/>
<path id="path7_fill" d="M 54.1989 0.038064C 53.1954 -0.167186 52.2172 0.478067 52.0114 1.48032C 51.0407 6.20857 48.7152 10.5201 45.2862 13.9491C 40.6229 18.6123 34.4227 21.1806 27.8277 21.1806C 21.2327 21.1806 15.0327 18.6126 10.3694 13.9491C 6.96765 10.5476 4.64965 6.27282 3.66615 1.58682C 3.4564 0.585316 2.47365 -0.0559369 1.4724 0.154313C 0.471151 0.364313 -0.170344 1.34657 0.0399061 2.34782C 1.17141 7.73982 3.8374 12.6573 7.74915 16.5688C 13.1124 21.9318 20.2429 24.8856 27.8277 24.8856C 35.4124 24.8856 42.5432 21.9321 47.9062 16.5688C 51.8492 12.6258 54.5237 7.66581 55.6407 2.22531C 55.8467 1.22306 55.2009 0.243814 54.1989 0.038064Z"/>
<path id="path8_fill" d="M 11.4853 14.8405L 11.4853 6.10825C 14.4963 6.32325 15.6147 7.69975 16.647 7.69975C 17.9375 7.69975 18.5397 6.06525 18.5397 5.248C 18.5397 3.14 14.4103 2.23675 11.4853 2.15075L 11.4853 0.989249C 11.4853 0.473249 10.84 -8.8501e-07 10.1948 -8.8501e-07C 9.4635 -8.8501e-07 8.94725 0.472999 8.94725 0.989249L 8.94725 2.23675C 4.86075 2.667 0.774249 4.81775 0.774249 10.2378C 0.774249 15.7438 5.076 17.2923 8.94725 18.6688L 8.94725 28.7775C 4.55975 28.4335 3.39825 25.4223 1.97875 25.4223C 0.903249 25.4223 -7.93457e-07 26.8418 -7.93457e-07 27.8743C -7.93457e-07 29.982 3.61325 32.8643 8.94725 32.9503L 8.94725 34.2838C 8.94725 34.7998 9.4635 35.273 10.1948 35.273C 10.84 35.273 11.4853 34.8 11.4853 34.2838L 11.4853 32.8213C 16.131 32.176 19.3143 29.251 19.3143 23.96C 19.3143 18.1097 15.2275 16.217 11.4853 14.8405ZM 9.2055 14.0232C 6.9255 13.163 5.07575 12.2595 5.076 9.80775C 5.076 7.571 6.7965 6.4955 9.2055 6.1945L 9.2055 14.0232ZM 11.227 28.6915L 11.227 19.6152C 13.335 20.5185 15.0125 21.723 15.0122 24.433C 15.0122 26.8848 13.55 28.2613 11.227 28.6915Z"/>
<path id="path9_fill" d="M 14.8155 15.818C 16.7708 14.9533 18.0115 12.8477 18.0115 9.727C 18.0115 5.78275 16.0337 4.108 13.3645 3.5085L 13.46 3.5085L 13.46 1.75425C 13.46 0.785499 12.6748 -9.76563e-07 11.7058 -9.76563e-07C 10.737 -9.76563e-07 9.9515 0.785249 9.9515 1.75425L 9.9515 3.22225L 8.03375 3.22225L 8.03375 1.75425C 8.03375 0.785499 7.24825 -9.76563e-07 6.2795 -9.76563e-07C 5.31075 -9.76563e-07 4.52525 0.785249 4.52525 1.75425L 4.52525 3.22225L 4.0315 3.22225L 3.57275 3.22225L 1.85425 3.22225C 0.83025 3.22225 2.31934e-06 4.0525 2.31934e-06 5.0765C 2.31934e-06 6.08425 0.804249 6.90225 1.8055 6.92825L 1.8055 27.0015C 0.803999 27.0275 2.31934e-06 27.8455 2.31934e-06 28.8533C 2.31934e-06 29.8773 0.83 30.7075 1.85425 30.7075L 3.57275 30.7075L 4.0315 30.7075L 4.52525 30.7075L 4.52525 32.2678C 4.52525 33.2365 5.3105 34.022 6.2795 34.022C 7.24825 34.022 8.03375 33.2368 8.03375 32.2678L 8.03375 30.7075L 9.9515 30.7075L 9.9515 32.2678C 9.9515 33.2365 10.737 34.022 11.7058 34.022C 12.6745 34.022 13.46 33.2368 13.46 32.2678L 13.46 30.5135L 13.2827 30.5135C 16.4445 29.883 18.688 27.637 18.688 22.8115L 18.688 22.097C 18.6883 18.2623 17.147 16.7205 14.8155 15.818ZM 5.754 6.7565L 10.1532 6.7565C 12.522 6.7565 14.0258 7.847 14.0258 10.366C 14.0258 12.9227 12.785 14.2388 10.2285 14.2388L 5.754 14.2388L 5.754 6.7565L 5.754 6.7565ZM 14.7028 22.5108C 14.7028 25.7443 13.1235 27.173 10.454 27.173L 5.754 27.173L 5.754 17.3972L 10.454 17.3972C 13.1235 17.3972 14.7028 18.6005 14.7028 21.9092L 14.7028 22.5108Z"/>
</defs>
</svg>
