<svg width="128" height="128" viewBox="0 0 128 128" version="1.1" xmlns="http://www.w3.org/2000/svg" xmlns:xlink="http://www.w3.org/1999/xlink">
<title>tools</title>
<desc>Created using Figma</desc>
<g id="Canvas" transform="translate(764 -449)">
<clipPath id="clip-0" clip-rule="evenodd">
<path d="M -764 449L -636 449L -636 577L -764 577L -764 449Z" fill="#FFFFFF"/>
</clipPath>
<g id="tools" clip-path="url(#clip-0)">
<g id="toolbox">
<g id="Group">
<g id="Group">
<g id="Vector">
<use xlink:href="#path0_fill" transform="translate(-764 449)" fill="#333333"/>
</g>
</g>
</g>
<g id="Group">
<g id="Group">
<g id="Vector">
<use xlink:href="#path1_fill" transform="translate(-710.667 489.533)" fill="#333333"/>
</g>
</g>
</g>
<g id="Group">
<g id="Group">
<g id="Vector">
<use xlink:href="#path1_fill" transform="translate(-702.133 489.533)" fill="#333333"/>
</g>
</g>
</g>
<g id="Group">
<g id="Group">
<g id="Vector">
<use xlink:href="#path1_fill" transform="translate(-693.6 489.533)" fill="#333333"/>
</g>
</g>
</g>
</g>
</g>
</g>
<defs>
<path id="path0_fill" d="M 125.867 23.4667L 93.8667 23.4667L 93.8667 10.6667C 93.8667 4.78507 89.0816 0 83.2 0L 44.8 0C 38.9184 0 34.1333 4.78507 34.1333 10.6667L 34.1333 23.4667L 2.13333 23.4667C 0.9536 23.4667 0 24.4224 0 25.6L 0 53.3333L 0 117.333C 0 123.215 4.78507 128 10.6667 128L 117.333 128C 123.215 128 128 123.215 128 117.333L 128 53.3333L 128 25.6C 128 24.4224 127.046 23.4667 125.867 23.4667ZM 38.4 10.6667C 38.4 7.13813 41.2715 4.26667 44.8 4.26667L 83.2 4.26667C 86.7285 4.26667 89.6 7.13813 89.6 10.6667L 89.6 23.4667L 85.3333 23.4667L 85.3333 10.6667C 85.3333 9.48907 84.3797 8.53333 83.2 8.53333L 44.8 8.53333C 43.6203 8.53333 42.6667 9.48907 42.6667 10.6667L 42.6667 23.4667L 38.4 23.4667L 38.4 10.6667ZM 81.0667 12.8L 81.0667 23.4667L 46.9333 23.4667L 46.9333 12.8L 81.0667 12.8ZM 36.2667 98.1333L 36.2667 123.733L 27.7333 123.733L 27.7333 98.1333C 27.7333 97.4997 27.4517 96.9003 26.9675 96.4949L 14.9333 86.4683L 14.9333 75.6907L 21.3333 70.5707L 21.3333 81.0667C 21.3333 81.7387 21.6491 82.3701 22.1867 82.7733L 30.72 89.1733C 31.4773 89.7429 32.5205 89.7429 33.2779 89.1733L 41.8112 82.7733C 42.3488 82.3723 42.6645 81.7387 42.6645 81.0667L 42.6645 70.5728L 49.0645 75.6928L 49.0645 86.4683L 37.0304 96.4949C 36.5483 96.9003 36.2667 97.4997 36.2667 98.1333ZM 81.0667 123.733L 59.7333 123.733L 59.7333 119.467L 81.0667 119.467L 81.0667 123.733ZM 67.6416 85.9584L 64.2624 82.5792L 67.7419 70.4L 73.0581 70.4L 76.5376 82.5792L 73.1584 85.9584C 72.7573 86.3573 72.5333 86.9013 72.5333 87.4667L 72.5333 115.2L 68.2667 115.2L 68.2667 87.4667C 68.2667 86.9013 68.0427 86.3573 67.6416 85.9584ZM 110.933 123.733L 104.533 123.733L 104.533 119.467L 100.267 119.467L 100.267 123.733L 93.8667 123.733L 93.8667 120.35L 101.775 112.442C 102.191 112.026 102.4 111.479 102.4 110.933C 102.4 111.479 102.609 112.026 103.025 112.442L 110.933 120.35L 110.933 123.733ZM 100.267 107.917L 93.8667 101.517L 93.8667 84.0832L 99.0165 78.9333L 100.267 78.9333L 100.267 107.917ZM 123.733 117.333C 123.733 120.862 120.862 123.733 117.333 123.733L 115.2 123.733L 115.2 119.467C 115.2 118.901 114.976 118.357 114.575 117.958L 107.55 110.933L 114.575 103.908C 114.976 103.509 115.2 102.965 115.2 102.4L 115.2 83.2C 115.2 82.6347 114.976 82.0907 114.575 81.6917L 108.175 75.2917C 107.776 74.8907 107.234 74.6667 106.667 74.6667L 102.4 74.6667L 98.1333 74.6667C 97.5659 74.6667 97.024 74.8907 96.6251 75.2917L 90.2251 81.6917C 89.824 82.0907 89.6 82.6347 89.6 83.2L 89.6 102.4C 89.6 102.965 89.824 103.509 90.2251 103.908L 97.2501 110.933L 90.2251 117.958C 89.824 118.357 89.6 118.901 89.6 119.467L 89.6 123.733L 85.3333 123.733L 85.3333 117.333C 85.3333 116.156 84.3797 115.2 83.2 115.2L 76.8 115.2L 76.8 88.3499L 80.4416 84.7083C 80.9899 84.16 81.1968 83.36 80.9856 82.6133L 76.7189 67.68C 76.4565 66.7648 75.6181 66.1333 74.6667 66.1333L 66.1333 66.1333C 65.1819 66.1333 64.3435 66.7648 64.0811 67.68L 59.8144 82.6133C 59.6011 83.36 59.8101 84.16 60.3584 84.7083L 64 88.3499L 64 115.2L 57.6 115.2C 56.4203 115.2 55.4667 116.156 55.4667 117.333L 55.4667 123.733L 40.5333 123.733L 40.5333 99.1317L 52.5675 89.1051C 53.0517 88.6997 53.3333 88.1003 53.3333 87.4667L 53.3333 74.6667C 53.3333 74.0181 53.0389 73.4059 52.5333 73.0005L 41.8667 64.4672C 41.2245 63.9552 40.3456 63.8571 39.6075 64.2091C 38.8715 64.5653 38.4 65.3141 38.4 66.1333L 38.4 80L 32 84.8L 25.6 80L 25.6 66.1333C 25.6 65.3141 25.1285 64.5653 24.3925 64.2112C 23.6501 63.8592 22.7755 63.9552 22.1333 64.4693L 11.4667 73.0027C 10.9611 73.4059 10.6667 74.0181 10.6667 74.6667L 10.6667 87.4667C 10.6667 88.1003 10.9483 88.6997 11.4325 89.1051L 23.4667 99.1317L 23.4667 123.733L 10.6667 123.733C 7.13813 123.733 4.26667 120.862 4.26667 117.333L 4.26667 55.4667L 123.733 55.4667L 123.733 117.333ZM 104.533 107.917L 104.533 78.9333L 105.783 78.9333L 110.933 84.0832L 110.933 101.517L 104.533 107.917ZM 123.733 51.2L 4.26667 51.2L 4.26667 27.7333L 36.2667 27.7333L 44.8 27.7333L 83.2 27.7333L 91.7333 27.7333L 123.733 27.7333L 123.733 51.2Z"/>
<path id="path1_fill" d="M 4.26667 0L 0 0L 0 4.26667L 4.26667 4.26667L 4.26667 0Z"/>
</defs>
</svg>
